<svg xmlns="http://www.w3.org/2000/svg" width="1200" height="760" viewBox="0 0 1200 760" fill="none">
  <rect width="1200" height="760" fill="#F7FAFC"/>
  <rect x="64" y="62" width="1072" height="636" rx="10" fill="#FFFFFF" stroke="#CBD5E1"/>
  <rect x="96" y="96" width="300" height="28" rx="4" fill="#94A3B8"/>
  <rect x="516" y="122" width="1" height="488" fill="#CBD5E1"/>
  <rect x="272" y="186" width="488" height="1" fill="#CBD5E1"/>
  <rect x="272" y="348" width="488" height="1" fill="#CBD5E1"/>
  <rect x="272" y="510" width="488" height="1" fill="#CBD5E1"/>
  <rect x="128" y="148" width="208" height="76" rx="8" fill="#E2E8F0"/>
  <rect x="144" y="172" width="176" height="14" rx="3" fill="#94A3B8"/>
  <rect x="128" y="310" width="208" height="76" rx="8" fill="#E2E8F0"/>
  <rect x="144" y="334" width="176" height="14" rx="3" fill="#94A3B8"/>
  <rect x="128" y="472" width="208" height="76" rx="8" fill="#E2E8F0"/>
  <rect x="144" y="496" width="176" height="14" rx="3" fill="#94A3B8"/>
  <rect x="430" y="148" width="172" height="76" rx="8" fill="#CBD5E1"/>
  <rect x="446" y="172" width="140" height="14" rx="3" fill="#64748B"/>
  <rect x="430" y="310" width="172" height="76" rx="8" fill="#CBD5E1"/>
  <rect x="446" y="334" width="140" height="14" rx="3" fill="#64748B"/>
  <rect x="430" y="472" width="172" height="76" rx="8" fill="#CBD5E1"/>
  <rect x="446" y="496" width="140" height="14" rx="3" fill="#64748B"/>
  <rect x="696" y="148" width="376" height="76" rx="8" fill="#0F172A"/>
  <rect x="716" y="172" width="336" height="14" rx="3" fill="#E2E8F0"/>
  <rect x="696" y="310" width="376" height="76" rx="8" fill="#1E293B"/>
  <rect x="716" y="334" width="336" height="14" rx="3" fill="#E2E8F0"/>
  <rect x="696" y="472" width="376" height="76" rx="8" fill="#334155"/>
  <rect x="716" y="496" width="336" height="14" rx="3" fill="#E2E8F0"/>
  <rect x="96" y="596" width="1024" height="1" fill="#CBD5E1"/>
  <rect x="96" y="622" width="700" height="14" rx="3" fill="#E2E8F0"/>
  <rect x="96" y="648" width="840" height="14" rx="3" fill="#E2E8F0"/>
</svg>
