<svg viewBox="0 0 897.08 331.38" xmlns="http://www.w3.org/2000/svg" data-name="Layer 2" id="Layer_2">
  <defs>
    <style>
      .cls-1 {
        fill: currentColor;
      }
    </style>
  </defs>
  <g data-name="Layer 1" id="Layer_1-2">
    <g>
      <path d="M168.89,142.57c8.31,1.54,16.64,3.26,24.73,5.73,45.43,13.88,71.6,44.03,68.15,93.47-4.18,59.84-58.01,78.65-110.44,81.28-6.96.35-14-1.04-20.86-1.05-43.13-.04-86.33-.35-129.43.6-1.25-.89-1.05-2.63-1.01-4.01.24-7.51,2.46-16.36,3.02-23.98,1.01-13.61,1.01-27.35.96-40.82-.27-69.65,1.79-139.94-.99-209.38C2.43,29.52,2.34,14.77.07,0h148.33c49.39,2.98,94.28,20.72,90.4,78.26-2.87,42.44-31,53.68-67.32,62.42-1.18.28-2.4.39-2.59,1.89ZM109.45,6.98c-11.77-1.09-25.02.8-36.96,0l-1.5,1.5v129.11c9.93,1.39,21.37,1.48,31.51,1.04,36.64-1.59,61.13-11.57,66.6-51.16,5.87-42.47-13.91-76.26-59.65-80.48ZM117.44,145.57c-14.38-1.24-30.38.92-44.95,0l-1.5,1.5v167.5c.88,1.42,1.99,1.38,3.45,1.55,52.87,6.19,109.64-9.22,114.41-70.35,3.9-49.96-16.75-95.46-71.41-100.19Z" class="cls-1"></path>
      <path d="M897.08,322.04h-59.93l-4.01-39.88-11.56,19.86c-9.43,11.19-21.78,20.21-35.4,24.53-34.51,10.96-99.53,4.51-103.84-41.91-4.49-48.35,39.43-64.02,77.89-72.78,30.99-7.05,75.74-6.73,72.8-49.72-2.07-30.29-24.13-39.55-51.59-31.81-29.35,8.27-36.11,46.37-58.89,49.89-17.32,2.67-29.67-7.71-33.17-24.58,8.75-3.99,16.7-9.64,25.6-13.96,50.32-24.43,170.67-44.88,176.11,37.3,2.8,42.25-2.22,83.42,3.13,126.48.69,5.53,1.81,11.11,2.87,16.58ZM833.14,194.43c-.73-.86-9.23,6.93-10.66,7.79-13.63,8.16-33.76,9.75-48.52,17.37-44.31,22.86-35.9,105.69,19.78,91.53,19.51-4.96,33.45-26.03,37.16-44.67,4.58-23.04,1.16-48.57,2.25-72.03Z" class="cls-1"></path>
      <path d="M463.06,322.04c-.2,0-.83,1.1-1.53.6-1.1-1.24-1.29-2.85-1.68-4.38-2.21-8.57-3.17-24.28-2.75-33.12.07-1.39.9-1.72-1.03-2.97-1.81,1.29-1.57,3.56-2.51,5.28-8.05,14.75-16.69,25.94-32.64,34.5-34.04,18.26-110.89,12.08-115.16-37.32-4.35-50.3,41.68-64.8,81.84-73.81,30.03-6.73,71.89-6.38,68.96-48.8-1.91-27.63-20.5-37.27-46.35-33.33s-31.09,22.43-44.52,38.28c-12.56,14.83-36.06,20.52-47.78,1.84-8.23-13.13-3.47-14.48,7.76-20.8,42.04-23.65,118.74-40.72,162.55-15.59,42.69,24.48,20.98,97.6,26.24,138.31l5.04,51.31c-18.8.04-37.63-.05-56.44,0ZM456.56,194.43c-.75-.88-8.05,6.08-9.46,7-9.12,5.92-19.82,6.85-29.68,10.26-36.2,12.52-50.57,27.65-47.75,66.97,1.03,14.41,11.2,31.16,26.52,33.36,13.47,1.93,26.73-1,37.31-9.49,30.46-24.44,21.74-73.7,23.05-108.09Z" class="cls-1"></path>
      <path d="M634.37,0l-4.04,47.32c2.83,86.03-4.92,174.11,2.94,259.37.47,5.08.8,10.26,1.1,15.35h-63.43c-.24,0-.76,1.15-1.51.58-2.25-1.5.78-15.78,1-19.03,5.3-78.77,3.47-167.09.97-246.21-.4-12.63-.07-25.3-.97-37.92-.18-2.48-3.55-19.45-.49-19.45h64.43Z" class="cls-1"></path>
    </g>
  </g>
</svg>