<svg xmlns="http://www.w3.org/2000/svg" fill="none" viewBox="0 0 177 35" height="35" width="177">
<path fill="currentColor" d="M125.404 12.7507C125.308 12.5253 125.372 12.2677 125.34 12.0423C125.276 11.6237 125.372 11.1729 125.084 10.7544C125.02 10.69 124.988 10.529 125.116 10.4324C125.148 10.4002 125.212 10.4324 125.148 10.3358C124.924 10.0138 124.956 9.65961 125.052 9.27322C125.244 8.37166 125.916 7.82428 126.493 7.21251C127.613 6.02115 128.733 4.862 130.077 3.89604C131.486 2.86568 132.99 1.99631 134.462 1.06255C134.622 0.965956 134.782 0.998154 134.91 1.06255C136.703 2.09291 138.463 3.18767 140.064 4.50781C140.224 4.63661 140.288 4.862 140.544 4.9264C140.672 4.9586 140.672 5.11959 140.576 5.24838C140.512 5.34498 140.48 5.47378 140.576 5.57037C140.704 5.66697 140.768 5.53817 140.8 5.47378C140.928 5.31278 141.056 5.40938 141.152 5.50597C142.112 6.43974 143.072 7.3735 143.905 8.40386C144.289 8.88684 144.449 9.46642 144.417 10.1104C144.417 10.4002 144.225 10.6578 144.225 10.9476C144.225 11.0764 144.097 11.0764 144.001 11.1085C143.905 10.9798 143.808 10.9476 143.68 11.012C143.744 11.1729 143.872 11.1086 143.969 11.1729C144.065 11.2695 144.129 12.1067 144.065 12.2033C144.033 12.2355 144.001 12.2355 143.969 12.2355C143.872 12.2355 143.776 12.1711 143.744 12.2999C143.712 12.4287 143.84 12.4287 143.905 12.4609C144.001 12.4609 144.065 12.5253 144.033 12.6219C144.033 12.6541 144.001 12.7185 143.969 12.7507C143.905 12.8151 143.84 12.7829 143.776 12.7185C143.712 12.6541 143.648 12.5575 143.584 12.5253C143.36 12.4287 143.168 12.4287 143.136 12.7507C143.264 12.8473 143.424 12.6541 143.552 12.8473C143.52 12.9761 143.296 12.9439 143.232 13.1049C143.68 13.1049 143.552 13.5557 143.808 13.7488C143.872 13.781 143.808 13.8776 143.776 13.9098C143.616 13.9742 143.648 14.0386 143.776 14.103C143.84 14.1674 143.905 14.2318 143.776 14.2962C143.712 14.3284 143.584 14.2962 143.648 14.425C143.712 14.5216 143.808 14.4894 143.872 14.425C143.937 14.3606 144.001 14.2962 144.065 14.2318C144.193 14.6504 144.033 14.9402 143.68 15.1656C143.552 15.069 143.68 15.0046 143.712 14.9402C143.712 14.8436 143.712 14.747 143.584 14.7148C143.424 14.6826 143.488 14.8114 143.488 14.8758C143.456 15.1012 143.264 15.1334 143.104 15.0368C142.976 14.9724 142.88 14.8436 142.912 14.7148C143.04 14.2318 142.816 13.7166 142.912 13.2337C142.976 13.0083 142.816 12.7507 143.008 12.5575C143.072 12.4931 142.976 12.3643 142.912 12.3321C142.784 12.2677 142.656 12.2999 142.496 12.3643C141.792 12.6541 141.056 12.8795 140.288 13.0083C140.128 13.0405 139.904 13.1693 139.712 13.2337C138.559 13.5557 137.439 13.942 136.287 14.2318C135.871 14.3284 135.839 14.5538 135.871 14.908C135.967 15.5842 136.063 16.2281 136.127 16.9043C136.255 17.9669 136.351 19.0616 136.479 20.1242C136.511 20.3496 136.447 20.5106 136.287 20.6716C135.839 21.0258 135.423 21.3799 135.006 21.7663C134.782 21.9595 134.622 21.9273 134.43 21.7341C134.142 21.4765 133.854 21.1545 133.534 20.9614C132.958 20.6072 132.894 20.1242 132.99 19.5446C133.246 17.9347 133.342 16.3247 133.566 14.7148C133.598 14.4572 133.534 14.3606 133.278 14.264C131.55 13.781 129.821 13.2659 128.093 12.7829C127.805 12.7185 127.581 12.6541 127.549 12.2999C127.549 12.2033 127.517 12.0745 127.357 12.1067C127.261 12.1389 127.261 12.2355 127.293 12.3321C127.389 12.5897 127.229 12.5253 127.101 12.4931C127.005 12.4931 126.909 12.4287 126.813 12.4287C126.589 12.4287 126.397 12.3965 126.525 12.7507C126.685 13.1049 126.557 13.2015 126.204 13.2015C126.108 13.2015 126.012 13.2015 125.948 13.2015C125.916 13.3303 126.012 13.3625 126.076 13.3947C126.205 13.4913 126.461 13.2981 126.493 13.4913C126.557 13.781 126.621 14.103 126.461 14.3928C126.397 14.5216 126.333 14.6182 126.397 14.7792C126.172 14.6182 125.948 14.586 125.692 14.7148C125.66 14.5216 125.756 14.425 125.852 14.3284C125.692 14.1996 125.532 14.3606 125.372 14.3606C125.308 13.942 125.212 13.5235 125.852 13.4913C125.724 13.3303 125.628 13.4591 125.532 13.4269L125.5 13.3947C125.404 13.2337 125.244 13.0727 125.436 12.8473C125.692 12.7507 125.948 12.8151 126.237 12.7185C125.916 12.4931 125.66 12.7507 125.404 12.7507ZM127.101 8.75804C127.005 9.08003 127.165 9.33762 127.549 9.46642C127.677 9.36982 127.453 9.27322 127.581 9.20883C127.933 9.46642 128.029 9.43422 128.125 8.95124C128.125 8.88684 128.093 8.82244 128.189 8.79024C128.285 8.79024 128.349 8.82244 128.349 8.91904C128.413 9.56301 129.021 9.7884 129.341 10.2392C129.373 10.3036 129.437 10.3358 129.501 10.2714C129.565 10.207 129.501 10.1748 129.469 10.1104C129.405 10.0138 129.309 9.9172 129.245 9.7884C129.181 9.69181 129.117 9.56301 129.181 9.43422C129.277 9.27322 129.405 9.36982 129.501 9.40202C129.597 9.43422 129.693 9.43422 129.725 9.30542C129.757 9.20883 129.725 9.14443 129.661 9.11223C129.533 9.01563 129.469 8.91904 129.437 8.75804C129.437 8.66145 129.405 8.53265 129.277 8.53265C129.117 8.56485 129.213 8.69365 129.213 8.75804C129.245 8.98344 129.085 9.14443 128.925 9.04783C128.733 8.95124 128.541 8.75804 128.477 8.56485C128.317 8.11407 127.997 7.75988 127.613 7.79208C127.421 7.79208 127.293 7.92088 127.165 7.98527C126.717 8.24286 126.717 8.27506 127.101 8.56485C127.101 8.66145 127.101 8.72585 127.101 8.75804ZM129.821 10.5612C129.725 10.69 129.981 10.851 129.725 10.9476C129.629 10.9798 129.501 10.9154 129.533 11.1085C129.565 11.2695 129.661 11.3339 129.789 11.3339C130.013 11.3339 130.173 11.3983 130.141 11.6881C130.141 11.7525 130.141 11.8169 130.269 11.8169C130.557 11.7847 130.589 11.8813 130.429 12.1389C130.397 12.2033 130.397 12.2355 130.397 12.2999C130.622 12.9117 130.622 12.9117 131.198 13.0727C131.294 13.1049 131.39 13.1049 131.454 13.0083C131.518 12.9117 131.422 12.8473 131.358 12.7829C131.102 12.4609 130.75 12.2033 130.91 11.7203C130.942 11.6237 130.91 11.4627 130.878 11.3339C130.878 11.2373 130.782 11.1085 130.718 11.1407C130.461 11.4305 130.365 11.1407 130.173 11.0764C129.949 11.012 129.949 11.012 130.013 10.8188C130.109 10.69 129.981 10.5934 129.821 10.5612ZM136.031 8.46826C135.711 8.85464 135.711 9.08003 135.999 9.20883C136.287 9.33762 136.415 9.08003 136.543 8.91904C136.639 8.82244 136.735 8.69365 136.607 8.56485C136.479 8.46826 136.351 8.53265 136.255 8.59705C136.095 8.72585 136.127 8.72585 136.031 8.46826ZM142.528 9.24102C142.592 9.36982 142.432 9.65961 142.72 9.65961C142.944 9.65961 143.04 9.43422 143.04 9.20883C143.04 9.01563 142.976 8.72585 142.752 8.72585C142.464 8.75804 142.56 9.04783 142.528 9.24102ZM138.079 5.40938C138.143 5.57037 138.207 5.69917 138.207 5.82796C138.239 6.05335 138.367 6.02115 138.527 5.98895C138.655 5.95676 138.815 5.89236 138.751 5.69917C138.655 5.37718 138.399 5.34498 138.079 5.40938ZM143.136 11.2373C143.296 11.3661 143.456 11.4305 143.648 11.4305C143.712 11.4305 143.776 11.4949 143.776 11.5593C143.776 11.6559 143.712 11.6237 143.648 11.6559C143.584 11.6559 143.488 11.6237 143.488 11.7525C143.616 11.8169 143.776 11.8491 143.905 11.7203C144.001 11.6237 143.969 11.4949 143.937 11.3983C143.873 11.2373 143.296 11.1407 143.136 11.2373ZM131.902 13.0727C132.254 13.4269 132.414 13.4591 132.606 13.2337C132.35 13.2659 132.222 12.9761 131.902 13.0727ZM142.4 10.4646C142.624 10.4002 142.88 10.6256 143.2 10.4968C142.88 10.3358 142.624 10.207 142.4 10.4646ZM143.456 13.9742C143.488 13.7488 143.488 13.5235 143.136 13.4269C143.296 13.62 142.88 13.9742 143.456 13.9742ZM126.301 10.4324C126.333 10.5934 126.076 10.7222 126.204 10.8188C126.301 10.9154 126.525 10.8188 126.557 10.69C126.621 10.5612 126.333 10.6256 126.301 10.4324ZM142.624 11.0442C142.592 10.9154 142.496 10.9154 142.4 10.8832C142.272 10.851 142.24 10.9154 142.24 11.0442C142.24 11.1407 142.304 11.2373 142.4 11.2051C142.496 11.2373 142.592 11.1729 142.624 11.0442ZM125.628 12.3643C125.852 12.5575 126.012 12.2677 126.204 12.3965C126.204 12.3965 126.269 12.3321 126.237 12.2677C126.172 12.1711 126.076 12.1067 125.98 12.1389C125.852 12.1711 125.756 12.2677 125.628 12.3643ZM140.48 9.65961C140.384 9.8206 140.224 9.9172 140.352 10.1104C140.384 10.1748 140.544 10.1426 140.576 10.0782C140.736 9.9172 140.64 9.8206 140.48 9.65961ZM133.502 9.9816C133.502 9.885 133.47 9.8206 133.342 9.7884C133.246 9.7884 133.182 9.8206 133.182 9.9494C133.182 10.0782 133.246 10.1426 133.342 10.1748C133.438 10.1748 133.47 10.0782 133.502 9.9816ZM129.725 8.11407C129.789 8.08187 129.981 8.11407 129.917 7.98527C129.885 7.92088 129.949 7.72769 129.789 7.72769C129.661 7.75988 129.597 7.88868 129.565 8.01747C129.533 8.11407 129.629 8.11407 129.725 8.11407ZM126.749 10.6578C126.749 10.6256 126.717 10.6256 126.717 10.5934V10.5612C126.717 10.5612 126.749 10.5612 126.749 10.5934C126.781 10.6256 126.749 10.6256 126.749 10.6578Z"></path>
<path fill="currentColor" d="M16.3236 16.6145C16.5797 16.6789 16.7717 16.7433 16.9957 16.8077C18.212 17.2263 18.9482 18.0634 19.0442 19.3836C19.1082 20.3174 19.1082 21.2511 19.0442 22.1849C18.9802 23.183 18.4361 23.8914 17.5719 24.3422C16.8357 24.6964 16.0675 24.8574 15.2674 24.8896C12.4827 24.8896 9.6981 24.8896 6.91347 24.8896C5.2811 24.8896 3.64873 24.8896 2.04837 24.8896C1.7603 24.8896 1.69629 24.8252 1.69629 24.5354C1.69629 19.4158 1.69629 14.2962 1.69629 9.2088C1.69629 8.91901 1.79231 8.85461 2.08038 8.85461C6.56139 8.85461 11.0104 8.85461 15.4914 8.85461C16.0035 8.85461 16.5476 8.88681 17.0598 9.04781C18.148 9.3376 18.7561 10.046 18.9162 11.1407C19.0762 12.2033 19.0122 13.2658 18.9482 14.2962C18.8202 15.4232 18.052 16.1959 16.8037 16.5179C16.6757 16.5501 16.5156 16.5823 16.3236 16.6145ZM5.34511 16.7433C5.34511 18.3854 5.34511 20.0276 5.34511 21.6375C5.34511 21.9273 5.40913 21.9917 5.69719 21.9917C8.41781 21.9917 11.1064 21.9917 13.827 21.9917C14.1471 21.9917 14.4352 21.9595 14.7552 21.8951C15.2353 21.7663 15.5234 21.5087 15.5874 20.9935C15.6834 20.2852 15.6514 19.5768 15.5874 18.8684C15.5234 18.3854 15.2674 18.0956 14.7872 17.999C14.4352 17.9347 14.1151 17.9025 13.763 17.9025C12.0346 17.9025 10.3062 17.9025 8.57784 17.9025C8.25777 17.9025 8.16175 17.8059 8.19376 17.4839C8.22576 16.8399 8.22576 16.2281 8.19376 15.5841C8.19376 15.2944 8.28978 15.23 8.54584 15.23C10.3062 15.23 12.0666 15.23 13.827 15.23C14.1471 15.23 14.4672 15.1978 14.7872 15.1334C15.2353 15.0046 15.4914 14.747 15.4914 14.2962C15.5234 13.6522 15.5234 13.0082 15.4914 12.3643C15.4594 11.9135 15.2353 11.6559 14.7872 11.5271C14.4352 11.4305 14.0831 11.4305 13.731 11.4305C11.0424 11.4305 8.3858 11.4305 5.69719 11.4305C5.40913 11.4305 5.34511 11.4949 5.34511 11.7847C5.34511 13.459 5.34511 15.1012 5.34511 16.7433Z"></path>
<path fill="currentColor" d="M118.875 16.6467C120.763 17.0009 121.659 18.0634 121.627 19.8988C121.627 20.7359 121.691 21.5731 121.563 22.4103C121.435 23.3118 120.923 23.9558 120.091 24.3422C119.355 24.6964 118.587 24.8574 117.787 24.8574C115.194 24.8896 112.601 24.8896 110.009 24.8896C108.216 24.8896 106.392 24.8896 104.6 24.8896C104.344 24.8896 104.248 24.8252 104.248 24.5676C104.248 19.448 104.248 14.3284 104.248 9.2088C104.248 8.95121 104.28 8.85461 104.568 8.85461C109.081 8.85461 113.562 8.85461 118.075 8.85461C118.555 8.85461 119.035 8.88681 119.483 9.01561C120.699 9.3054 121.339 10.1104 121.467 11.3661C121.531 12.2033 121.499 13.0082 121.499 13.8454C121.499 15.2944 120.795 16.1637 119.387 16.5179C119.259 16.5501 119.099 16.5823 118.875 16.6467ZM107.928 16.7433C107.928 18.3854 107.928 20.0276 107.928 21.6375C107.928 21.9273 107.992 22.0239 108.312 22.0239C111.001 22.0239 113.722 22.0239 116.41 22.0239C116.666 22.0239 116.954 22.0239 117.21 21.9595C117.851 21.8307 118.139 21.5409 118.203 20.8647C118.235 20.2852 118.235 19.6734 118.203 19.0938C118.171 18.4176 117.851 18.0956 117.178 17.999C116.89 17.9669 116.57 17.9347 116.25 17.9347C114.522 17.9347 112.825 17.9347 111.097 17.9347C110.841 17.9347 110.745 17.8703 110.745 17.5805C110.777 16.9365 110.777 16.2603 110.745 15.6163C110.745 15.3266 110.841 15.2622 111.097 15.2944C112.858 15.2944 114.618 15.2944 116.41 15.2944C116.698 15.2944 116.986 15.2944 117.274 15.23C117.787 15.1012 118.075 14.8436 118.107 14.2962C118.139 13.6844 118.139 13.0726 118.107 12.4931C118.075 11.9779 117.851 11.7203 117.339 11.5593C117.018 11.4627 116.666 11.4627 116.346 11.4627C113.658 11.4627 110.969 11.4627 108.28 11.4627C107.992 11.4627 107.928 11.5593 107.928 11.8491C107.928 13.459 107.928 15.1012 107.928 16.7433Z"></path>
<path fill="currentColor" d="M32.2952 11.9779C31.8151 12.8473 31.399 13.6522 30.9509 14.425C30.5028 15.23 30.0867 16.0671 29.6386 16.8721C29.4785 17.1619 29.5426 17.1941 29.8306 17.1941C30.9189 17.1941 32.0071 17.1941 33.0954 17.1941C33.2234 17.1941 33.3514 17.1941 33.4794 17.1941C33.5114 17.2263 33.5435 17.2585 33.5435 17.2907C33.4154 17.3873 33.2874 17.4839 33.1594 17.5805C32.3912 18.321 31.655 19.0294 30.8869 19.77C30.6948 19.9632 30.5028 20.0598 30.2147 20.0598C29.5426 20.0276 28.8704 20.0598 28.2303 20.0598C27.9422 20.0598 27.8142 20.1564 27.7181 20.3818C26.982 21.7985 26.2138 23.183 25.4776 24.5998C25.3496 24.8252 25.2216 24.9218 24.9655 24.9218C23.9733 24.8896 22.9811 24.9218 22.0209 24.9218C21.6048 24.9218 21.6048 24.9218 21.7968 24.5676C24.0053 20.6715 26.1818 16.7755 28.3903 12.8473C29.0624 11.6237 29.7666 10.4002 30.4388 9.1766C30.5668 8.95121 30.6948 8.85461 30.9829 8.85461C31.9431 8.88681 32.9353 8.85461 33.8955 8.85461C34.1196 8.85461 34.2476 8.91901 34.3756 9.1122C37.2883 14.264 40.233 19.3836 43.1456 24.5354C43.3377 24.8896 43.3377 24.8896 42.9216 24.8896C41.8013 24.8896 40.6811 24.8896 39.5288 24.8896C39.2407 24.8896 39.1127 24.793 38.9527 24.5676C36.7442 20.5427 34.6317 16.4535 32.4872 12.3965C32.4872 12.2999 32.3912 12.1711 32.2952 11.9779Z"></path>
<path fill="currentColor" d="M159.204 16.2925C158.436 17.0653 157.732 17.9025 156.996 18.7074C155.235 20.7037 153.475 22.6679 151.714 24.6642C151.618 24.793 151.522 24.8896 151.298 24.8896C149.954 24.8896 148.578 24.8896 147.201 24.8896C147.233 24.6964 147.361 24.632 147.457 24.5032C149.762 21.9595 152.098 19.448 154.403 16.9365C154.627 16.7111 154.627 16.5823 154.403 16.3569C152.034 13.9742 149.698 11.5915 147.329 9.20881C147.233 9.11221 147.137 9.01562 147.009 8.91902C147.137 8.79023 147.265 8.82243 147.361 8.82243C148.738 8.82243 150.114 8.82243 151.458 8.82243C151.746 8.82243 151.938 8.88682 152.162 9.11221C153.667 10.7543 155.203 12.3643 156.739 14.0064C156.932 14.2318 157.028 14.2318 157.22 14.0064C158.66 12.3643 160.132 10.7221 161.573 9.08002C161.733 8.88682 161.893 8.82243 162.149 8.82243C163.301 8.82243 164.485 8.82243 165.637 8.82243C165.734 8.82243 165.862 8.82243 165.99 8.82243C165.926 9.01562 165.83 9.08002 165.734 9.17661C163.621 11.4305 161.509 13.6522 159.396 15.9061C159.364 16.0671 159.204 16.1315 159.204 16.2925Z"></path>
<path fill="currentColor" d="M58.5094 8.88682C57.5171 9.85278 56.6209 10.7221 55.6927 11.6237C55.5647 11.7525 55.4367 11.7525 55.2766 11.7525C54.0604 11.7525 52.8441 11.7525 51.6278 11.7525C51.2757 11.7525 51.1477 11.8169 51.1477 12.2033C51.1797 16.2925 51.1477 20.3818 51.1797 24.471C51.1797 24.8574 51.0837 24.954 50.7316 24.9218C49.7714 24.8896 48.8112 24.8896 47.8509 24.9218C47.5309 24.9218 47.4669 24.8252 47.4669 24.5032C47.4669 20.3818 47.4669 16.2925 47.4669 12.1711C47.4669 11.8169 47.4028 11.6881 47.0188 11.7203C44.8423 11.7525 42.6658 11.7203 40.4893 11.7525C40.2012 11.7525 40.1372 11.6881 40.1372 11.3983C40.1692 10.6899 40.1692 9.94938 40.1372 9.24101C40.1372 8.95122 40.2012 8.88682 40.4893 8.88682C44.3302 8.88682 48.139 8.88682 51.9799 8.88682C54.0604 8.88682 56.1408 8.88682 58.1893 8.88682C58.2533 8.85462 58.3493 8.85462 58.5094 8.88682Z"></path>
<path fill="currentColor" d="M80.8502 8.85468C79.986 9.72405 79.1538 10.4646 78.3536 11.2696C78.0335 11.5916 77.7135 11.7204 77.2654 11.7204C76.1131 11.6882 74.9929 11.7204 73.8406 11.6882C73.5525 11.6882 73.4885 11.7848 73.4885 12.0424C73.4885 16.1638 73.4885 20.2852 73.4885 24.4067C73.4885 24.793 73.3925 24.8896 73.0404 24.8574C72.0802 24.8252 71.152 24.8252 70.1918 24.8574C69.8717 24.8574 69.7757 24.793 69.7757 24.4389C69.7757 20.3174 69.7757 16.196 69.8077 12.0746C69.8077 11.7204 69.7117 11.656 69.3916 11.656C67.2151 11.6882 65.0066 11.656 62.8301 11.656C62.5741 11.656 62.478 11.5916 62.478 11.334C62.51 10.5612 62.478 9.82064 62.478 9.04787C62.478 8.85468 62.51 8.79028 62.7341 8.79028C68.7194 8.85468 74.7368 8.85468 80.8502 8.85468Z"></path>
<path fill="currentColor" d="M126.076 22.6679C126.044 22.5069 125.948 22.5069 125.884 22.4425C125.692 22.3137 125.276 22.4747 125.34 22.0239C125.372 21.7663 125.212 21.5087 125.34 21.2833C125.404 21.1545 125.34 21.0579 125.308 20.9613C125.18 20.5428 125.372 20.092 125.308 19.6734C125.276 19.5124 125.468 19.5768 125.564 19.5768C125.66 19.5768 125.628 19.7056 125.788 19.6734C126.301 19.5446 125.948 19.3192 125.852 19.0938C125.82 19.1904 125.82 19.287 125.788 19.4158C125.66 19.3836 125.66 19.1904 125.436 19.2226C125.212 19.287 125.276 18.9972 125.276 18.8362C125.276 18.4176 125.372 17.9991 125.308 17.5805C125.308 17.5161 125.308 17.4195 125.404 17.3873C125.468 17.3551 125.532 17.4195 125.532 17.4839C125.564 17.6127 125.596 17.7093 125.82 17.7415C125.596 17.4195 125.5 17.1619 125.98 17.0331C126.141 17.0009 126.012 16.7755 125.98 16.6467C125.756 16.0993 125.532 15.552 125.372 14.9402C125.596 15.0046 125.756 15.0368 125.948 14.8758C126.076 14.7792 126.301 14.8758 126.365 15.0046C126.493 15.2944 126.749 15.2944 126.941 15.391C127.677 15.6808 128.445 15.9061 129.181 16.1959C129.437 16.2925 129.693 16.3569 129.885 16.5823C129.981 16.6789 130.109 16.8399 129.853 16.9365C129.693 17.0009 129.757 17.0975 129.821 17.1941C129.917 17.2907 130.013 17.3873 130.109 17.4517C130.205 17.5161 130.365 17.6771 130.461 17.5161C130.558 17.3873 130.397 17.2907 130.301 17.2263C130.109 17.0975 130.173 16.9365 130.237 16.7755C130.333 16.5823 130.461 16.7433 130.558 16.7755C131.422 17.0331 131.422 17.0653 131.454 17.9669C131.582 19.9954 131.774 22.0561 131.87 24.0846C131.966 25.598 132.19 27.1435 132.062 28.6568C131.902 30.2024 131.454 31.6835 130.686 33.0681C130.622 33.1647 130.558 33.2613 130.493 33.3578C130.365 33.4866 130.301 33.551 130.141 33.3578C128.925 31.5869 127.613 29.9126 126.557 28.0129C126.269 27.4655 126.044 26.8859 125.788 26.3385C125.596 25.9843 125.66 25.5336 125.404 25.2116C125.372 25.1794 125.34 25.0828 125.372 25.0506C125.468 24.954 125.564 25.115 125.66 25.0506C125.66 25.0184 125.66 24.954 125.628 24.954C125.116 24.8252 125.084 24.4066 125.148 23.988C125.212 23.5694 125.18 23.1831 125.276 22.7645C125.308 22.5069 125.404 22.5069 125.596 22.5713C125.756 22.6035 125.884 22.7001 126.076 22.6679ZM126.269 20.8004C126.012 21.1867 126.012 21.1867 126.429 21.2511C126.397 21.0901 126.269 20.9613 126.269 20.8004ZM128.637 28.5602C128.605 28.3992 128.509 28.3992 128.381 28.3992C128.285 28.3992 128.253 28.4636 128.285 28.5602C128.317 28.6568 128.381 28.7534 128.509 28.7534C128.605 28.7212 128.637 28.6568 128.637 28.5602ZM128.413 25.9199C128.349 26.1453 128.413 26.3063 128.637 26.4351C128.637 26.2097 128.701 26.0165 128.413 25.9199ZM125.692 18.5786C125.66 18.804 125.724 18.9006 125.852 19.0294C125.884 18.8684 125.852 18.7396 125.692 18.5786Z"></path>
<path fill="currentColor" d="M100.375 24.8574C100.247 24.954 100.119 24.9218 99.9905 24.9218C95.0614 24.9218 90.1323 24.9218 85.2032 24.9218C84.8511 24.9218 84.7871 24.8252 84.7871 24.5032C84.7871 19.4158 84.7871 14.3606 84.7871 9.2732C84.7871 8.91901 84.8831 8.85461 85.2032 8.85461C86.1634 8.88681 87.1556 8.88681 88.1159 8.85461C88.4359 8.85461 88.532 8.91901 88.532 9.241C88.532 13.298 88.532 17.3873 88.532 21.4443C88.532 21.7663 88.596 21.8629 88.948 21.8629C91.1245 21.8307 93.301 21.8629 95.4775 21.8629C95.7336 21.8629 95.9576 21.9273 96.1497 22.0561C97.462 22.9255 98.7743 23.7626 100.119 24.632C100.183 24.6964 100.247 24.7608 100.375 24.8574Z"></path>
<path fill="currentColor" d="M143.68 16.4535C143.712 16.6145 144.097 16.8077 143.616 16.8721C143.841 17.2263 143.264 17.4517 143.552 17.8703C143.616 17.4839 143.905 17.2585 143.937 16.8077C144.097 17.0975 144.065 17.3229 144.097 17.5161C144.097 17.5483 144.097 17.5805 144.097 17.5805C143.424 17.6771 144.033 17.8703 144.065 18.0313C144.097 18.1601 144.097 18.2567 144.097 18.3533C144.097 18.7718 144.097 19.1904 144.097 19.609C144.097 19.8666 144.193 20.1886 143.776 20.2208C143.744 20.2208 143.68 20.3174 143.744 20.3818C143.648 20.3496 143.648 20.414 143.648 20.4784C143.488 20.6072 143.488 20.8004 143.488 20.9936C143.68 21.0258 143.873 20.7038 144.033 20.9936C144.129 21.1545 144.065 21.8629 143.937 21.9273C143.744 22.0239 143.744 22.1205 143.937 22.2171C144.065 22.2815 144.065 22.4103 144.065 22.5069C144.065 22.9255 144.065 23.3119 144.097 23.7304C144.225 24.6642 143.841 25.0828 142.88 25.2438C142.816 25.2438 142.72 25.2116 142.688 25.3082C142.848 25.3726 142.848 25.3726 143.552 25.1794C143.68 25.598 143.264 25.5014 143.136 25.6946C143.136 25.7268 143.136 25.759 143.168 25.759C143.68 26.0166 143.68 26.0166 143.488 26.5961C143.168 27.4011 142.784 28.2061 142.272 28.9144C141.568 29.8482 141.056 30.9108 140.32 31.8123C139.936 32.2953 139.616 32.8105 139.263 33.3257C139.103 33.5833 138.943 33.5833 138.815 33.3257C138.719 33.1325 138.527 32.9715 138.687 32.7139C138.719 32.6495 138.719 32.5207 138.591 32.4885C138.207 32.3919 138.079 32.0699 138.239 31.6835C138.271 31.5547 138.239 31.5225 138.143 31.4581C137.919 31.3615 137.887 31.1683 137.791 30.9752C137.183 29.2042 137.215 27.3689 137.375 25.5336C137.535 24.0846 137.599 22.6357 137.695 21.1868C137.791 19.9954 137.855 18.804 137.919 17.6127C137.951 17.2585 138.079 17.0653 138.431 16.9365C139.52 16.5823 140.576 16.1316 141.664 15.7774C142.016 15.6486 142.368 15.4876 142.72 15.391C142.944 15.3266 143.008 15.3588 143.104 15.552C143.168 15.713 143.168 15.9062 143.456 15.713C143.712 15.5198 143.905 15.8096 144.033 16.0028C144.161 16.2603 144.033 16.4213 143.744 16.4535C143.68 16.2925 143.873 16.2925 143.873 16.1638C143.873 16.035 143.841 15.9706 143.744 15.9384C143.584 15.9062 143.584 16.0028 143.584 16.1316C143.648 16.1637 143.552 16.3247 143.68 16.4535ZM139.199 31.9733C139.231 32.1021 139.36 32.0377 139.456 32.1021C139.744 32.2953 139.872 32.2631 140.032 31.9411C140.096 31.8123 140.16 31.6835 140 31.6191C139.872 31.5547 139.712 31.5869 139.712 31.7801C139.68 31.9733 139.584 32.0055 139.424 31.9089C139.327 31.8767 139.231 31.8445 139.199 31.9733ZM141.184 28.9788C141.184 28.8822 141.152 28.85 141.088 28.8178C140.992 28.7856 140.928 28.8178 140.896 28.9144C140.768 29.1398 140.736 29.3652 140.544 29.5262C140.48 29.5584 140.416 29.6228 140.512 29.7194C140.576 29.7838 140.672 29.7516 140.736 29.7194C140.96 29.494 141.056 29.2042 141.184 28.9788ZM142.528 17.5805C142.912 17.2907 142.976 16.8399 143.136 16.4213C143.168 16.3569 143.136 16.2925 143.072 16.2603C143.008 16.2603 142.976 16.3247 142.944 16.3891C142.816 16.8077 142.688 17.1941 142.528 17.5805ZM143.264 18.9972C143.168 19.1904 143.104 19.3836 143.04 19.5446C143.008 19.609 142.944 19.7056 143.04 19.8022C143.104 19.8666 143.2 19.8022 143.296 19.77C143.424 19.7378 143.424 19.5446 143.424 19.5446C143.232 19.4158 143.392 19.1904 143.264 18.9972ZM143.841 18.7074C143.841 18.6431 143.841 18.6109 143.841 18.5787C143.809 18.4499 143.712 18.4499 143.616 18.3855C143.584 18.3855 143.52 18.3855 143.52 18.4177C143.424 18.5465 143.584 18.5465 143.616 18.6109C143.712 18.7396 143.584 18.804 143.552 18.9006C143.52 18.965 143.456 19.0938 143.552 19.126C143.616 19.1582 143.744 19.126 143.776 19.0616C143.873 18.965 143.712 18.8362 143.841 18.7074ZM142.624 19.8666C142.656 19.8988 142.688 19.8988 142.72 19.931C142.944 19.6734 142.944 19.3192 143.072 19.0294C143.072 18.9972 143.04 18.9328 143.04 18.9328C142.976 18.9006 142.912 18.965 142.88 19.0294C142.784 19.287 142.688 19.5768 142.624 19.8666ZM143.776 21.6375C143.841 21.4765 143.937 21.3477 144.001 21.1545C144.033 21.0902 143.969 21.058 143.905 21.058C143.744 21.1546 143.616 21.3155 143.584 21.5087C143.52 21.6375 143.648 21.6053 143.776 21.6375ZM141.28 28.2705C141.536 28.1739 141.536 27.9485 141.536 27.7553C141.536 27.6909 141.504 27.6265 141.44 27.6587C141.216 27.7231 141.344 27.9485 141.28 28.0773C141.216 28.1417 141.216 28.2061 141.28 28.2705ZM143.392 24.0202C143.584 24.1168 143.776 24.1812 143.808 24.0846C143.841 23.9236 144.033 23.7948 143.873 23.5051C143.809 23.7948 143.68 23.9558 143.392 24.0202ZM140.096 24.149C140.288 23.988 140.416 23.827 140.352 23.5373C140.096 23.666 140.032 23.8592 140.096 24.149ZM143.168 21.8951C142.976 22.0883 142.944 22.3137 142.944 22.5391C143.264 22.4103 143.296 22.2171 143.168 21.8951ZM138.911 31.7479C139.007 31.7157 139.039 31.6191 139.039 31.5547C139.071 31.4581 139.135 31.3293 139.039 31.2327C139.007 31.2005 138.943 31.2005 138.911 31.2005C138.783 31.2649 138.847 31.3937 138.847 31.5225C138.847 31.5869 138.815 31.6835 138.911 31.7479ZM143.52 22.8933C143.616 23.0221 143.744 23.1509 143.937 23.1509C144.033 23.1509 143.969 23.0221 143.969 22.9577C143.841 22.7001 143.68 22.8933 143.52 22.8933ZM140.096 26.7893C140.256 26.5639 140.352 26.4029 140.288 26.1776C140.064 26.3063 140.032 26.4995 140.096 26.7893ZM143.456 22.0239C143.456 22.2171 143.488 22.3459 143.424 22.4747C143.392 22.5069 143.424 22.5713 143.488 22.6035C143.52 22.6035 143.584 22.6357 143.584 22.5713C143.552 22.4103 143.776 22.2171 143.456 22.0239ZM142.304 18.1923C142.176 18.3533 142.08 18.4821 142.208 18.6109C142.272 18.6752 142.432 18.6752 142.56 18.5465C142.4 18.4499 142.368 18.3533 142.304 18.1923ZM138.847 31.9733C138.847 31.8767 138.815 31.8123 138.719 31.8445C138.591 31.8767 138.559 32.0055 138.559 32.1021C138.559 32.1987 138.591 32.2631 138.687 32.2309C138.815 32.1987 138.815 32.0699 138.847 31.9733Z"></path>
<path fill="currentColor" d="M141.504 30.7497C141.664 30.3955 141.888 30.1701 141.952 29.8482C141.984 29.7516 142.08 29.7194 142.176 29.7194C142.272 29.7194 142.368 29.7194 142.496 29.7194C151.202 29.7194 159.908 29.7194 168.614 29.7194C168.966 29.7194 169.062 29.655 169.062 29.2686C169.062 20.9935 169.062 12.7184 169.062 4.41118C169.062 4.05699 168.966 3.9604 168.614 3.9604C159.204 3.9604 149.826 3.9604 140.416 3.9604C140.096 3.9604 139.84 3.896 139.584 3.67061C139.296 3.41302 139.008 3.21983 138.688 2.99444C138.784 2.86564 138.912 2.93004 139.008 2.93004C149.25 2.93004 159.46 2.93004 169.703 2.93004C170.023 2.93004 170.087 3.02664 170.087 3.31642C170.087 12.3321 170.087 21.3477 170.087 30.3633C170.087 30.6531 170.023 30.7175 169.735 30.7175C160.42 30.7175 151.106 30.7175 141.824 30.7175C141.728 30.7497 141.632 30.7497 141.504 30.7497Z"></path>
<path fill="currentColor" d="M127.933 30.7497C127.709 30.7497 127.581 30.7497 127.453 30.7497C118.843 30.7497 110.233 30.7497 101.655 30.7497C101.271 30.7497 101.175 30.6531 101.175 30.2668C101.175 21.3155 101.175 12.3643 101.175 3.41303C101.175 3.05885 101.239 2.93005 101.623 2.93005C111.193 2.93005 120.731 2.93005 130.301 2.93005C130.429 2.93005 130.557 2.93005 130.781 2.93005C130.301 3.28424 129.885 3.60623 129.469 3.92821C129.341 4.02481 129.181 3.96041 129.021 3.96041C120.251 3.96041 111.449 3.96041 102.679 3.96041C102.295 3.96041 102.199 4.05701 102.199 4.44339C102.199 12.7185 102.199 20.9935 102.199 29.2364C102.199 29.5906 102.263 29.6872 102.647 29.6872C110.681 29.6872 118.715 29.6872 126.749 29.655C127.101 29.655 127.357 29.7194 127.485 30.0736C127.581 30.3312 127.741 30.4922 127.933 30.7497Z"></path>
<path fill="currentColor" d="M159.204 16.2925C159.268 16.3569 159.332 16.3891 159.364 16.4535C162.084 19.1904 164.805 21.9273 167.526 24.6641C167.59 24.7285 167.622 24.7607 167.686 24.8251C167.622 24.9539 167.494 24.8895 167.398 24.8895C165.925 24.8895 164.485 24.8895 163.013 24.8895C162.789 24.8895 162.629 24.8251 162.469 24.6641C161.412 23.5372 160.324 22.378 159.236 21.2511C159.108 21.1223 159.012 21.0257 159.012 20.8325C159.14 19.3192 159.172 17.8058 159.204 16.2925Z"></path>
<path fill="currentColor" d="M134.686 30.7497C133.886 30.7497 133.086 30.7497 132.286 30.7497C132.062 30.7497 131.998 30.6853 132.062 30.4599C132.254 29.7194 132.254 29.7194 133.022 29.7194C134.27 29.7194 135.518 29.7194 136.767 29.7194C137.055 29.7194 137.183 29.7838 137.247 30.1057C137.343 30.7819 137.375 30.7819 136.703 30.7819C136.031 30.7497 135.358 30.7497 134.686 30.7497Z"></path>
<path fill="currentColor" d="M143.744 20.3818C143.904 20.3818 144.064 20.3818 144.096 20.6072C144.096 20.7038 144 20.6716 143.936 20.7038C143.68 20.8004 143.744 20.5428 143.68 20.4462C143.776 20.5106 143.776 20.4462 143.744 20.3818Z"></path>
<path fill="currentColor" d="M125.501 13.4591C125.468 13.4591 125.436 13.4591 125.436 13.4591L125.468 13.4269C125.501 13.4269 125.501 13.4591 125.501 13.4591Z"></path>
<path fill="currentColor" d="M126.749 10.6578C126.749 10.6256 126.749 10.5934 126.749 10.5934C126.749 10.5934 126.716 10.5934 126.716 10.5612V10.5934C126.716 10.6256 126.749 10.6578 126.749 10.6578Z"></path>
<path fill="currentColor" d="M127.165 8.72587C127.133 8.72587 127.101 8.75807 127.101 8.75807C127.101 8.72587 127.101 8.69367 127.101 8.62927C127.133 8.62927 127.165 8.66147 127.165 8.72587Z"></path>
<path fill="currentColor" d="M127.549 9.17668C127.357 9.20888 127.325 9.08009 127.325 8.95129C127.485 8.91909 127.517 9.04789 127.549 9.17668Z"></path>
<path fill="currentColor" d="M127.326 8.95128C127.229 8.91908 127.165 8.88688 127.229 8.79028C127.326 8.82248 127.39 8.85468 127.326 8.95128Z"></path>
<path fill="currentColor" d="M127.261 8.7902C127.197 8.8224 127.133 8.7902 127.165 8.6936C127.229 8.7258 127.261 8.758 127.261 8.7902Z"></path>
<path stroke-miterlimit="10" stroke="white" fill="currentColor" d="M173.671 30.6532C174.538 30.6532 175.24 29.9468 175.24 29.0754C175.24 28.2041 174.538 27.4977 173.671 27.4977C172.805 27.4977 172.103 28.2041 172.103 29.0754C172.103 29.9468 172.805 30.6532 173.671 30.6532Z"></path>
<path fill="currentColor" d="M174.023 29.7194L173.735 29.1076H173.415V29.6872C173.415 29.6872 173.415 29.7194 173.383 29.7194H173.287C173.287 29.7194 173.255 29.7194 173.255 29.6872V28.367C173.255 28.367 173.255 28.3348 173.287 28.3348H173.799C173.895 28.3348 173.991 28.367 174.055 28.4314C174.119 28.4958 174.151 28.5924 174.151 28.689C174.151 28.7856 174.119 28.85 174.087 28.9144C174.023 28.9788 173.959 29.011 173.895 29.0432L174.183 29.6228L174.023 29.7194C174.023 29.7516 174.023 29.7516 174.023 29.7194ZM173.415 28.528V29.011H173.767C173.831 29.011 173.895 28.9788 173.959 28.9466C173.991 28.9144 174.023 28.85 174.023 28.7534C174.023 28.6568 173.991 28.6246 173.959 28.5602C173.927 28.528 173.863 28.4958 173.767 28.4958L173.415 28.528Z"></path>
</svg>
