<svg viewBox="0 0 767.5 312.5" version="1.1" xmlns="http://www.w3.org/2000/svg" id="Layer_2">
  
  <defs>
    <style>
      .st0 {
        fill: currentColor;
      }
    </style>
  </defs>
  <path d="M508.8,3.2c32.4,3,52.7,23.3,49.7,56.7-1.4,15.8-10.1,25.5-22.4,34.3,32.6,12.6,34.2,63.3,8.4,83.3-7.9,6.2-27.2,13.3-37.1,13.3h-86.8l-2.1-2.1V5.3l2.1-2.1c28.4,1.9,60.2-2.6,88.2,0ZM493.4,39.6c-7.8-1.1-17.8.8-25.9,0v39.2h24.5c.5,0,7.7-2.1,8.7-2.5,16-6.7,12.7-33.8-7.3-36.7h0ZM467.5,154.3h28.7c.5,0,8.1-3.1,9-3.6,10.1-6.1,11.1-23.1,4.1-31.9s-8.5-6.5-10.3-6.5h-31.5v42h0Z" class="st0"></path>
  <path d="M90.3,3.2c4.8.4,13.5,2.6,18.2,4.1,37.6,12.6,42.8,66.1,9.1,86.1,36.2,19.2,33.8,74.9-4.3,91-5.1,2.2-19.4,6.3-24.5,6.3H0V3.2c29.1,2,61.6-2.6,90.3,0ZM49.7,39.6l-2.1,2.1v35l2.1,2.1h23.8c1.5,0,8.7-2.5,10.4-3.6,10.5-6.3,10-26.5-.8-32.7-1-.6-7.7-3-8.2-3h-25.2ZM47.6,112.3v39.9l2.1,2.1h26.6c1.8,0,10.9-4,12.6-5.6,5.7-5.2,6.5-19.5,3.8-26.3-1.2-3-9.2-10.2-12.2-10.2h-32.9Z" class="st0"></path>
  <path d="M251.9,3.2v121.1c0,2.9,3.2,13.2,5,16,8.2,12.7,28.2,14.4,39.2,4.3,7.1-6.5,7.7-15.5,9.1-24.5V3.2h47.5v129.5c0,11.4-11.4,33.8-19.5,42-27.1,27.2-88.9,25.8-113.4-4.3-5.3-6.4-15.4-27.2-15.4-35V3.2h47.6-.1Z" class="st0"></path>
  <path d="M677.2.8c28.4-3,60.6,2.6,82.8,21.5l-23.2,33.9c-13.9-8.6-50.4-24.2-62.1-7.5-17.5,25,34.8,25.4,47.9,29.1,33.3,9.5,48,29.5,44.5,64.7-6.3,62.9-107.9,61.6-146,29.9-9-7.5-7.7-7-.9-15.8s14.7-16.4,21.6-24.2c17.6,13.5,39.1,23.8,62,18.3,15.1-3.6,20.6-21.1,5-28.3-13.8-6.4-35.3-5-52.3-12.1-57.5-23.9-41.2-102.8,20.7-109.4h0Z" class="st0"></path>
  <path d="M137.2,311.1c-3.8-.1-9.2,1.5-9.8-3.5,1-7.5-1.8-56.7,1.3-58.9s8.6-1.2,10.6.8l23.8,40.6c4.3.4.7-1.5.7-2.1v-37.8c2.7-3.3,8.7-3.1,11.2,0v58.8c-2.3,3.1-9.2,3.1-11.9.7l-25.9-42v43.4h0Z" class="st0"></path>
  <path d="M424.8,248.1c20,2.8,22.2,28.8,5,37.1l12.5,25.9c-3.8-.3-9,1.3-11.9-1.4-7.6-6.7-5.3-29.3-23.1-23.8v25.2l-8.9-.2-2.3-1.9v-58.8l2.1-2.1c8.3.8,18.5-1.1,26.6,0h0ZM429.3,261.1c-3.8-5.2-16.1-2.7-22-3.2v18.2c9,2.4,31.8-1.6,22-15Z" class="st0"></path>
  <path d="M635.3,252.5c1.2,3.9-1.1,6.7-4,9-6.9-3.4-26.2-8.9-25.4,4.2.6,9.7,15.8,8,22.9,10.8,15,5.8,13.6,27.3-1.1,33.4s-18.4,2.9-27.3-.8c-9.4-3.8-10.9-7.1-1.9-13.1,6.9,5.2,29.8,10.6,29.8-2.3s-31.2-3.1-33.5-25.2c-2.4-22.7,25-25.7,40.4-16h0Z" class="st0"></path>
  <path d="M335.9,248.1v44.1c0,9.3,16.4,12.5,21.7,6.3,5.9-7.1,3.5-38.6,2.5-48.3l1.9-1.8,8.9-.2v48.3c0,1.9-7,10.5-9.1,11.9-16.3,10.5-35.2.3-37.1-18.9-.7-7.3-1.2-31.2,0-37.8s.5-2.8,2.3-3.3l8.9-.2h0Z" class="st0"></path>
  <path d="M226.5,248.4c2.8,1.7,18.9,55.2,21.2,62.7l-9.9-.6-4-11.1-23.1-.6-5.3,12.2-11,.2,21.7-61.6c1.6-1.9,8.7-2.1,10.3-1.1h.1ZM229.5,288.7l-7.7-23.8c-2.5,2.7-9,22.5-7.7,23.8h15.4Z" class="st0"></path>
  <path d="M513.7,311.1l-11-.2-5.2-12.2-23.1.6-4,11.1-9.9.6,21.2-62.8c3.6-.3,8.7-1.4,10.9,2l21.1,60.8h0ZM494.1,288.7c1-1-4.9-22.3-8.4-23.8l-7,23.8h15.4Z" class="st0"></path>
  <polygon points="305.1 248.1 305.1 257.9 286.9 257.9 286.9 311.1 275.7 311.1 275.7 257.9 258.9 257.9 258.9 248.1 305.1 248.1" class="st0"></polygon>
  <path d="M544.5,248.1v53.2h30.8v9.8h-39.9l-1.7-60.9c1.5-3.6,7.8-1.7,10.8-2.1h0Z" class="st0"></path>
</svg>