<svg viewBox="0 0 191.11 50" height="50" width="191.11" xmlns:xlink="http://www.w3.org/1999/xlink" xmlns="http://www.w3.org/2000/svg">
  <defs>
    <clipPath id="clip-path">
      <rect fill="currentColor" height="50" width="191.11" data-name="Rectangle 6" id="Rectangle_6"></rect>
    </clipPath>
  </defs>
  <g transform="translate(0 0)" data-name="Group 2" id="Group_2">
    <g clip-path="url(#clip-path)" transform="translate(0 0)" data-name="Group 1" id="Group_1">
      <path fill="currentColor" transform="translate(0 0)" d="M50,25A25,25,0,1,1,25,0,25,25,0,0,1,50,25m-2.263,0A22.737,22.737,0,1,0,25,47.737,22.737,22.737,0,0,0,47.737,25M21.4,20.748H6.911a1.545,1.545,0,0,0-1.545,1.545v5.412a1.545,1.545,0,0,0,1.545,1.546H21.4a.636.636,0,0,0,.636-.636V27.43a.637.637,0,0,0-.636-.636l-2.713-.027H8.716c-.4,0-.886-.262-.886-.6V23.833c0-.337.484-.6.886-.6h9.971l2.713-.026a.636.636,0,0,0,.636-.636V21.385a.637.637,0,0,0-.636-.636m7.2,0a.637.637,0,0,0-.636.636V22.57a.637.637,0,0,0,.636.636l2.713.027h9.97c.4,0,.887.262.887.6v2.335c0,.337-.485.6-.887.6h-9.97l-2.713.026a.637.637,0,0,0-.636.636v1.186a.637.637,0,0,0,.636.636H43.089a1.545,1.545,0,0,0,1.545-1.545V22.294a1.545,1.545,0,0,0-1.545-1.546H28.6Z" data-name="Path 1" id="Path_1"></path>
      <path fill="currentColor" transform="translate(-61.897 -9.55)" d="M152.633,31.345a.866.866,0,0,0,.783.5H155.1a.65.65,0,0,0,.651-.65.637.637,0,0,0-.037-.215l-2.21-7.164a.867.867,0,0,0-.8-.529H152.2a.865.865,0,0,0-.783.5l-.459,1.505a1.277,1.277,0,0,0-.043.331,1.3,1.3,0,0,0,.015.2Z" data-name="Path 2" id="Path_2"></path>
      <path fill="currentColor" transform="translate(-57.719 -14.62)" d="M152.873,40.344a1.3,1.3,0,0,0-1.214-.836H147.9a1.3,1.3,0,0,1-1.249-.943l-.819-2.628a.412.412,0,0,0-.79,0l-4.311,13.973a.891.891,0,0,0-.005.1,1.01,1.01,0,0,0,1.011,1.009h.986a1.213,1.213,0,0,0,1.066-.633l2.22-7.194a1.3,1.3,0,0,1,1.207-.822h2.122a1.3,1.3,0,0,1,1.235.9l2.2,7.119a1.213,1.213,0,0,0,1.066.633h.986a1.01,1.01,0,0,0,1.011-1.009.887.887,0,0,0-.005-.1Z" data-name="Path 3" id="Path_3"></path>
      <path fill="currentColor" transform="translate(-38.815 -9.55)" d="M105.335,23.285h-8.6a2.1,2.1,0,0,0-2.1,2.1V43.852a2.1,2.1,0,0,0,2.1,2.1h8.6a.865.865,0,0,0,.865-.865V43.476a.865.865,0,0,0-.865-.866h-6.5V42.6c-.459,0-.815-.659-.815-1.206V27.84c0-.547.356-1.205.815-1.205v-.008h6.5a.865.865,0,0,0,.865-.865V24.15a.865.865,0,0,0-.865-.865" data-name="Path 4" id="Path_4"></path>
      <path fill="currentColor" transform="translate(-96.424 -9.549)" d="M245.79,23.283h-8.6a2.1,2.1,0,0,0-2.1,2.1V43.851a2.1,2.1,0,0,0,2.1,2.1h8.6a.865.865,0,0,0,.865-.865V43.475a.866.866,0,0,0-.865-.866h-6.5V42.6c-.459,0-.815-.659-.815-1.205V27.839c0-.547.356-1.206.815-1.206v-.007h6.5a.866.866,0,0,0,.865-.866V24.148a.865.865,0,0,0-.865-.865" data-name="Path 5" id="Path_5"></path>
      <path fill="currentColor" transform="translate(-77.358 -9.449)" d="M199.306,23.039h-8.6a2.1,2.1,0,0,0-2.1,2.1V43.606a2.1,2.1,0,0,0,2.1,2.1h8.6a.865.865,0,0,0,.865-.865V43.23a.865.865,0,0,0-.865-.866h-6.5v-.007c-.459,0-.815-.659-.815-1.206V35.527c.021-.536.366-1.154.811-1.154h2.851a.865.865,0,0,0,.865-.866V31.9a.865.865,0,0,0-.865-.865H192.8c-.445,0-.79-.618-.811-1.154V27.594c0-.547.356-1.205.815-1.205v-.007h6.5a.866.866,0,0,0,.865-.866V23.9a.865.865,0,0,0-.865-.865" data-name="Path 6" id="Path_6"></path>
      <path fill="currentColor" transform="translate(-67.94 -9.449)" d="M176.341,23.056H172.4a.86.86,0,0,0-.166-.017H170.62a.867.867,0,0,0-.168.017h-3.944a.865.865,0,0,0-.865.865v1.612a.865.865,0,0,0,.865.865h2.431c.453,0,.8.643.813,1.185V44.842a.865.865,0,0,0,.866.865h1.611a.865.865,0,0,0,.865-.865V27.593c0-.544.359-1.2.815-1.2h2.43a.865.865,0,0,0,.865-.865V23.921a.865.865,0,0,0-.865-.865" data-name="Path 7" id="Path_7"></path>
      <path fill="currentColor" transform="translate(-115.029 -9.556)" d="M291.149,23.3h-1.611a.866.866,0,0,0-.866.865l-.036,3.69V41.41c0,.547-.357,1.206-.816,1.206h-3.174c-.459,0-.815-.659-.815-1.206V27.853l-.037-3.69a.865.865,0,0,0-.865-.865h-1.611a.866.866,0,0,0-.866.865v19.7a2.1,2.1,0,0,0,2.1,2.1h7.36a2.1,2.1,0,0,0,2.1-2.1v-19.7a.866.866,0,0,0-.866-.865" data-name="Path 8" id="Path_8"></path>
      <path fill="currentColor" transform="translate(-105.726 -9.561)" d="M268.471,42.62h-6.5v-.007c-.459,0-.815-.659-.815-1.205V24.177a.866.866,0,0,0-.866-.866h-1.649a.866.866,0,0,0-.865.866V43.862a2.1,2.1,0,0,0,2.1,2.1h8.6a.865.865,0,0,0,.865-.866V43.486a.865.865,0,0,0-.865-.866" data-name="Path 9" id="Path_9"></path>
      <path fill="currentColor" transform="translate(-129.745 -9.555)" d="M320.855,30.86V25.4a2.1,2.1,0,0,0-2.1-2.1H317.2a.865.865,0,0,0-.865.865V25.58a.86.86,0,0,0,.327.675,1.3,1.3,0,0,1,.815,1.205V30.2a1.3,1.3,0,0,1-.815,1.205.86.86,0,0,0-.327.675v1.7a.86.86,0,0,0,.327.675,1.3,1.3,0,0,1,.815,1.205V41.8a1.3,1.3,0,0,1-.815,1.205.86.86,0,0,0-.327.675V45.1a.865.865,0,0,0,.865.865h1.555a2.1,2.1,0,0,0,2.1-2.1V35.046a2.1,2.1,0,0,0-2.026-2.093,2.1,2.1,0,0,0,2.026-2.093" data-name="Path 10" id="Path_10"></path>
      <path fill="currentColor" transform="translate(-124.849 -9.555)" d="M308.016,23.3h-2.755a.865.865,0,0,0-.865.865V45.1a.865.865,0,0,0,.865.866h2.755a.866.866,0,0,0,.866-.866V43.683a.858.858,0,0,0-.328-.675,1.3,1.3,0,0,1-.815-1.205V35.664a1.3,1.3,0,0,1,.815-1.205.859.859,0,0,0,.328-.675v-1.7a.858.858,0,0,0-.328-.675,1.3,1.3,0,0,1-.815-1.205V27.46a1.3,1.3,0,0,1,.815-1.205.858.858,0,0,0,.328-.675V24.162a.866.866,0,0,0-.866-.865" data-name="Path 11" id="Path_11"></path>
      <path fill="currentColor" transform="translate(-53.201 -9.55)" d="M132.131,23.285h-1.555a.865.865,0,0,0-.866.865v1.418a.859.859,0,0,0,.328.675,1.3,1.3,0,0,1,.815,1.205v2.742a1.3,1.3,0,0,1-.815,1.206.858.858,0,0,0-.328.675v1.7l1.18,11.316a.865.865,0,0,0,.866.865h1.611a.865.865,0,0,0,.865-.865l-1.293-12.3a2.1,2.1,0,0,0,1.293-1.939V25.385a2.1,2.1,0,0,0-2.1-2.1" data-name="Path 12" id="Path_12"></path>
      <path fill="currentColor" transform="translate(-48.305 -9.55)" d="M121.393,23.284h-2.755a.865.865,0,0,0-.865.865V45.088a.865.865,0,0,0,.865.865h1.612a.865.865,0,0,0,.865-.865V35.651a1.3,1.3,0,0,1,.815-1.205.859.859,0,0,0,.328-.675v-1.7a.858.858,0,0,0-.328-.675,1.3,1.3,0,0,1-.815-1.205V27.447a1.3,1.3,0,0,1,.815-1.205.858.858,0,0,0,.328-.675V24.149a.866.866,0,0,0-.866-.865" data-name="Path 13" id="Path_13"></path>
    </g>
  </g>
</svg>
