<svg viewBox="0 0 440.95 399.39" xmlns="http://www.w3.org/2000/svg" data-name="Layer 2" id="Layer_2">
  <defs>
    <style>
      .cls-1 {
        fill: currentColor;
      }
    </style>
  </defs>
  <g data-name="Layer 1" id="Layer_1-2">
    <path d="M201.65,180.3L351.42,49.02l89.53,70.12v167.75s-88.64,68.6-88.64,68.6l-2.28.36-148.4-130.63c-1.35,30,1.77,61.52.04,91.35-2.77,47.69-34.52,79.8-82.34,82.33-59.36,3.14-108.46-7.83-119.34-74.35L.05,76.03C9.95,9.05,61.9-3.18,121.34.62c40.16,2.57,76.3,33.08,79.34,74.35,2.26,30.63-1.86,64.02-.08,94.89.2,3.47,1.63,6.84,1.05,10.44ZM73.69,22.91c-29.32,3.2-51.98,29.9-52.74,59.04l.18,238.44c6.77,53.97,51.19,60.5,97.22,57.56,32.07-2.05,56.42-22.35,61.21-54.56V76.14c-3.17-28.43-26.82-51.26-55.28-53.51-13.36-1.05-37.39-1.16-50.59.28ZM418.98,127.62l-65.69-50.62-2.26-.39-141.37,126.04,142.97,125.25,66.38-52.48-.03-147.81Z" class="cls-1"></path>
  </g>
</svg>