<svg viewBox="0 0 1263.64 299.83" xmlns="http://www.w3.org/2000/svg" data-name="Layer 2" id="Layer_2">
  <defs>
    <style>
      .cls-1 {
        letter-spacing: -.02em;
      }

      .cls-1, .cls-2, .cls-3, .cls-4, .cls-5, .cls-6 {
        font-size: 217.56px;
      }

      .cls-2 {
        letter-spacing: -.04em;
      }

      .cls-3 {
        letter-spacing: -.04em;
      }

      .cls-4 {
        letter-spacing: .08em;
      }

      .cls-5 {
        letter-spacing: -.08em;
      }

      .cls-7 {
        font-size: 165.17px;
        letter-spacing: .08em;
      }

      .cls-8, .cls-9 {
        fill: currentColor;
      }

      .cls-9 {
        font-family: Liebling-Regular, Liebling;
      }
    </style>
  </defs>
  <g data-name="Layer 1" id="Layer_1-2">
    <g>
      <g>
        <g>
          <path d="M105.08,298.19c-9.56,0-19.12-3.63-27.84-10.88-9.32-7.75-8.8-11.28-8.61-12.61.2-1.4.85-2.79,1.53-4.27.39-.85.93-2.01,1.05-2.57,1.5-6.58,1.22-11.34-.81-14.16-1.83-2.54-5.55-4.1-11.05-4.64-2.4-.24-4.23-2.26-4.23-4.67v-21.45c-9.76.55-18.18-2.2-24.07-7.98-3.28-3.22-4.61-6.48-3.93-9.7.76-3.61,3.69-5.8,6.83-7.33-8.37-4.85-15.79-11.71-20.73-19.54-5.75-9.11-7.67-18.5-5.55-27.14.42-1.73,1.8-3.08,3.54-3.46,4.21-.94,6.47,2.5,8.23,5.73,5.29,9.69,14.7,15.04,24.74,18.71,9.36,3.42,18.98,5.93,28.95,6.67,16.67,1.23,44.45,1.23,63.24,0,7.14-.47,19.56-3.46,30.21-7.27,6.31-2.26,12.21-5.64,17.37-9.91,3.34-2.76,6.22-6.01,8.87-9.42,2.16-2.78,4.49-8.46,8.71-7.96,1.85.23,3.39,1.53,3.92,3.32,2.37,7.97.64,17.16-5.03,26.57-5.69,9.47-14.67,17.99-24.41,23.69,3,1.47,6.47,3.66,7.21,7.59.87,4.61-2.72,8.3-3.9,9.51-6.02,6.18-15.72,8.34-24.26,7.94v21.45c0,2.41-1.83,4.44-4.23,4.67-5.5.54-9.22,2.1-11.05,4.64-2.03,2.82-2.3,7.58-.81,14.16.13.56.66,1.72,1.05,2.57.68,1.47,1.32,2.86,1.53,4.26.19,1.33.71,4.86-8.61,12.61-8.72,7.25-18.28,10.88-27.84,10.88ZM78.3,275.2c1.01,1.27,3.11,3.37,4.94,4.89,13.87,11.55,29.79,11.55,43.67,0,1.83-1.52,3.93-3.62,4.94-4.89-.13-.29-.27-.58-.38-.83-.63-1.36-1.34-2.9-1.69-4.43-2.15-9.45-1.38-16.56,2.35-21.73,2.85-3.96,7.39-6.59,13.51-7.86v-22.68c0-1.4.63-2.73,1.71-3.62,1.08-.89,2.5-1.26,3.88-.99,7.05,1.36,16.65.21,21.34-4.61.47-.48.79-.87,1-1.16-.56-.37-1.55-.9-3.26-1.68q-3.42-1.55-5.13-1.15c-.8.19-1.89.45-3.32.7l-.13.02c-1.25.23-4.18.78-6.36-1.36-1.25-1.22-1.79-2.94-1.5-4.72.32-1.93,1.79-3.46,3.71-3.84,12.65-2.55,27.27-13.44,34.76-25.9.9-1.49,6.34-14.04,7.12-15.88-7.07,7.15-20.01,22.05-29.74,26.96-10.96,5.52-24.72,7.28-32.76,7.81-19.15,1.26-47.5,1.25-64.54,0-9.46-.7-21.84-3.65-32.31-7.69-6.79-2.62-18.85-14.64-25.25-20.12.8,1.83,5.38,11.51,6.29,12.95,6.79,10.75,19.13,19.35,31.44,21.9,1.9.39,3.37,1.92,3.68,3.84.29,1.78-.25,3.5-1.5,4.72-2.17,2.13-5.11,1.59-6.36,1.36l-.12-.02c-1.71-.3-2.85-.67-3.61-.91-.2-.06-.44-.14-.57-.17-.21.03-.83.17-2.43.78-1.02.39-3.79,1.44-5.04,2.3.2.27.51.63.97,1.09,6.42,6.3,16.16,5.7,21.39,4.79,1.36-.24,2.76.14,3.83,1.03,1.06.89,1.67,2.21,1.67,3.59v22.68c6.13,1.27,10.66,3.9,13.51,7.86,3.73,5.17,4.5,12.28,2.35,21.73-.35,1.52-1.06,3.06-1.69,4.42-.11.25-.25.54-.38.83Z" class="cls-8"></path>
          <path d="M105.08,299.83c-10.05,0-20.04-3.89-28.89-11.26-8.88-7.39-9.57-11.42-9.18-14.11.24-1.63.93-3.13,1.66-4.72.28-.6.86-1.85.94-2.24,1.37-6.01,1.18-10.45-.54-12.84-1.52-2.11-4.94-3.48-9.88-3.97-3.26-.32-5.72-3.03-5.72-6.31v-19.74c-9.59.17-17.7-2.75-23.58-8.51-3.71-3.64-5.19-7.41-4.39-11.21.59-2.79,2.29-5.12,5.2-7.04-7.73-4.94-14.37-11.47-18.88-18.61-5.99-9.5-7.99-19.32-5.76-28.41.58-2.36,2.41-4.15,4.77-4.68,5.75-1.29,8.64,4,10.03,6.54,4.3,7.87,11.88,13.58,23.87,17.95,10.33,3.77,19.65,5.92,28.51,6.57,16.61,1.23,44.28,1.23,63.01,0,7.01-.46,19.25-3.41,29.76-7.18,6.14-2.2,11.82-5.44,16.88-9.63,2.87-2.37,5.6-5.29,8.62-9.16.44-.57.91-1.3,1.41-2.08,1.9-2.96,4.49-7.03,8.79-6.5,2.5.31,4.58,2.07,5.3,4.48,2.51,8.42.71,18.07-5.19,27.89-5.22,8.69-13.35,16.87-22.55,22.77,2.46,1.56,4.9,3.86,5.56,7.36,1.03,5.46-3.01,9.6-4.33,10.96-5.31,5.45-14.12,8.53-23.8,8.48v19.76c0,3.27-2.46,5.99-5.72,6.31-4.94.49-8.36,1.86-9.88,3.97-1.72,2.38-1.9,6.82-.54,12.83.09.39.66,1.63.94,2.23.71,1.53,1.43,3.09,1.67,4.73.39,2.69-.3,6.72-9.18,14.11-8.85,7.37-18.84,11.26-28.89,11.26h0ZM105.08,296.54v1.64-1.64c9.27,0,18.54-3.63,26.79-10.5,5.71-4.75,8.41-8.49,8.03-11.11-.17-1.16-.76-2.45-1.39-3.81-.57-1.23-1.01-2.22-1.17-2.89-1.6-7.06-1.24-12.27,1.08-15.48,2.12-2.94,6.23-4.73,12.23-5.32,1.57-.15,2.75-1.46,2.75-3.04v-23.18l1.72.08c9.45.45,18.04-2.34,23.01-7.44,1.03-1.06,4.17-4.28,3.46-8.06-.62-3.26-3.7-5.15-6.32-6.42l-2.76-1.34,2.65-1.55c9.74-5.7,18.42-14.13,23.83-23.12,5.42-9.01,7.1-17.74,4.86-25.26-.04-.14-.09-.27-.15-.4l-2.71,6.43c-.38.9-6.2,14.38-7.22,16.09-7.71,12.82-22.78,24.03-35.84,26.66-1.24.25-2.21,1.25-2.41,2.5-.2,1.25.17,2.44,1.03,3.28,1.56,1.53,3.73,1.13,4.9.92h0s.14-.03.14-.03c1.4-.25,2.46-.5,3.24-.68,2.26-.53,2.7-.33,6.18,1.25,1.6.72,2.74,1.31,3.49,1.8l1.45.95-1.02,1.4c-.3.41-.69.86-1.15,1.33-5.34,5.48-15.58,6.48-22.83,5.08-.9-.18-1.81.06-2.52.64-.71.58-1.11,1.44-1.11,2.35v24.02l-1.31.27c-5.71,1.18-9.92,3.61-12.51,7.21-3.44,4.77-4.12,11.44-2.08,20.41.31,1.35.98,2.8,1.57,4.08l.8,1.78-.62.78c-1.13,1.42-3.31,3.58-5.18,5.13-14.55,12.1-31.23,12.1-45.78,0-1.87-1.55-4.05-3.71-5.18-5.13l-.63-.78.8-1.76c.6-1.29,1.27-2.75,1.58-4.1,2.04-8.97,1.36-15.64-2.08-20.41-2.6-3.6-6.81-6.03-12.51-7.21l-1.31-.27v-24.02c0-.9-.4-1.76-1.09-2.34-.69-.58-1.6-.83-2.49-.67-5.54.97-15.88,1.57-22.82-5.24-.47-.47-.86-.9-1.15-1.3l-1-1.36,1.39-.96c1.26-.87,3.54-1.78,5.39-2.48,1.35-.51,2.26-.8,2.78-.87l.34-.05.33.09c.15.04.41.12.64.19.72.23,1.81.58,3.4.86l.14.03c1.08.2,3.34.62,4.9-.92.86-.84,1.23-2.04,1.03-3.29-.2-1.24-1.16-2.24-2.39-2.49-12.73-2.64-25.48-11.52-32.5-22.63-1-1.59-5.7-11.54-6.4-13.17l-2.87-6.57,5.44,4.67c1.5,1.28,3.32,2.94,5.25,4.69,6.16,5.59,14.59,13.24,19.52,15.15,10.33,3.99,22.53,6.9,31.84,7.59,16.97,1.25,45.22,1.26,64.31,0,7.29-.48,21.15-2.1,32.13-7.63,7.63-3.84,17.48-14.23,24.68-21.81,1.72-1.81,3.28-3.46,4.64-4.83l5.09-5.15c-.49-.67-1.24-1.13-2.09-1.24-2.09-.24-3.71,2.02-5.62,5.01-.54.84-1.05,1.64-1.58,2.33-3.16,4.07-6.06,7.15-9.12,9.68-5.36,4.43-11.37,7.86-17.87,10.19-10.77,3.86-23.37,6.89-30.65,7.37-18.85,1.23-46.73,1.23-63.46,0-9.16-.68-18.78-2.89-29.39-6.76-12.78-4.67-20.92-10.85-25.62-19.46-1.96-3.58-3.64-5.54-6.43-4.91-1.14.26-2.02,1.12-2.3,2.25-2.01,8.2-.16,17.15,5.35,25.88,4.69,7.43,11.85,14.18,20.16,18.99l2.66,1.54-2.76,1.35c-3.53,1.73-5.42,3.7-5.94,6.19-.55,2.63.62,5.39,3.48,8.19,5.55,5.44,13.45,8.05,22.83,7.51l1.74-.1v23.19c0,1.58,1.18,2.88,2.75,3.04,5.99.59,10.11,2.38,12.22,5.32,2.32,3.22,2.68,8.43,1.08,15.48-.15.68-.6,1.67-1.16,2.89-.63,1.37-1.23,2.66-1.4,3.82-.38,2.62,2.32,6.36,8.03,11.11,8.25,6.87,17.52,10.5,26.79,10.5h0ZM80.23,274.93c1.08,1.2,2.71,2.77,4.07,3.9,13.21,11,28.36,11,41.57,0,1.36-1.13,2.98-2.69,4.06-3.9-.65-1.41-1.37-2.99-1.74-4.62-2.26-9.94-1.4-17.48,2.62-23.05,2.89-4,7.32-6.76,13.2-8.21v-21.37c0-1.9.84-3.68,2.3-4.89,1.46-1.21,3.37-1.7,5.24-1.34,6.24,1.2,15,.28,19.41-3.72-.37-.18-.81-.39-1.32-.62q-2.91-1.32-4.07-1.05c-.82.19-1.93.46-3.42.72-1.5.28-5.14.94-7.92-1.78-1.63-1.6-2.35-3.85-1.97-6.16.42-2.58,2.43-4.67,5-5.19,12.24-2.46,26.4-13.03,33.67-25.13.39-.65,1.84-3.85,3.34-7.23-7.15,7.52-16.31,16.85-23.82,20.62-11.5,5.79-25.86,7.48-33.39,7.98-19.22,1.26-47.67,1.26-64.77-.01-9.61-.71-22.17-3.7-32.78-7.8-5.29-2.04-13.19-9.1-19.74-15.05,1.22,2.53,2.38,4.86,2.76,5.46,6.56,10.39,18.49,18.7,30.39,21.17,2.55.53,4.55,2.61,4.97,5.18.38,2.32-.34,4.56-1.97,6.16-2.78,2.73-6.43,2.05-7.8,1.8-1.93-.34-3.14-.73-3.94-.99-.04-.01-.08-.03-.13-.04-.29.08-.84.26-1.79.62-1.18.45-2.16.85-2.94,1.2,5.9,5.23,14.63,4.66,19.4,3.83,1.85-.32,3.73.19,5.17,1.39,1.44,1.21,2.26,2.97,2.26,4.85v21.37c5.88,1.45,10.32,4.21,13.2,8.21,4.02,5.58,4.88,13.12,2.62,23.05-.37,1.64-1.09,3.22-1.74,4.62Z" class="cls-8"></path>
        </g>
        <path d="M48.75,44.24c-3.06-.64-5.79,2.48-7.77,3.13-2.46.81-13.95,3.04-15.84,2.15-4.45-2.07-7.02-17.43-8.91-22.16-9.06,23.65-5.93,51.12,16.67,65.85,41.68,27.16,68.83-3.4,109.95-6,16.07-1.01,42.84,3.93,55.38,14.32,3.62,3-2.81,12.11-5.12,15.57-28.57,42.73-99.78,58.97-146.98,25.6-5.05-3.57-20.95-17.19-22.79-22.52-1.28-3.71,1.73-7.62,5.64-6.67,1.97.48,12.76,13.04,16.1,15.85,44.43,37.36,112.23,27.03,142.25-22.51-6.15-3.52-13.06-6.08-19.95-7.78-50.58-12.55-86.53,36.72-138.61,3.42C-6.04,80.22-2.8,40.19,13.44,7.05c2.65-5.4,7.15-7.99,10.71-1.85.77,11.42,2,22.85,6.1,33.62.85.68,13.03-3.07,14.89-3.79,3.52-1.36,16.32-8.9,17.85-8.97,15.05-.62-5.45,23.48-8.79,27.29-3.9,4.46-17.28,17.42-22.24,19.49-3.79,1.58-8.31-1.13-7.43-5.12.83-3.79,11.95-10.54,15.55-13.87,3.13-2.89,6.29-6.03,8.67-9.61Z" class="cls-8"></path>
        <path d="M103.64,161.51c-20.54-.86-42.01-5.83-58.47-17.47-4.16-2.94-21.26-17.13-23.39-23.32-.83-2.42-.3-5.07,1.39-6.93,1.58-1.73,3.89-2.44,6.19-1.88,1.42.34,3.7,2.58,10.28,9.58,2.68,2.85,5.21,5.53,6.48,6.61,21.08,17.73,48.78,25.32,75.99,20.84,26.1-4.3,48.93-19.39,62.91-41.5-5.32-2.86-11.38-5.14-18.04-6.79-21.35-5.29-40.41.77-58.83,6.64-24.58,7.83-49.99,15.92-80.27-3.44C-2.49,84.44-8.44,47.98,11.96,6.33,13.88,2.41,16.57.1,19.33,0c1.65-.08,4.09.65,6.24,4.37l.19.33.03.38c.67,9.93,1.72,21.36,5.61,32.1,2.81-.44,11.07-2.9,13.15-3.7,1.51-.59,5.05-2.49,8.46-4.34,6.84-3.69,8.85-4.7,9.91-4.74,3.4-.14,5.64.85,6.65,2.95,3.05,6.38-8.87,21.05-14.13,27.06-3.57,4.08-17.36,17.64-22.84,19.92-2.57,1.07-5.56.65-7.63-1.08-1.79-1.5-2.54-3.65-2.04-5.91.65-2.97,5.01-6.38,11.1-10.88,1.99-1.47,3.87-2.86,4.94-3.85,1.76-1.62,3.54-3.34,5.19-5.18-.02.01-.04.03-.06.04-.89.59-1.73,1.14-2.6,1.43-1.69.55-14.3,3.36-17.05,2.08-3.59-1.67-5.66-8.44-7.99-17.12-.11-.41-.22-.8-.32-1.19-5.84,19.34-4.41,44.75,17.65,59.13,26.72,17.42,46.79,10.69,70.02,2.9,12.1-4.06,24.62-8.26,38.93-9.16,15.11-.96,43.16,3.62,56.53,14.7,4.58,3.8-1.28,12.51-4.43,17.19l-.37.55c-15.17,22.69-37.51,36.5-65.79,41.73-8.33,1.54-16.74,2.12-25.04,1.77ZM27.9,114.99c-1.12-.05-1.91.59-2.3,1.02-.88.97-1.15,2.37-.71,3.65,1.56,4.52,16.55,17.72,22.18,21.71,22.38,15.83,52.92,20.35,81.01,15.15,27.39-5.07,48.98-18.37,63.65-40.32l.37-.56c6.08-9.03,6.11-11.96,5.06-12.83-11.66-9.66-37.46-15-54.23-13.95-13.88.88-26.19,5-38.09,9-23.04,7.73-44.8,15.02-72.85-3.26C10.95,80.87,4.16,54.26,14.69,26.77l1.5-3.92,1.56,3.89c.58,1.44,1.18,3.69,1.88,6.29,1.39,5.18,3.72,13.84,6.2,14.99,1.63.51,11.95-1.34,14.64-2.22.45-.15,1.14-.6,1.81-1.05,1.73-1.14,4.09-2.7,6.8-2.13l2.37.5-1.34,2.02c-2.5,3.78-5.77,7-8.92,9.91-1.2,1.11-3.06,2.48-5.22,4.08-3.52,2.6-9.41,6.95-9.84,8.94-.29,1.33.35,2.19.94,2.69,1.12.93,2.83,1.16,4.26.57,4.5-1.88,17.5-14.34,21.63-19.05,7.99-9.13,15.25-20.13,13.64-23.48-.48-1-2.19-1.15-3.55-1.09-.77.19-5.23,2.59-8.49,4.35-3.67,1.98-7.14,3.85-8.84,4.51-.14.06-14.45,5.2-16.51,3.55l-.35-.28-.16-.42c-4.32-11.32-5.47-23.3-6.18-33.69-.74-1.2-1.83-2.47-3.09-2.42-1.46.05-3.2,1.77-4.53,4.49C8.79,20.27,1.86,39.25,3.6,58.7c1.61,18.11,10.38,32.37,26.05,42.39,28.98,18.53,52.55,11.02,77.5,3.07,18.86-6.01,38.36-12.22,60.62-6.7,7.59,1.88,14.44,4.56,20.37,7.95l1.46.84-.87,1.44c-14.38,23.72-38.46,39.94-66.08,44.49-28.16,4.64-56.82-3.22-78.64-21.57-1.42-1.2-4.02-3.95-6.76-6.87-3.05-3.25-7.67-8.15-8.79-8.68-.2-.05-.39-.07-.57-.08Z" class="cls-8"></path>
        <path d="M138.22,110.89c4.58-10.57,21.3-2.39,15.67,7.87-5.28,9.63-20.11,2.37-15.67-7.87Z" class="cls-8"></path>
      </g>
      <text transform="translate(267.78 224.06)" class="cls-9"><tspan y="0" x="0" class="cls-1">L</tspan><tspan y="0" x="103.77" class="cls-5">a</tspan><tspan y="0" x="225.82" class="cls-3">n</tspan><tspan y="0" x="345.91" class="cls-4">d</tspan><tspan y="0" x="503.64" class="cls-7">&amp;</tspan><tspan y="0" x="634.29" class="cls-2">Se</tspan><tspan y="0" x="856.41" class="cls-6">a</tspan></text>
    </g>
  </g>
</svg>