<svg viewBox="0 0 1215.23 369.88" xmlns="http://www.w3.org/2000/svg" data-name="Layer 2" id="Layer_2">
  <defs>
    <style>
      .cls-1 {
        fill: currentColor;
      }
    </style>
  </defs>
  <g data-name="Layer 1" id="Layer_1-2">
    <g>
      <path d="M123.32,86.72c-19.04,0-37.22,7.07-54.47,21.21-.62-10.8-2.8-17.87-6.68-21.21L0,96.74v6.14c17.33-3.11,26.03,5.67,26.03,26.42v196.21c0,25.18-8.39,37.92-25.18,38.23v6.14h92.86v-6.14c-16.55-.23-24.79-12.98-24.79-38.23v-67.68c15.31,11.5,32.79,17.48,52.45,17.95,22.77-.15,41.57-9.01,56.41-26.73,15.31-17.95,23-41.34,23-70.09s-7.07-51.6-21.21-67.76c-14.14-16.32-32.87-24.48-56.26-24.48ZM145.08,241.04c-8.86,14.61-20.98,21.91-36.29,21.91-7.69,0-15.31-2.18-22.85-6.45-7.3-4.27-12.98-9.01-17.1-14.22v-96.28c.23-13.68,4.27-24.79,12.04-33.41,8.39-8.24,17.1-12.67,26.26-13.29,14.45-.7,26.58,6.99,36.29,23.16,9.48,15.77,14.22,35.98,14.22,60.53-.08,24.16-4.27,43.44-12.59,58.05Z" class="cls-1"></path>
      <path d="M360.16,125.88h.16c8.24,0,15.77-5.59,17.95-13.29,2.02-7.15-1.09-14.76-7.93-19.35-1.63-1.09-3.34-1.94-5.21-2.56-9.4-3.19-21.68-2.02-32.79,3.11-5.36,2.49-10.65,5.91-15.7,10.18-4.58,3.89-9.32,8.16-12.67,13.37-3.57,5.67-6.84,11.89-9.79,18.49v-23.31c0-13.05-1.63-21.6-4.82-25.72l-62.55,10.02v6.14c16.16-2.49,24.24,6.53,24.24,27.12v97.05c0,25.02-8.08,37.92-24.24,38.62v6.06h92v-6.06c-16.4-.39-24.63-13.21-24.63-38.62v-72.97c2.64-5.59,5.98-10.72,9.87-15.31l.86-1.01c4.97-6.22,10.18-12.67,17.33-16.32,5.98-3.03,13.05-3.96,19.5-2.56,2.72.62,5.21,1.94,7.69,3.26,3.19,1.71,6.61,3.57,10.72,3.65Z" class="cls-1"></path>
      <path d="M754.6,211.98c-4.74,11.19-10.96,20.59-18.49,28.29-10.41,10.49-23.23,15.93-38.62,16.32-17.72.47-32.48-7.46-44.29-23.86-11.89-16.55-17.02-36.29-15.46-59.29h129.92c-1.17-26.58-9.32-47.87-24.48-63.8-14.84-15.93-35.36-23.93-61.62-23.93s-47.87,9.4-64.65,28.28c-16.47,18.26-24.79,41.11-24.79,68.46s8.32,48.33,24.79,66.13c16.94,17.95,37.3,26.96,61.23,26.96,21.76,0,40.41-6.76,56.1-20.28,12.67-10.96,21.91-25.33,27.59-43.13h-7.23v-.15ZM641.22,142.98c1.55-7.54,3.88-15,6.99-22.46,3.11-7.69,7.38-13.99,12.9-18.88,5.75-5.05,12.2-7.69,19.43-7.93,9.4-.39,17.56,3.96,24.24,12.9,6.84,8.94,11.27,18.49,13.44,28.98,2.41,10.33,3.03,24.87,3.03,24.87l-83.22.08c.15-.93,1.63-10.26,3.19-17.56Z" class="cls-1"></path>
      <path d="M880.87,265.67c-16.78-.39-25.18-13.13-25.18-38.23V0l-69.31,10.41v6.45c17.64-3.26,26.26,5.52,25.87,26.26v184.32c0,25.18-8.62,37.92-25.87,38.23v6.14h94.49v-6.14Z" class="cls-1"></path>
      <path d="M1001.39,265.67c-16.78-.39-25.18-13.13-25.18-38.23V0l-69.31,10.41v6.45c17.64-3.26,26.26,5.52,25.88,26.26v184.32c0,25.18-8.62,37.92-25.88,38.23v6.14h94.49v-6.14Z" class="cls-1"></path>
      <path d="M499.41,262.02c3.89-3.65,7.3-7.62,10.18-11.97,0,11.89,9.79,21.53,21.91,21.53h43.51v-6.53c-15.77-3.65-26.89-17.48-26.89-33.33v-83.53c0-19.19-6.37-34.81-18.96-46.47-12.59-11.58-29.99-17.48-51.75-17.48-10.88,0-20.51,1.32-28.91,4.04-8.32,2.72-15.54,6.29-21.45,10.65-5.98,4.43-10.57,9.48-13.6,15-2.49,4.58-4.04,9.4-4.51,14.3-.39,4.35-.7,9.95.93,14.45,1.94,5.44,7.38,10.02,13.99,11.66,6.53,1.63,14.14-.08,19.35-4.35,4.12-3.34,6.14-7.85,5.83-12.74-.08-1.32-.39-2.64-.7-3.89-.31-1.09-.54-2.25-.7-3.42-.23-2.02-.31-4.2-.31-6.84,0-9.09,2.87-16.4,8.55-21.84,5.67-5.44,12.9-8.16,21.37-8.16s16.01,4.04,22.38,11.97c6.53,8.08,9.79,22.53,9.79,43.05v10.1c-19.74.08-36.99,2.02-51.36,5.67-14.69,3.81-26.96,8.86-36.44,15-9.56,6.22-16.78,13.37-21.45,21.29-4.74,7.93-7.15,16.01-7.15,24.01,0,16.16,5.67,29.3,16.78,38.93s27.74,14.53,49.5,14.53c9.09,0,17.1-1.63,23.7-4.97,6.68-3.03,12.12-6.68,16.4-10.65ZM445.72,256.82c-6.29-6.68-9.48-16.24-9.48-28.36,0-12.98,4.66-25.8,13.13-35.9,8.24-9.87,20.13-15.93,33.88-17.56,8.7-1.09,13.13-1.09,26.34-1.4v56.65c-3.19,6.99-6.99,13.13-11.35,18.26-3.81,4.58-8.47,8.86-13.83,12.66-5.28,3.73-11.35,5.6-18.18,5.6-7.38.08-14.22-3.26-20.51-9.95Z" class="cls-1"></path>
      <path d="M1215.23,265.05c-15.77-3.65-26.89-17.48-26.89-33.33v-83.53c0-19.19-6.37-34.81-18.96-46.47-12.59-11.58-30-17.48-51.75-17.48-10.88,0-20.51,1.32-28.91,4.04-8.32,2.72-15.54,6.29-21.45,10.65-5.98,4.43-10.57,9.48-13.6,15-2.49,4.58-4.04,9.4-4.51,14.3-.39,4.35-.7,9.95.93,14.45,1.94,5.44,7.38,10.02,13.99,11.66,6.53,1.63,14.14-.08,19.35-4.35,4.12-3.34,6.14-7.85,5.83-12.74-.08-1.32-.39-2.64-.7-3.89-.31-1.09-.54-2.25-.7-3.42-.23-2.02-.31-4.2-.31-6.84,0-9.09,2.88-16.4,8.55-21.84,5.67-5.44,12.9-8.16,21.37-8.16s16.01,4.04,22.38,11.97c6.53,8.08,9.79,22.53,9.79,43.05v10.1c-19.74.08-36.99,2.02-51.36,5.67-14.69,3.81-26.96,8.86-36.44,15-9.56,6.22-16.78,13.37-21.45,21.29-4.74,7.93-7.15,16.01-7.15,24.01,0,16.16,5.67,29.3,16.78,38.93s27.74,14.53,49.5,14.53c9.09,0,17.1-1.63,23.7-4.97,6.53-3.26,11.97-6.92,16.24-10.88,3.89-3.65,7.31-7.61,10.18-11.97,0,11.89,9.79,21.53,21.91,21.53h43.51v-6.29h.15ZM1149.81,230.32c-3.19,6.99-6.99,13.13-11.35,18.26-3.81,4.58-8.47,8.86-13.83,12.67-5.28,3.73-11.35,5.59-18.18,5.59-7.31,0-14.22-3.34-20.44-10.02-6.29-6.68-9.48-16.24-9.48-28.36,0-12.98,4.66-25.8,13.13-35.9,8.24-9.87,20.13-15.93,33.88-17.56,8.7-1.09,13.13-1.09,26.34-1.4l-.08,56.73Z" class="cls-1"></path>
    </g>
  </g>
</svg>