<svg viewBox="0 0 1215.17 175.14" xmlns="http://www.w3.org/2000/svg" data-name="Layer 2" id="Layer_2">
  <defs>
    <style>
      .cls-1 {
        fill: currentColor;
      }
    </style>
  </defs>
  <g data-name="Layer 1" id="Layer_1-2">
    <g>
      <path d="M1214.56,74.61c.81,5.92.82,19.62,0,25.54-9.22,66.93-80.17,83.94-137.99,70.95V7.92c15.9-11.9,53.44-8.04,72.58-3.54,32.56,7.65,60.9,37.42,65.41,70.24ZM1096.69,154.08h44.56c22.36,0,47.95-34.13,50.31-55.33,6.71-60.25-40.54-83.82-94.87-78.06v133.39Z" class="cls-1"></path>
      <path d="M237.13,77.45h77.62V16.44c0-14.46,28.75-16.2,28.75-5.68v153.25c0,9.4-28.75,13.55-28.75-5.68v-55.34h-77.62v61.02c0,6.06-25.88,20.82-28.88-11.22-4.09-43.67,2.73-94.25.83-138.64,1.03-14.81,28.05-13.08,28.05-.55v63.85Z" class="cls-1"></path>
      <path d="M52.58,1.54c15.64-1.24,80.19,9.29,65.29,33.37-7.12,11.49-21.74-1.31-30.81-3.72-21.18-5.63-63.33-7.43-56.89,24.89,4.68,23.52,81.16,18.93,92.93,55.88,19.53,61.3-77.74,77.98-112.98,49.12-9.62-7.88-7.78-22.5,4.39-24.1,15.51-2.04,47.9,26.01,74.16,5.35,37.34-29.38-50.72-43.35-66.27-52.97C-20.85,62.59,3.62,5.43,52.58,1.54Z" class="cls-1"></path>
      <path d="M556.23,10.76c.79-2.8,6.76-6.38,10.14-7.02,9.53-1.8,49.45-1.12,58.94,1.26,30.69,7.7,45.07,44.46,32.68,72.15s-45.22,31.88-73.02,31.5c-1.89,13.91,4.3,49.28-4.36,59.54-6.01,7.11-24.37,5.07-24.37-4.18V10.76ZM599.37,37.76l20.04-7.13c-10.29-15.37-26.24,1.1-37.26,8.51,15.24,11.88,25.38,20.75,43.04,7.1,3.95,12.54-3.89,29.3-18.22,27.8-1.43-.15-15.22-7.71-15.65-8.48-3.69-6.55,5.41-17.01-9.19-19.32.97,7.11-2.3,19.7,1.37,25.58,1.09,1.75,22.49,13.77,25.43,13.53,21.96-1.77,41.18-34.49,20.02-50.1-8.84-2.13-22.18,15.67-29.58,2.51Z" class="cls-1"></path>
      <path d="M849.14,131.7l-78.29-.46-19.09,41.37c-6.45,3.97-14.23.16-16.93-6.35,19.77-48.02,36.35-98.56,58.66-145.46,6.3-13.25,11-29.18,26.61-12.26l63.48,157.72c-19.39,25.52-28.74-20.09-34.45-34.56ZM780.46,111.51h57.5c-6.66-21.25-15-45.24-24.59-65.25-1.6-3.33.43-6.95-5.56-5.72l-27.34,70.97Z" class="cls-1"></path>
      <path d="M439.05,7.18c3.16-3.12,13.16-4.52,17.5-3.16,5.95,2.83,7.06,9.45,7.74,15.2,5.15,43.81-3.88,97.02-.11,141.89-7.85,18.61-26.28,15.06-28.74-5.57-3.7-31.04-2.77-101.57-.06-133.56.37-4.4.5-11.67,3.68-14.81Z" class="cls-1"></path>
      <path d="M964.45,171.11V7.92c0-5.8,20.12-5.8,20.12,0v158.93c0,6.37-14.78,8.07-20.12,4.26Z" class="cls-1"></path>
    </g>
  </g>
</svg>