<svg viewBox="0 0 1247.54 365.62" xmlns="http://www.w3.org/2000/svg" data-name="Layer 2" id="Layer_2">
  <defs>
    <style>
      .cls-1 {
        fill: currentColor;
      }
    </style>
  </defs>
  <g data-name="Layer 1" id="Layer_1-2">
    <g>
      <path d="M157.06,192.12c2.6-2.36,5.02-4.56,7.46-6.75,7.03-6.32,14.37-12.27,21.98-17.89,6.79-5.01,13.77-9.72,20.98-14.09,7.21-4.37,14.55-8.48,22.19-12.02,4.55-2.11,9.08-4.27,13.74-6.11,4.91-1.95,9.94-3.64,14.96-5.29,3.75-1.24,7.55-2.36,11.38-3.34,3.71-.94,7.48-1.62,11.23-2.38,2.23-.45,4.49-.86,6.73-1.28.06-.02.13-.03.19-.04,3.42-.31,6.84-.8,10.25-.88,6.69-.15,12.72,4.48,14.86,10.65.61,1.74.92,3.68.92,5.53.05,51.21.05,102.42.02,153.63,0,6.3-2.54,11.31-8.03,14.62-2.02,1.21-4.21,1.95-6.61,2.15-4.5.37-9.01.73-13.48,1.36-4.85.68-9.68,1.57-14.49,2.53-4.73.94-9.46,1.94-14.12,3.17-4.46,1.19-8.85,2.64-13.22,4.12-4.69,1.6-9.38,3.21-13.95,5.09-7.18,2.94-14.21,6.19-21.1,9.81-6.7,3.52-13.24,7.28-19.61,11.34-7.52,4.79-14.72,10.01-21.68,15.58-3.43,2.75-7.3,4.25-11.72,3.94-3.77-.26-7.01-1.9-9.99-4.22-4.75-3.7-9.61-7.28-14.51-10.78-8.07-5.76-16.57-10.84-25.35-15.41-6.4-3.34-12.95-6.4-19.58-9.25-5.28-2.28-10.75-4.09-16.16-6.03-3.4-1.21-6.84-2.36-10.3-3.39-2.83-.84-5.71-1.54-8.59-2.19-3.99-.89-8-1.72-12.02-2.49-2.63-.5-5.29-.93-7.95-1.26-6.02-.73-12.07-1.19-18.05-2.1-6.15-.93-11.56-5.84-12.78-12.09-.42-2.16-.61-4.41-.61-6.61C0,239.79,0,189.79,0,139.8c0-3.14.43-6.19,1.92-8.99,2.17-4.08,5.41-6.84,9.94-8.13,3.09-.88,6.11-.72,9.19-.2.6.11,1.2.21,1.8.27,5.3.45,10.51,1.46,15.68,2.71,3.98.96,7.98,1.86,11.9,2.97,3.73,1.05,7.42,2.28,11.08,3.56,4.16,1.46,8.34,2.91,12.4,4.62,17.37,7.35,33.68,16.61,49.07,27.51,11.39,8.07,22.17,16.9,32.3,26.52.56.53,1.19,1,1.8,1.51v-.03Z" class="cls-1"></path>
      <path d="M91.21,67.09c-.24-5.41.29-10.85,1.55-16.18,1.77-7.48,4.68-14.51,9.01-20.93,5-7.41,11.13-13.69,18.5-18.77,5.44-3.75,11.34-6.48,17.67-8.38C146.58.23,155.4-.41,164.3.23c3.6.26,7.18,1.02,10.72,1.8,14.74,3.23,26.38,11.39,35.9,22.85,5.2,6.26,9.02,13.31,11.39,21.08,2.67,8.79,3.68,17.8,2.78,26.95-.4,4.01-.94,8.03-1.89,11.95-1.81,7.49-5.01,14.42-9.47,20.72-5.96,8.43-13.35,15.33-22.37,20.43-4.03,2.28-8.29,4.03-12.74,5.39-8.63,2.64-17.45,3.29-26.36,2.66-3.73-.27-7.43-1.11-11.12-1.85-8.14-1.66-15.44-5.23-22.13-10.07-9.39-6.79-16.82-15.32-21.78-25.83-4.34-9.19-6.37-18.95-6.04-29.23h0Z" class="cls-1"></path>
      <path d="M554.99,157.84h-58.58v151.16h-36.35v-151.16h-58.58v-34.26h153.51v34.26ZM578.38,230.02h57.53c-.35-7.15-2.97-13.16-7.85-18.04-4.71-4.88-11.68-7.32-20.92-7.32-8.37,0-15.17,2.62-20.4,7.85-5.23,5.23-8.02,11.07-8.37,17.52ZM639.31,263.5l29.03,8.63c-3.49,11.86-10.37,21.62-20.66,29.29-10.11,7.67-22.75,11.51-37.92,11.51-18.48,0-34.17-6.19-47.07-18.57-12.9-12.55-19.35-29.29-19.35-50.21s6.28-36.09,18.83-48.64c12.55-12.73,27.37-19.09,44.46-19.09,19.88,0,35.39,5.93,46.55,17.78,11.33,11.86,17,28.16,17,48.9,0,1.39-.09,2.96-.26,4.71v4.18l-.26,1.83h-92.05c.35,8.37,3.66,15.34,9.94,20.92,6.28,5.58,13.78,8.37,22.49,8.37,14.82,0,24.58-6.54,29.29-19.61ZM816.35,180.33l-49.95,128.67h-34.78l-52.56-128.67h38.18l31.91,86.3,30.6-86.3h36.61ZM859.05,230.02h57.53c-.35-7.15-2.97-13.16-7.85-18.04-4.71-4.88-11.68-7.32-20.92-7.32-8.37,0-15.17,2.62-20.4,7.85-5.23,5.23-8.02,11.07-8.37,17.52ZM919.98,263.5l29.03,8.63c-3.49,11.86-10.37,21.62-20.66,29.29-10.11,7.67-22.75,11.51-37.92,11.51-18.48,0-34.17-6.19-47.07-18.57-12.9-12.55-19.35-29.29-19.35-50.21s6.28-36.09,18.83-48.64c12.55-12.73,27.37-19.09,44.46-19.09,19.88,0,35.39,5.93,46.55,17.78,11.33,11.86,17,28.16,17,48.9,0,1.39-.09,2.96-.26,4.71v4.18l-.26,1.83h-92.05c.35,8.37,3.66,15.34,9.94,20.92,6.28,5.58,13.78,8.37,22.49,8.37,14.82,0,24.58-6.54,29.29-19.61ZM1013.02,309h-34.78V119.66h34.78v189.34ZM1085.03,309h-34.78V119.66h34.78v189.34ZM1156.79,271.6c6.45,6.45,14.21,9.68,23.28,9.68s16.74-3.23,23.01-9.68c6.45-6.45,9.68-15.43,9.68-26.94s-3.23-20.49-9.68-26.94c-6.28-6.45-13.95-9.68-23.01-9.68s-16.82,3.23-23.28,9.68c-6.28,6.45-9.41,15.43-9.41,26.94s3.14,20.49,9.41,26.94ZM1131.69,195.76c12.9-12.9,29.03-19.35,48.38-19.35s35.39,6.45,48.12,19.35c12.9,12.9,19.35,29.2,19.35,48.9s-6.45,36-19.35,48.9c-12.73,12.9-28.77,19.35-48.12,19.35s-35.48-6.45-48.38-19.35c-12.73-12.9-19.09-29.2-19.09-48.9s6.36-36,19.09-48.9Z" class="cls-1"></path>
    </g>
  </g>
</svg>