<svg viewBox="0 0 1472.82 357.72" xmlns="http://www.w3.org/2000/svg" data-name="Layer 2" id="Layer_2">
  <defs>
    <style>
      .cls-1 {
        fill: currentColor;
      }
    </style>
  </defs>
  <g data-name="Layer 1" id="Layer_1-2">
    <g>
      <path d="M589.67,122.7c18.26-1.92,28.5-14.84,46.2-12.64.74.74-.54,17.11-.01,20.8.32,2.22-.9,3.4,2.74,2.71,3.31-.63,18.73-12.7,24.35-15.46,37.33-18.29,86.91-16.2,111.52,20.87,41.95-35.11,125.78-53.01,152.11,9.03,15.34,36.14,11.59,128.54,10.07,170.62-.24,6.68-3.23,13.54-1.88,20.67,2.53,1.07,5.41-1.8,6.33-1.8h75.18v18.05h-150.36l.08-12.56c15.71-1.26,22.79-5.97,26.6-21.33,6.09-24.61,4.29-124.9-2.62-149.83-14.9-53.79-73.73-47.83-106.95-15.53,1.78,11.18,5.01,24.6,5.11,35.83.37,44.6-1.1,90.67-1.84,135.52-.05,3.08-2.04,7.73-1.89,8.92.54,4.23,4.3.93,4.53.93h26.27v18.05h-97.83l.18-12.46c36.84-1.5,26.21-54.48,26.92-80.57.93-34.16,9.47-98.64-21.63-122.71-22.6-17.49-69.35-6.66-85.14,16.33-.7,56.55.74,113.16.04,169.7-.06,4.6-4.76,12.92,2.19,13.11l26.72-1.47v18.06h-97.84l.18-12.46c18.31-1.4,24.9-11.07,26.77-28.38,5.15-47.58-1.57-105.84.15-155.08.21-5.88,2.93-11.63,1.92-17.85l-34.46.79v-19.86c8.47-.63,17.96.87,26.28,0Z" class="cls-1"></path>
      <path d="M101.45,37.86v81.23h61.59v37.91h-58.88l-2.72,2.71v119.13c0,2.51,4.34,16.3,5.67,19.62,13.42,33.24,46.33,25.41,75.85,30.02v28.88c-21.92-.86-44.2,1.17-66.1-.02-35.37-1.93-65.95-7.5-78.33-44.7-1.71-5.13-5.93-22.07-5.93-26.58v-127.26H0v-39.71c42.08-2.65,63.13-43.29,67.03-81.23h34.42Z" class="cls-1"></path>
      <path d="M232.79,124.5c4.93-.47,14.36-2.68,19.4-4.13,14.7-4.24,23.76-14.39,41.29-10.32l2.71,43.35c19.78-26.4,55.15-56.14,90.64-43.4,19.22,6.9,26.53,23.32,21.35,43.06-8.15,31.07-59.63,26.69-56.74-6.91-21.91-1.98-53.81,33.73-56.2,53.22-3.72,30.25.08,68.57-.03,99.25-.04,9.35.18,18.73.08,28.05h30.8v27.98l-2.72,2.71h-115.04v-25.27c9.39-.6,19.55-4.16,23.94-13.15,3.15-6.46,4.67-24.81,5.13-32.8,2.51-43.89-3.51-89.15,1.74-132.75h-31.7c-.55,0-1.39,2.28-2.72,1.81v-30.69c9.09-.63,19.12.86,28.08,0Z" class="cls-1"></path>
      <path d="M429.35,147.97l1.05-23.67c9.32-3.2,19.12-.75,28.62-1.82,20.09-2.26,33.87-14.45,53.67-12.42l-1.82,222.03h30.8v25.27h-106.88l.24-19.61c18.41-2.18,24.77-10.55,26.71-28.45,4.42-40.87-1.15-91.11.15-133.42.27-8.77,3.52-18.49,1.89-27.9h-34.42Z" class="cls-1"></path>
      <path d="M1331.52,110.06v5.41c-60.59,6.69,14.15,75.74,23.58,101.09l79.67-98.38-39.86.92v-9.03h68.85c.7,8.35-12.83,10.88-19.76,15.51-6.32,4.22-12.21,9.63-17.41,15.15-22.73,24.16-41.24,56.07-64.1,80.6,23.52,34.94,50.94,67.04,75.57,101.17,10.08,13.97,13.47,32.84,34.74,24.04v10.82s-81.51,0-81.51,0l1.08-5.57c12.33-2.13,20.77-11.55,14.83-23.83l-60.31-80.71-75.15,100.19,43.48-.92v10.84h-70.66c-2.39-8.97,9.09-10.13,16.15-15.5,16.41-12.48,59.79-74.16,72.28-94.04,1.8-2.87,5.8-7.24,5.7-10.5-23.86-39.85-58.04-73.98-74.45-117.98l-21.5-.23v-9.03h88.78Z" class="cls-1"></path>
      <path d="M1073.37,122.7c8.7-1.23,27.49-16.04,33.29-12.41,4.51,5.81-.52,53.74,4.76,53.94,16.38-28.99,46.7-56.59,82.19-56.68,11.88-.03,27.06,3.74,30.24,16.82,8.97,36.85-44.41,40.59-37.25,1.93-34.4-.99-59.78,26.38-75.66,53.69l-2.26,159.32,30.81-1.82v18.06h-92.4v-19.85c10.96.81,19.75-5,23.91-14.99,3.51-8.42,4.65-26.59,5.15-36.38,2.56-49.94-3.49-101.12,1.72-150.79-1.97-.69-3.96,1.8-4.52,1.8h-29.89v-12.64c9.37-.93,20.84,1.28,29.89,0Z" class="cls-1"></path>
      <path d="M486.88.34c39.22-5.74,44.71,62.56,4.91,64.67-37.2,1.98-43.77-58.99-4.91-64.67Z" class="cls-1"></path>
    </g>
  </g>
</svg>