<svg width="205" height="36" viewBox="0 0 205 36" fill="none" xmlns="http://www.w3.org/2000/svg">
<path d="M15.0807 2.46792C15.4018 1.79054 15.8933 1.20811 16.507 0.777609C17.1207 0.34711 17.8356 0.083285 18.5819 0.0119441C19.8162 -0.0120105 21.0505 0.0119441 22.2848 0.000597224H32.6117C33.2106 0.000597224 33.8107 -0.0132712 34.4096 0.018248C35.0839 0.100273 35.7306 0.334826 36.3007 0.704106V0.711671C35.8532 1.50722 35.4951 2.35067 35.0879 3.16765C33.0437 7.41812 31.0005 11.6682 28.958 15.9178C28.1272 17.6602 27.2774 19.3937 26.4554 21.1399C25.6321 22.9163 24.7622 24.6701 23.9212 26.4351L20.6357 33.2685C20.3266 33.9298 19.8698 34.5112 19.3005 34.968C18.4482 35.6548 17.3803 36.0179 16.286 35.993H3.54343C3.02574 35.9918 2.51804 35.8505 2.07413 35.5841C1.63022 35.3178 1.26663 34.9363 1.02189 34.4801C0.676335 33.8337 0.583322 33.082 0.76091 32.3708C0.867678 32.0144 1.01134 31.67 1.18957 31.3433C5.82164 21.7186 10.452 12.0935 15.0807 2.46792Z" fill="#2C3E50"/>
<path d="M35.0854 3.16594C35.4927 2.35022 35.8507 1.50551 36.2996 0.709961C36.8023 1.04241 37.2296 1.47665 37.554 1.9846C37.7331 2.2809 37.8939 2.58783 38.0356 2.9037L51.6671 31.2521C51.9231 31.6942 52.103 32.1763 52.1991 32.678C52.2655 33.1724 52.2092 33.6755 52.0352 34.143C51.8299 34.6798 51.4688 35.143 50.9985 35.4732C50.5281 35.8034 49.9698 35.9856 49.3952 35.9964H36.3702C35.5067 35.963 34.669 35.6932 33.9485 35.2163C33.2279 34.7394 32.6521 34.0738 32.284 33.292C31.3216 31.2933 30.3613 29.295 29.4032 27.2971C29.1157 26.6843 28.8018 26.0829 28.5383 25.4601C27.8415 24.0212 27.1468 22.5809 26.4542 21.1395C27.2762 19.3933 28.126 17.6585 28.9568 15.9174L35.0854 3.16594Z" fill="#1D2834"/>
<path d="M42.0044 11.1554C39.7072 6.37838 40.32 7.68075 38.0228 2.9037C37.8804 2.58778 37.7196 2.28047 37.5412 1.98334C37.2156 1.47465 36.7859 1.04068 36.2805 0.709961C35.8316 1.50551 35.4748 2.34896 35.0676 3.16468C33.0235 7.41515 30.9802 11.6656 28.9377 15.9161C28.1069 17.6572 27.2571 19.392 26.4351 21.1382C27.1168 22.5519 27.7984 23.9657 28.4801 25.3794L42.0044 11.1554Z" fill="#1D2834"/>
<path d="M197.326 28.1845C195.911 28.2167 194.514 27.8557 193.292 27.1419C192.155 26.4634 191.225 25.4867 190.604 24.3178C189.957 23.1027 189.626 21.7442 189.643 20.3678C189.615 18.9813 189.946 17.6111 190.604 16.39C191.232 15.2484 192.15 14.2919 193.264 13.6163C194.408 12.9368 195.716 12.5853 197.046 12.6002C198.099 12.5774 199.146 12.7736 200.119 13.1763C200.983 13.538 201.759 14.0805 202.396 14.7674C203.018 15.4447 203.502 16.2365 203.822 17.0986C204.157 17.9927 204.325 18.9412 204.316 19.8962C204.315 20.1624 204.296 20.4281 204.26 20.6918C204.248 20.9345 204.202 21.1743 204.123 21.4041H192.603V18.667H202.093L200.394 19.9568C200.565 19.2094 200.517 18.4286 200.256 17.7075C200.034 17.069 199.611 16.5199 199.05 16.1429C198.459 15.7468 197.759 15.5457 197.048 15.568C196.338 15.5565 195.641 15.7566 195.045 16.1429C194.436 16.5374 193.966 17.1133 193.701 17.7895C193.393 18.6213 193.28 19.5131 193.372 20.3955C193.287 21.2265 193.409 22.0659 193.729 22.8376C194.035 23.5059 194.531 24.0687 195.156 24.4552C195.82 24.8461 196.58 25.0455 197.35 25.0314C198.08 25.0552 198.803 24.8744 199.435 24.5094C200.009 24.1733 200.482 23.6902 200.806 23.1099L203.713 24.5359C203.409 25.2641 202.939 25.9116 202.341 26.427C201.689 26.9931 200.935 27.4303 200.12 27.7155C199.223 28.036 198.275 28.1939 197.322 28.182" fill="#2C3E50"/>
<path d="M187.227 28.0208C186.515 28.0645 185.801 27.9657 185.128 27.7302C184.454 27.4946 183.834 27.1271 183.305 26.6491C182.827 26.1196 182.459 25.5001 182.224 24.8268C181.988 24.1536 181.889 23.4401 181.933 22.7281V16.1444H179.356V12.9357H179.629C180.25 12.9749 180.86 12.7679 181.329 12.3596C181.54 12.138 181.703 11.8747 181.807 11.5867C181.911 11.2986 181.954 10.992 181.933 10.6865V9.53418H185.526V12.9383H188.954V16.1469H185.526V22.5314C185.516 22.9652 185.602 23.3959 185.778 23.7922C185.96 24.1385 186.248 24.4173 186.6 24.5878C187.059 24.7848 187.555 24.8783 188.054 24.8613C188.201 24.8602 188.347 24.8509 188.493 24.8336L189.016 24.7781V27.8519C188.759 27.8872 188.465 27.9233 188.133 27.9603C187.833 27.9954 187.532 28.014 187.229 28.0158" fill="#2C3E50"/>
<path d="M170.678 28.1846C169.746 28.2062 168.82 28.0282 167.963 27.6627C167.238 27.3509 166.62 26.8364 166.181 26.1813C165.754 25.4998 165.535 24.7085 165.551 23.9043C165.53 23.1181 165.73 22.3418 166.127 21.6632C166.525 20.9846 167.104 20.4306 167.8 20.064C168.705 19.5805 169.69 19.2644 170.707 19.131L175.589 18.3355V21.0777L171.392 21.7913C170.807 21.8626 170.255 22.1007 169.801 22.4771C169.628 22.6429 169.491 22.8436 169.401 23.066C169.311 23.2883 169.27 23.5272 169.279 23.7669C169.272 24.0031 169.32 24.2377 169.421 24.4518C169.521 24.666 169.669 24.8537 169.855 24.9999C170.289 25.3022 170.808 25.4561 171.336 25.4387C172.024 25.4539 172.703 25.2933 173.311 24.9722C173.878 24.6616 174.345 24.1953 174.656 23.6282C174.985 23.0622 175.155 22.4181 175.149 21.7635V17.927C175.153 17.6204 175.086 17.317 174.953 17.0408C174.82 16.7646 174.624 16.5233 174.381 16.3359C173.829 15.8766 173.123 15.6417 172.406 15.6778C171.686 15.6716 170.982 15.8831 170.384 16.2845C169.787 16.6859 169.325 17.2584 169.06 17.927L166.126 16.5011C166.412 15.7233 166.883 15.0267 167.497 14.4712C168.153 13.8763 168.916 13.4113 169.745 13.1008C170.64 12.7654 171.588 12.5978 172.543 12.6066C173.661 12.5833 174.769 12.8184 175.781 13.2937C176.668 13.6926 177.42 14.3404 177.947 15.1584C178.488 15.9804 178.765 16.9481 178.742 17.932V27.8606H175.338V25.305L176.107 25.2495C175.746 25.8633 175.283 26.4108 174.737 26.8684C174.193 27.2967 173.581 27.6305 172.926 27.8556C172.198 28.0825 171.439 28.1935 170.677 28.1846" fill="#2C3E50"/>
<path d="M156.588 28.1863C155.531 28.2112 154.487 27.9451 153.571 27.4172C152.73 26.9044 152.054 26.1604 151.623 25.2739C151.165 24.2675 150.94 23.1707 150.965 22.0653V12.936H154.56V21.769C154.548 22.3356 154.67 22.8971 154.915 23.408C155.168 23.8626 155.537 24.2417 155.984 24.5061C156.475 24.7637 157.022 24.8938 157.575 24.8843C158.121 24.8956 158.659 24.7653 159.139 24.5061C159.592 24.2363 159.961 23.8473 160.208 23.3815C160.474 22.8549 160.604 22.2703 160.586 21.6807V12.936H164.179V27.8572H160.775V24.9222L161.077 25.4441C160.766 26.3147 160.153 27.0448 159.349 27.5017C158.503 27.9742 157.545 28.2111 156.576 28.1876" fill="#2C3E50"/>
<path d="M148.108 28.0208C147.396 28.0644 146.682 27.9655 146.009 27.7299C145.336 27.4944 144.716 27.127 144.186 26.6491C143.708 26.1195 143.341 25.4999 143.106 24.8267C142.87 24.1534 142.772 23.44 142.816 22.7281V16.1444H140.236V12.9357H140.51C141.13 12.9747 141.741 12.7677 142.21 12.3596C142.422 12.1378 142.584 11.8746 142.688 11.5866C142.792 11.2985 142.835 10.992 142.814 10.6865V9.53418H146.407V12.9383H149.836V16.1469H146.407V22.5314C146.397 22.9652 146.484 23.3957 146.66 23.7922C146.842 24.1385 147.131 24.4173 147.483 24.5878C147.941 24.7851 148.438 24.8785 148.937 24.8613C149.083 24.8601 149.23 24.8509 149.375 24.8336L149.897 24.7781V27.8519C149.645 27.8872 149.348 27.9238 149.015 27.9603C148.715 27.9954 148.413 28.014 148.111 28.0158" fill="#2C3E50"/>
<path d="M126.419 27.8607V12.9345H129.793V15.8696L129.519 15.3476C129.831 14.4933 130.432 13.7754 131.219 13.319C132.069 12.8316 133.036 12.5849 134.016 12.6054C135.031 12.5855 136.033 12.8315 136.922 13.319C137.768 13.7804 138.464 14.4754 138.926 15.3211C139.415 16.2206 139.661 17.2325 139.638 18.2562V27.8607H136.046V19.111C136.064 18.5214 135.934 17.9369 135.668 17.4102C135.425 16.949 135.054 16.5681 134.599 16.3134C134.127 16.0307 133.584 15.8882 133.034 15.9023C132.485 15.8927 131.943 16.0349 131.47 16.3134C131.015 16.5681 130.644 16.9491 130.4 17.4102C130.135 17.9369 130.005 18.5214 130.022 19.111V27.8607H126.419Z" fill="#2C3E50"/>
<path d="M118.071 28.1855C116.656 28.218 115.259 27.8571 114.037 27.1429C112.899 26.4647 111.969 25.488 111.348 24.3187C110.702 23.1033 110.372 21.745 110.388 20.3687C110.361 18.9824 110.691 17.6125 111.348 16.391C111.976 15.2494 112.893 14.2929 114.008 13.6173C115.151 12.938 116.46 12.5864 117.79 12.6011C118.843 12.5784 119.889 12.7746 120.863 13.1773C121.727 13.539 122.503 14.0815 123.14 14.7684C123.762 15.4453 124.247 16.2372 124.567 17.0996C124.902 17.9938 125.069 18.9423 125.06 19.8972C125.059 20.1633 125.04 20.4291 125.004 20.6928C124.993 20.9356 124.946 21.1755 124.867 21.4051H113.353V18.668H122.845L121.144 19.9577C121.315 19.2103 121.267 18.4295 121.006 17.7085C120.784 17.07 120.361 16.5209 119.8 16.1439C119.209 15.7482 118.509 15.5471 117.798 15.569C117.088 15.5577 116.391 15.7578 115.796 16.1439C115.186 16.5387 114.716 17.1145 114.452 17.7905C114.143 18.6222 114.03 19.5141 114.123 20.3965C114.036 21.2274 114.158 22.0667 114.478 22.8386C114.784 23.5071 115.28 24.0703 115.905 24.4574C116.57 24.8484 117.329 25.0478 118.1 25.0336C118.83 25.0573 119.552 24.8765 120.184 24.5116C120.758 24.1753 121.231 23.6922 121.556 23.1122L124.462 24.5381C124.158 25.2663 123.688 25.9138 123.09 26.4293C122.438 26.9956 121.684 27.4329 120.869 27.7178C119.972 28.0383 119.024 28.1975 118.071 28.1855Z" fill="#2C3E50"/>
<path d="M102.866 28.1843C101.465 28.2066 100.084 27.8587 98.8615 27.1757C97.7098 26.4998 96.7538 25.5356 96.0878 24.3781C95.4052 23.1553 95.0573 21.7741 95.0792 20.3739C95.0552 18.9818 95.4034 17.6086 96.0878 16.3961C96.7487 15.2409 97.7063 14.2833 98.8615 13.6225C100.083 12.9369 101.465 12.5863 102.866 12.6063C103.882 12.5973 104.889 12.7933 105.827 13.1824C106.711 13.5275 107.514 14.0502 108.187 14.7181C108.859 15.3492 109.359 16.1404 109.641 17.0177L106.489 18.3882C106.217 17.6497 105.723 17.0135 105.075 16.5668C104.427 16.1201 103.657 15.8848 102.87 15.8931C102.125 15.8816 101.393 16.0809 100.758 16.468C100.144 16.86 99.6488 17.4113 99.3242 18.0629C98.9806 18.7924 98.8025 19.5889 98.8025 20.3953C98.8025 21.2017 98.9806 21.9982 99.3242 22.7277C99.6476 23.3772 100.141 23.927 100.751 24.3188C101.387 24.7068 102.119 24.9066 102.863 24.895C103.656 24.9147 104.435 24.6808 105.086 24.2273C105.737 23.7738 106.227 23.1243 106.483 22.3735L109.635 23.7994C109.334 24.6548 108.846 25.4326 108.208 26.0763C107.531 26.7471 106.73 27.2787 105.849 27.6409C104.897 28.0138 103.882 28.2 102.859 28.1894" fill="#2C3E50"/>
<path d="M87.5503 28.1844C86.15 28.2071 84.7686 27.8591 83.5461 27.1758C82.394 26.5003 81.4379 25.536 80.7724 24.3781C80.0898 23.1553 79.7419 21.7741 79.7638 20.3739C79.7398 18.9818 80.088 17.6086 80.7724 16.3962C81.4328 15.2406 82.3906 14.2829 83.5461 13.6225C84.7678 12.9365 86.1493 12.5859 87.5503 12.6063C88.5662 12.5973 89.5734 12.7933 90.5118 13.1825C91.3953 13.5276 92.1986 14.0502 92.872 14.7181C93.5435 15.3492 94.0437 16.1405 94.3257 17.0177L91.1738 18.3882C90.9012 17.6499 90.4071 17.014 89.7591 16.5673C89.1112 16.1207 88.341 15.8852 87.5541 15.8931C86.81 15.8819 86.078 16.0812 85.4423 16.468C84.832 16.8599 84.3393 17.4097 84.0164 18.0591C83.6728 18.7887 83.4946 19.5851 83.4946 20.3916C83.4946 21.198 83.6728 21.9944 84.0164 22.724C84.3393 23.3734 84.832 23.9232 85.4423 24.3151C86.0776 24.7029 86.8098 24.9027 87.5541 24.8912C88.3473 24.911 89.126 24.6771 89.7771 24.2235C90.4281 23.77 90.9174 23.1206 91.1738 22.3697L94.3257 23.7956C94.0247 24.6511 93.5372 25.4289 92.8985 26.0726C92.2221 26.7433 91.4206 27.2749 90.5396 27.6372C89.5876 28.01 88.5727 28.1962 87.5503 28.1856" fill="#2C3E50"/>
<path d="M61.3709 27.8559L68.4211 7.42261H73.2486L80.2938 27.8559H76.2341L74.7792 23.4672H66.8855L65.4041 27.8559H61.3709ZM67.9559 20.1765H73.7151L70.311 9.99962H71.3549L67.9559 20.1765Z" fill="#2C3E50"/>
</svg>
