<svg width="182" height="24" viewBox="0 0 182 24" fill="none" xmlns="http://www.w3.org/2000/svg">
<path d="M41.3318 11.9784C41.3318 4.37068 45.5856 0.000976562 52.1636 0.000976562C57.1481 0.000976562 61.135 2.53522 61.6608 8.07858H57.4101C57.2053 6.83101 56.5453 5.70366 55.5576 4.91446C54.5699 4.12527 53.3247 3.73028 52.0627 3.80585C47.8419 3.80585 45.7855 7.14485 45.7855 11.9794C45.7855 16.814 47.7789 20.187 52.0627 20.187C53.3297 20.2615 54.5791 19.8618 55.5676 19.0657C56.556 18.2696 57.2128 17.134 57.4101 15.8803H61.6648C61.135 21.4526 57.1481 23.9908 52.1306 23.9908C45.5866 23.9888 41.3318 19.6191 41.3318 11.9784Z" fill="#2C3E50"/>
<path d="M63.0522 19.1213C63.0522 15.5224 65.8754 14.4837 69.0334 14.0478L72.2575 13.6119C73.951 13.377 74.4508 13.0801 74.4508 12.1753V11.8065C74.4508 9.70708 73.1872 9.07127 71.3268 9.07127C69.4663 9.07127 67.9737 9.70408 67.9737 11.6055V11.9744H63.9869V11.2076C63.9869 7.83964 66.2813 5.97119 71.4277 5.97119C76.5742 5.97119 78.6346 7.80565 78.6346 11.6445V23.6539H74.5468V20.5499H74.3798C73.8826 21.6443 73.0621 22.5602 72.0287 23.1743C70.9953 23.7884 69.7986 24.0713 68.5996 23.9848C65.6754 23.9848 63.0522 22.5853 63.0522 19.1123V19.1213ZM69.9942 20.8888C72.7173 20.8888 74.4448 19.0533 74.4448 17.6507V15.4434C74.2109 15.8433 73.3811 16.0432 72.4174 16.1762L69.6603 16.612C67.8668 16.8799 67.3 17.7117 67.3 18.7484C67.3 20.085 68.1997 20.8848 69.9902 20.8848L69.9942 20.8888Z" fill="#2C3E50"/>
<path d="M81.7178 6.3053H85.9725V10.4451H86.0725C86.6353 8.10776 88.2659 6.10936 91.19 6.10936C91.6392 6.10308 92.087 6.15961 92.5206 6.27731V9.87624C92.0799 9.81191 91.6353 9.7785 91.19 9.77627C88.3328 9.77627 85.9725 11.5108 85.9725 15.5825V23.6601H81.7178V6.3053Z" fill="#2C3E50"/>
<path d="M96.4694 18.7856V9.64532H93.5793V6.31031H96.4694V1.86963H100.724V6.30531H104.111V9.64532H100.724V18.1208C100.724 19.6203 101.191 20.4581 102.984 20.4581C103.429 20.4639 103.873 20.4415 104.315 20.3911V23.5912C103.513 23.8 102.687 23.9009 101.859 23.8911C98.6008 23.8911 96.4784 22.4585 96.4784 18.7846L96.4694 18.7856Z" fill="#2C3E50"/>
<path d="M120.727 13.88H110.759V23.6581H106.408V0.302002H110.759V10.245H120.727V0.302002H125.078V23.6621H120.728L120.727 13.88Z" fill="#2C3E50"/>
<path d="M127.013 14.9815C127.013 8.7104 131.234 5.97021 135.585 5.97021C139.935 5.97021 144.155 8.7064 144.155 14.9815C144.155 21.2567 139.901 23.9929 135.585 23.9929C131.268 23.9929 127.013 21.2577 127.013 14.9815ZM135.585 20.4199C138.074 20.4199 140.134 18.7524 140.134 14.9815C140.134 11.2107 138.074 9.54515 135.585 9.54515C133.095 9.54515 131.001 11.2127 131.001 14.9835C131.001 18.7544 133.061 20.4199 135.585 20.4199Z" fill="#2C3E50"/>
<path d="M145.326 14.9815C145.326 8.7104 149.547 5.97021 153.896 5.97021C158.246 5.97021 162.467 8.7064 162.467 14.9815C162.467 21.2567 158.212 23.9929 153.895 23.9929C149.579 23.9929 145.326 21.2577 145.326 14.9815ZM153.896 20.4199C156.387 20.4199 158.447 18.7524 158.447 14.9815C158.447 11.2107 156.387 9.54315 153.896 9.54315C151.406 9.54315 149.313 11.2107 149.313 14.9815C149.313 18.7524 151.37 20.4199 153.896 20.4199Z" fill="#2C3E50"/>
<path d="M164.206 0.302002H168.46V14.0849L175.505 6.30922H180.221L173.144 13.75L181.152 23.6621H176.435L170.554 16.4522L168.455 18.6515V23.6581H164.206V0.302002Z" fill="#2C3E50"/>
<path d="M34.4889 10.3689H2.48038V13.6009H34.4889V10.3689Z" fill="#2C3E50"/>
<path d="M12.1723 23.9939L0.740723 12.5633C0.669054 12.4917 0.612198 12.4067 0.573407 12.3131C0.534615 12.2195 0.514648 12.1192 0.514648 12.0179C0.514648 11.9166 0.534615 11.8163 0.573407 11.7228C0.612198 11.6292 0.669054 11.5442 0.740723 11.4726L12.2113 0H16.781L4.76553 12.0174L16.741 23.9919L12.1723 23.9939Z" fill="#2C3E50"/>
<path d="M23.252 23.9939L11.2756 12.0174L23.293 0H27.8627L15.8452 12.0174L27.8207 23.9919L23.252 23.9939Z" fill="#2C3E50"/>
</svg>
