<svg width="170" height="40" viewBox="0 0 170 40" fill="none" xmlns="http://www.w3.org/2000/svg">
<g clip-path="url(#clip0_152_89)">
<path d="M169.333 0.162354H0.333313V3.5724H169.333V0.162354Z" fill="#2C3E50"/>
<path d="M169.333 36.3738H0.333313V40.1086H169.333V36.3738Z" fill="#2C3E50"/>
<path d="M169.297 0.162354H165.623V40.0586H169.297V0.162354Z" fill="#2C3E50"/>
<path d="M169.243 0V39.9756H0.333313V0H169.243ZM20.3284 1.96387V18.6729H15.847V11.5986H13.5482V28.3652H15.847V20.9473H20.3284V38.0234H167.302V1.96387H20.3284Z" fill="#2C3E50"/>
<path d="M24.8102 11.761V18.8351H20.3286V21.1089H24.8102V28.5277H27.1084V11.761H24.8102Z" fill="#2C3E50"/>
<path d="M34.1065 21.9246C34.1065 22.5217 34.2214 23.0845 34.4398 23.6127C34.658 24.141 34.9798 24.6119 35.3706 25.0022C35.7612 25.3928 36.221 25.7143 36.7494 25.9325C37.278 26.1621 37.8411 26.2656 38.4272 26.2656C39.0247 26.2656 39.5878 26.1506 40.105 25.9325C40.6335 25.7028 41.0932 25.3928 41.4838 25.0022C41.8747 24.6119 42.1849 24.141 42.4146 23.6127C42.633 23.0845 42.7479 22.5103 42.7479 21.9246V11.853H45.0348V21.9246C45.0348 22.5332 44.9544 23.1305 44.8049 23.6931C44.644 24.2558 44.4257 24.784 44.1384 25.278C43.8511 25.7718 43.5063 26.2196 43.1041 26.6215C42.7019 27.0234 42.2538 27.368 41.7598 27.6666C41.2656 27.9537 40.7485 28.1833 40.1855 28.3327C39.6222 28.4935 39.0363 28.5739 38.4272 28.5739C37.8182 28.5739 37.2436 28.4935 36.6805 28.3327C36.1174 28.1718 35.6004 27.9537 35.1062 27.6666C34.6236 27.3795 34.1754 27.035 33.7617 26.6215C33.3595 26.2196 33.0148 25.7718 32.7275 25.278C32.4402 24.784 32.2218 24.2558 32.061 23.6816C31.9001 23.1189 31.8312 22.5217 31.8312 21.9131V11.8416H34.1179V21.9246H34.1065Z" fill="#2C3E50"/>
<path d="M49.999 28.3788V11.8533H52.2743V26.0934H59.3645V28.3788H49.999Z" fill="#2C3E50"/>
<path d="M65.5926 28.3788H63.3173V11.8533H65.5926V28.3788ZM67.4887 19.1686L72.0853 12.8983C72.3036 12.5538 72.5909 12.2897 72.9242 12.1174C73.2688 11.9451 73.6596 11.8533 74.0963 11.8533H75.659L70.0169 19.5591C69.9364 19.6624 69.856 19.7428 69.7869 19.8003C69.718 19.8462 69.672 19.8807 69.6605 19.8807C69.672 19.892 69.718 19.9266 69.7869 19.9726C69.856 20.0184 69.9364 20.0987 70.0169 20.2022L76.0383 28.3788H74.4754C74.0387 28.3788 73.6481 28.2984 73.3033 28.1146C72.9586 27.9425 72.6828 27.6783 72.4644 27.3337L67.4887 20.6041C67.3853 20.4777 67.2934 20.3629 67.2014 20.2826C67.1096 20.1906 67.0176 20.1218 66.9372 20.0643C66.8567 20.007 66.7877 19.9726 66.7303 19.938C66.6728 19.9151 66.6499 19.892 66.6383 19.892C66.6383 19.892 66.6728 19.8807 66.7303 19.8576C66.7877 19.8347 66.8567 19.8003 66.9372 19.7428C67.0176 19.6853 67.1096 19.6165 67.2014 19.5246C67.2934 19.4213 67.3967 19.3065 67.4887 19.1686Z" fill="#2C3E50"/>
<path d="M77.1646 28.31H79.118L83.9329 11.8533H81.922L77.1646 28.31Z" fill="#2C3E50"/>
<path d="M147.17 29.1597L147.503 28.6887L147.756 28.3443L148.56 27.2417L149.364 26.1393L150.18 25.0139L150.927 23.9918L151.847 22.7286L152.398 21.9706L152.72 21.5343L152.801 21.4309C152.801 21.4309 152.892 21.3161 152.904 21.3045C152.904 21.3045 152.996 21.1897 153.065 21.1553C153.065 21.1553 153.145 21.0978 153.168 21.0863C153.168 21.0863 153.076 21.0174 153.053 21.0059C153.053 21.0059 152.95 20.9371 152.858 20.8223C152.858 20.8223 152.766 20.7075 152.731 20.6615L146.802 12.5422H146.836H146.905H147.94H148.411C148.411 12.5422 148.721 12.5422 148.928 12.5882C148.928 12.5882 149.123 12.6226 149.296 12.6915C149.296 12.6915 149.434 12.7375 149.491 12.7719C149.491 12.7719 149.652 12.8523 149.686 12.8753C149.686 12.8753 149.836 12.9671 149.893 13.0246C149.893 13.0246 150.065 13.1739 150.1 13.2083C150.1 13.2083 150.318 13.438 150.422 13.6217C150.422 13.6217 150.835 14.1844 150.893 14.2763L151.467 15.0687L152.042 15.8496L152.559 16.5617L153.088 17.2851L153.547 17.9052L154.145 18.7207L154.834 19.6739L155.363 20.3973C155.363 20.3973 155.616 20.7532 155.903 20.9255C155.903 20.9255 156.041 21.0174 156.202 21.0978C156.202 21.0978 155.984 21.1667 155.788 21.339C155.788 21.339 155.57 21.5228 155.421 21.7295L155.064 22.2118L154.731 22.6596L154.421 23.0846L154.042 23.6013L153.708 24.0493L153.329 24.566L152.915 25.1288L152.502 25.6915L152.099 26.2428L151.663 26.8514L151.249 27.4256L150.824 28.0226L150.64 28.2868C150.64 28.2868 150.468 28.5165 150.353 28.6084C150.353 28.6084 150.146 28.7922 149.939 28.8955C149.939 28.8955 149.686 29.0333 149.376 29.1022C149.376 29.1022 149.169 29.1481 149.043 29.1597C149.043 29.1597 148.744 29.1825 148.526 29.1712L147.17 29.1597Z" fill="#2C3E50"/>
<path d="M97.0445 25.565C97.2974 25.565 97.4812 25.6225 97.5847 25.7373C97.688 25.8521 97.7456 26.0475 97.7456 26.3345C97.7456 26.6216 97.688 26.8168 97.5847 26.9316C97.4812 27.0464 97.2974 27.1039 97.0445 27.1039H96.3321C96.1022 27.1039 95.884 27.081 95.6771 27.0235C95.4702 26.9661 95.2749 26.8743 95.114 26.7593C94.9416 26.6445 94.8037 26.4838 94.6774 26.3115C94.551 26.1278 94.4705 25.9211 94.413 25.6685C93.827 26.1852 93.172 26.5986 92.471 26.9087C91.7586 27.2187 91 27.3681 90.1727 27.3681C89.6097 27.3681 89.104 27.2991 88.6329 27.1499C88.1618 27.0006 87.7595 26.7824 87.4148 26.5067C87.0701 26.2196 86.8057 25.8752 86.6104 25.4731C86.4151 25.0712 86.3231 24.6005 86.3231 24.0721C86.3231 23.4406 86.4495 22.9008 86.6909 22.4529C86.9322 22.0049 87.2655 21.649 87.679 21.3734C88.0927 21.0977 88.5754 20.9025 89.127 20.7647C89.6786 20.6385 90.2532 20.5695 90.8622 20.5695C91.4713 20.5695 92.0573 20.6154 92.6203 20.7189C93.1834 20.8106 93.7351 20.96 94.2637 21.1437V20.1791C94.2637 19.444 94.0913 18.9044 93.7466 18.5713C93.4018 18.2268 92.8043 18.0545 91.9654 18.0545C91.3564 18.0545 90.7473 18.1349 90.1497 18.2956C89.5406 18.4564 89.0006 18.709 88.5294 19.0536C88.3571 19.18 88.1847 19.2259 88.0009 19.1915C87.817 19.1569 87.6446 19.0192 87.4837 18.7894C87.3228 18.5598 87.2539 18.3531 87.2884 18.1579C87.3228 17.9741 87.4263 17.8133 87.5986 17.687C87.8859 17.4688 88.2076 17.2851 88.564 17.1128C88.9202 16.9521 89.2764 16.8142 89.6557 16.7223C90.0348 16.619 90.4141 16.5502 90.8047 16.4927C91.1955 16.4467 91.5862 16.4238 91.9654 16.4238C93.2984 16.4238 94.2981 16.7453 94.9645 17.377C95.6196 18.0085 95.9529 18.9502 95.9529 20.1905V24.7037C95.9529 25.301 96.1942 25.5994 96.6883 25.5994L97.0445 25.565ZM94.2406 22.6481C93.7235 22.4758 93.1834 22.3495 92.5974 22.2691C92.0113 22.1888 91.4368 22.1428 90.8507 22.1428C90.4485 22.1428 90.0808 22.1772 89.7361 22.2462C89.3913 22.3151 89.104 22.4184 88.8627 22.5678C88.6214 22.717 88.426 22.9122 88.2881 23.1419C88.1503 23.3715 88.0814 23.6702 88.0814 24.0032C88.0814 24.5545 88.2767 24.9793 88.6444 25.2895C89.0235 25.5994 89.5522 25.7488 90.2301 25.7488C91.0346 25.7488 91.7586 25.5765 92.425 25.2435C93.0916 24.9104 93.7006 24.4511 94.2521 23.8769V22.6481H94.2406Z" fill="#2C3E50"/>
<path d="M102.055 18.1808H101.136C100.883 18.1808 100.699 18.1235 100.595 18.0085C100.492 17.8937 100.435 17.6985 100.435 17.4114C100.435 17.1243 100.492 16.9292 100.595 16.8142C100.699 16.6994 100.883 16.6421 101.136 16.6421H102.917C103.17 16.6421 103.353 16.6994 103.457 16.8142C103.56 16.9292 103.618 17.1243 103.618 17.4114V18.3187C104.077 17.7101 104.618 17.2276 105.238 16.8946C105.859 16.5615 106.537 16.3894 107.284 16.3894C107.973 16.3894 108.617 16.5042 109.203 16.7453C109.789 16.9865 110.306 17.3195 110.731 17.7674C111.156 18.2152 111.501 18.755 111.742 19.3982C111.984 20.0412 112.11 20.7648 112.11 21.5801C112.11 22.3955 111.984 23.119 111.742 23.7621C111.501 24.4053 111.156 24.945 110.731 25.3929C110.306 25.8407 109.789 26.1738 109.203 26.4149C108.617 26.6561 107.973 26.7709 107.284 26.7709C106.537 26.7709 105.87 26.6216 105.284 26.3115C104.698 26.0015 104.181 25.565 103.733 25.0024V29.9979H106.215C106.468 29.9979 106.652 30.0554 106.755 30.1702C106.858 30.285 106.916 30.4802 106.916 30.7674C106.916 31.0545 106.858 31.2497 106.755 31.3645C106.652 31.4793 106.468 31.5368 106.215 31.5368H100.802C100.55 31.5368 100.366 31.4793 100.262 31.3645C100.159 31.2497 100.102 31.0545 100.102 30.7674C100.102 30.4802 100.159 30.285 100.262 30.1702C100.366 30.0554 100.55 29.9979 100.802 29.9979H102.055V18.1808ZM103.733 21.5917C103.733 22.1543 103.813 22.6481 103.986 23.0846C104.158 23.5209 104.399 23.8884 104.698 24.187C105.008 24.4857 105.364 24.7153 105.79 24.876C106.203 25.0368 106.663 25.1172 107.157 25.1172C107.663 25.1172 108.111 25.0368 108.513 24.8531C108.915 24.6808 109.237 24.4397 109.513 24.1182C109.777 23.808 109.984 23.429 110.133 23.0041C110.271 22.5793 110.34 22.1084 110.34 21.5917C110.34 21.0748 110.271 20.6041 110.133 20.1791C109.995 19.7541 109.789 19.3751 109.513 19.0652C109.248 18.755 108.915 18.5139 108.513 18.3302C108.111 18.1579 107.674 18.066 107.157 18.066C106.663 18.066 106.203 18.1464 105.79 18.3071C105.376 18.4679 105.008 18.6861 104.698 18.9963C104.388 19.2948 104.158 19.6622 103.986 20.0987C103.825 20.535 103.733 21.0288 103.733 21.5917Z" fill="#2C3E50"/>
<path d="M117.062 18.1808H116.143C115.89 18.1808 115.706 18.1235 115.603 18.0085C115.5 17.8937 115.442 17.6985 115.442 17.4114C115.442 17.1243 115.5 16.9292 115.603 16.8142C115.706 16.6994 115.89 16.6421 116.143 16.6421H117.924C118.177 16.6421 118.361 16.6994 118.464 16.8142C118.568 16.9292 118.625 17.1243 118.625 17.4114V18.3187C119.085 17.7101 119.625 17.2276 120.245 16.8946C120.866 16.5615 121.544 16.3894 122.291 16.3894C122.981 16.3894 123.624 16.5042 124.21 16.7453C124.796 16.9865 125.313 17.3195 125.738 17.7674C126.164 18.2152 126.508 18.755 126.75 19.3982C126.991 20.0412 127.117 20.7648 127.117 21.5801C127.117 22.3955 126.991 23.119 126.75 23.7621C126.508 24.4053 126.164 24.945 125.738 25.3929C125.313 25.8407 124.796 26.1738 124.21 26.4149C123.624 26.6561 122.981 26.7709 122.291 26.7709C121.544 26.7709 120.877 26.6216 120.291 26.3115C119.705 26.0015 119.188 25.565 118.74 25.0024V29.9979H121.222C121.475 29.9979 121.659 30.0554 121.762 30.1702C121.866 30.285 121.923 30.4802 121.923 30.7674C121.923 31.0545 121.866 31.2497 121.762 31.3645C121.659 31.4793 121.475 31.5368 121.222 31.5368H115.81C115.557 31.5368 115.373 31.4793 115.27 31.3645C115.166 31.2497 115.109 31.0545 115.109 30.7674C115.109 30.4802 115.166 30.285 115.27 30.1702C115.373 30.0554 115.557 29.9979 115.81 29.9979H117.062V18.1808ZM118.74 21.5917C118.74 22.1543 118.821 22.6481 118.993 23.0846C119.165 23.5209 119.407 23.8884 119.705 24.187C120.004 24.4857 120.372 24.7153 120.797 24.876C121.211 25.0368 121.67 25.1172 122.165 25.1172C122.67 25.1172 123.118 25.0368 123.521 24.8531C123.923 24.6808 124.244 24.4397 124.52 24.1182C124.785 23.808 124.991 23.429 125.141 23.0041C125.279 22.5793 125.348 22.1084 125.348 21.5917C125.348 21.0748 125.279 20.6041 125.141 20.1791C125.003 19.7541 124.796 19.3751 124.52 19.0652C124.256 18.755 123.923 18.5139 123.521 18.3302C123.118 18.1579 122.682 18.066 122.165 18.066C121.67 18.066 121.211 18.1464 120.797 18.3071C120.383 18.4679 120.016 18.6861 119.705 18.9963C119.395 19.2948 119.165 19.6622 118.993 20.0987C118.821 20.535 118.74 21.0288 118.74 21.5917Z" fill="#2C3E50"/>
<path d="M133.495 26.6216C133.495 26.8858 133.438 27.0695 133.311 27.1843C133.185 27.2993 132.966 27.3566 132.656 27.3566C132.346 27.3566 132.128 27.2993 132.001 27.1843C131.875 27.0695 131.817 26.8858 131.817 26.6216V23.9115C131.817 23.6473 131.875 23.4635 132.001 23.3487C132.128 23.2338 132.346 23.1764 132.656 23.1764C132.817 23.1764 132.944 23.2108 133.035 23.2913C133.127 23.3717 133.196 23.4865 133.254 23.6473C133.53 24.3822 133.978 24.9105 134.61 25.2321C135.23 25.565 136.069 25.7259 137.103 25.7259C138 25.7259 138.666 25.565 139.114 25.2435C139.562 24.922 139.781 24.497 139.781 23.9803C139.781 23.7048 139.7 23.498 139.528 23.3258C139.356 23.165 139.126 23.0271 138.839 22.9352C138.505 22.8204 138.126 22.74 137.701 22.6826C137.276 22.6252 136.816 22.5793 136.333 22.5218C135.851 22.4645 135.38 22.407 134.909 22.3151C134.437 22.2347 134.001 22.1084 133.598 21.9476C133.346 21.8557 133.116 21.7294 132.909 21.5801C132.702 21.4423 132.518 21.27 132.369 21.0748C132.219 20.8796 132.093 20.6498 132.013 20.3973C131.932 20.1447 131.886 19.8461 131.886 19.513C131.886 19.0077 131.99 18.5598 132.185 18.1694C132.392 17.7789 132.668 17.4574 133.012 17.1932C133.369 16.9292 133.782 16.7338 134.265 16.5961C134.748 16.4583 135.276 16.3894 135.839 16.3894C136.586 16.3894 137.253 16.5042 137.85 16.7225C138.448 16.9405 138.953 17.2507 139.379 17.6297V17.1243C139.379 16.8602 139.436 16.6765 139.562 16.5615C139.689 16.4467 139.907 16.3894 140.218 16.3894C140.528 16.3894 140.746 16.4467 140.873 16.5615C140.999 16.6765 141.056 16.8602 141.056 17.1243V19.2719C141.056 19.5359 140.999 19.7197 140.873 19.8345C140.746 19.9493 140.528 20.0068 140.218 20.0068C139.965 20.0068 139.792 19.9149 139.677 19.7082C139.505 19.3867 139.298 19.1111 139.057 18.8929C138.815 18.6746 138.54 18.5025 138.218 18.3762C137.896 18.2498 137.552 18.1579 137.172 18.1004C136.793 18.0545 136.379 18.0201 135.954 18.0201C135.23 18.0201 134.667 18.1464 134.265 18.3991C133.851 18.6517 133.656 19.0192 133.656 19.5015C133.656 19.7541 133.736 19.9493 133.897 20.0987C134.058 20.2479 134.277 20.3743 134.564 20.4662C134.874 20.5695 135.242 20.65 135.655 20.6958C136.069 20.7418 136.506 20.7877 136.977 20.8452C137.448 20.9025 137.908 20.9485 138.379 21.0288C138.85 21.1092 139.287 21.2127 139.689 21.3619C139.965 21.4653 140.218 21.5917 140.447 21.7409C140.677 21.8901 140.873 22.0624 141.045 22.2691C141.217 22.4758 141.344 22.717 141.436 22.9927C141.527 23.2683 141.573 23.5898 141.573 23.9459C141.573 24.4511 141.481 24.9105 141.286 25.3239C141.091 25.7373 140.815 26.0934 140.447 26.3919C140.08 26.6905 139.62 26.9203 139.08 27.081C138.54 27.2418 137.919 27.3222 137.23 27.3222C136.414 27.3222 135.701 27.2074 135.104 26.9776C134.495 26.748 133.966 26.4034 133.507 25.944V26.6216H133.495Z" fill="#2C3E50"/>
</g>
<rect x="0.833313" y="0.5" width="168" height="39" stroke="#2C3E50"/>
<defs>
<clipPath id="clip0_152_89">
<rect x="0.333313" width="169" height="40" fill="white"/>
</clipPath>
</defs>
</svg>
