<svg width="149" height="32" viewBox="0 0 149 32" fill="none" xmlns="http://www.w3.org/2000/svg">
<path d="M24.4096 31.938C18.3395 31.259 14.2898 27.0631 14.0159 21.1687C13.7434 15.3082 17.6067 10.4891 23.3548 9.51904C25.3398 9.18408 27.373 9.30008 29.2196 9.85385C30.0433 10.1009 31.5243 10.8403 32.2384 11.3612C34.9494 13.3389 36.5579 16.2972 36.8135 19.7768C36.8732 20.5891 36.82 22.0108 36.7106 22.5196C36.6906 22.6106 36.6614 22.7505 36.6449 22.8304L36.6144 22.9755H28.2948H19.9751L20.0397 23.2034C20.1418 23.5629 20.4713 24.2414 20.7056 24.5745C21.4657 25.6551 22.5886 26.3889 24.0446 26.757C24.5893 26.8948 24.9099 26.9306 25.8359 26.9572C26.8168 26.9856 27.0545 26.971 27.6604 26.8505C28.8906 26.6048 29.846 26.1288 30.6608 25.3558L31.1789 24.8641L33.417 26.1187C34.648 26.8086 35.6757 27.3929 35.7009 27.4169C35.7262 27.4412 35.5418 27.7095 35.291 28.0136C33.4783 30.2126 30.9555 31.5429 27.8945 31.914C27.0395 32.0177 25.2337 32.03 24.4096 31.938ZM31.1467 18.5712C30.6599 17.0547 30.2877 16.414 29.4609 15.6695C28.7597 15.038 27.8993 14.6238 26.8681 14.4213C26.1359 14.2774 24.6055 14.3225 23.912 14.5084C22.0772 15.0001 20.8242 16.0849 20.1697 17.7482C20.0648 18.0145 19.9586 18.3267 19.9334 18.442L19.8875 18.6517H25.5302C30.0138 18.6517 31.1673 18.6353 31.1467 18.5712ZM61.032 31.938C54.962 31.259 50.9125 27.0631 50.6384 21.1687C50.3659 15.3082 54.2292 10.4891 59.9773 9.51904C61.9623 9.18408 63.9955 9.30008 65.8421 9.85385C66.6658 10.1009 68.1468 10.8403 68.8608 11.3612C71.5719 13.3389 73.1802 16.2972 73.436 19.7768C73.4956 20.5891 73.4425 22.0108 73.3332 22.5196C73.3131 22.6106 73.284 22.7505 73.2673 22.8304L73.2369 22.9755H64.9172H56.5976L56.6622 23.2034C56.7642 23.5629 57.0937 24.2414 57.3281 24.5745C58.0883 25.6551 59.2109 26.3889 60.6671 26.757C61.2117 26.8948 61.5324 26.9306 62.4583 26.9572C63.4392 26.9856 63.677 26.971 64.2828 26.8505C65.513 26.6048 66.4684 26.1288 67.2833 25.3558L67.8013 24.8641L70.0393 26.1187C71.2702 26.8086 72.298 27.3929 72.3234 27.4169C72.3487 27.4412 72.1642 27.7095 71.9135 28.0136C70.1007 30.2126 67.578 31.5429 64.5171 31.914C63.6619 32.0177 61.8562 32.03 61.032 31.938ZM67.7693 18.5712C67.2824 17.0547 66.9101 16.414 66.0834 15.6695C65.3822 15.038 64.5218 14.6238 63.4906 14.4213C62.7582 14.2774 61.2281 14.3225 60.5345 14.5084C58.6996 15.0001 57.4466 16.0849 56.7921 17.7482C56.6873 18.0145 56.5811 18.3267 56.5559 18.442L56.51 18.6517H62.1525C66.6363 18.6517 67.7898 18.6353 67.7693 18.5712ZM85.3475 31.9121C81.8266 31.3593 78.7185 28.945 77.204 25.587C75.5444 21.9063 75.9088 17.3861 78.1301 14.1022C80.34 10.8351 83.9074 9.07459 87.7409 9.35921C90.1653 9.53923 92.0727 10.367 93.5978 11.9012C93.8661 12.1711 94.0975 12.3919 94.112 12.3919C94.1262 12.3919 94.1381 11.8402 94.1381 11.1658V9.93964H96.9909H99.8438V20.6845V31.4295H96.9909H94.1381V30.1742V28.9189L93.4912 29.547C92.2734 30.7297 90.8898 31.4477 89.1091 31.8213C88.253 32.0009 86.225 32.0499 85.3475 31.9121ZM89.7926 26.4964C91.0965 26.1209 92.081 25.4834 92.8389 24.5243C93.7982 23.3102 94.2479 21.6571 94.0732 19.9866C93.9123 18.4481 93.3345 17.2283 92.3004 16.2444C90.1433 14.1916 86.3065 14.0588 83.9921 15.9566C83.0745 16.709 82.4158 17.7447 82.0811 18.961C81.9312 19.5056 81.9079 19.7226 81.903 20.62C81.8965 21.7738 81.988 22.2954 82.3467 23.1597C83.0228 24.7885 84.3249 25.9569 86.0239 26.4588C86.7745 26.6806 87.0735 26.7128 88.1672 26.6899C89.0462 26.6716 89.2823 26.6435 89.7926 26.4964ZM110.89 31.9392C107.595 31.5515 105.008 29.9757 103.599 27.4969C103.351 27.0617 103.306 26.9383 103.375 26.8782C103.499 26.7688 108.103 24.2663 108.18 24.2663C108.216 24.2663 108.311 24.4187 108.391 24.605C108.708 25.3419 109.462 26.1319 110.192 26.4916C110.925 26.8529 111.408 26.9444 112.582 26.9444C113.561 26.9444 113.729 26.9279 114.168 26.788C114.982 26.5285 115.423 26.1155 115.571 25.4719C115.772 24.599 115.143 23.9412 113.595 23.4039C113.331 23.3123 112.396 23.032 111.517 22.781C109.49 22.2021 108.827 21.9699 107.839 21.4924C106.101 20.6533 105.047 19.5925 104.55 18.1846C103.938 16.4502 104.172 14.3708 105.163 12.7264C105.497 12.1719 106.734 11.0029 107.381 10.6303C108.599 9.92886 110.177 9.47465 111.78 9.36405C115.594 9.10101 118.866 10.6079 120.767 13.5027C120.987 13.8382 120.998 13.8768 120.892 13.9321C120.828 13.9653 119.734 14.5479 118.46 15.2261C117.187 15.9043 116.139 16.4516 116.132 16.4423C116.125 16.4333 116.032 16.2674 115.926 16.0745C115.648 15.5675 115 14.9641 114.442 14.6928C113.144 14.0611 111.442 14.1458 110.597 14.884C110.183 15.2461 110.034 15.5998 110.073 16.1264C110.108 16.6019 110.311 16.8832 110.867 17.2333C111.364 17.5455 112.026 17.7773 113.909 18.2981C117.422 19.2698 118.688 19.8623 119.901 21.1024C120.567 21.7828 120.989 22.5425 121.248 23.5241C121.582 24.7859 121.456 26.5059 120.945 27.7014C120.009 29.8888 117.94 31.2786 114.759 31.8571C114.091 31.9785 111.663 32.0301 110.89 31.9392ZM144.435 31.549C142.436 31.4009 140.987 30.8776 139.936 29.925C139.106 29.172 138.597 28.2125 138.27 26.783L138.101 26.0409L138.062 20.6523L138.025 15.2638L136.118 15.2469L134.211 15.23V12.5861V9.94219L136.118 9.92535L138.025 9.90852L138.043 7.73048C138.052 6.53261 138.074 5.55246 138.09 5.55246C138.107 5.55246 139.353 5.1896 140.859 4.74604C142.366 4.30249 143.635 3.93947 143.682 3.93936C143.747 3.93915 143.765 4.58223 143.765 6.93996V9.94079H146.252H148.74V12.5867V15.2326H146.25H143.761L143.779 20.121L143.797 25.0095L143.981 25.3741C144.416 26.2366 145.36 26.5151 147.596 26.4415L148.74 26.4042V28.9101V31.416L148.392 31.4572C147.829 31.524 146.089 31.6225 145.622 31.614C145.384 31.6095 144.85 31.5802 144.435 31.549ZM0.26001 20.6846V9.93966H3.11287H5.96574L5.96956 11.7627L5.97338 13.5858L6.28901 12.9966C6.65406 12.3153 6.83929 12.0636 7.39251 11.4972C8.51982 10.3431 10.1567 9.65878 12.1381 9.51335L12.7364 9.46944L12.7364 12.5602V15.651L11.791 15.6572C10.7274 15.6644 10.0767 15.7741 9.28648 16.0796C8.06513 16.552 7.11629 17.3786 6.59969 18.4204C5.98286 19.6642 5.96921 19.8322 5.96921 26.1523V31.4297H3.11636H0.263506L0.26001 20.6846ZM40.8133 15.7316L40.8299 0.033671L43.6661 0.0168277L46.5024 0V15.7147V31.4294H43.6494H40.7964L40.8133 15.7316ZM125.121 20.6846V9.93966H127.974H130.828V20.6846V31.4295H127.974H125.121V20.6846ZM127.51 7.2921C126.267 7.13363 125.18 6.27684 124.71 5.08317C124.096 3.52767 124.87 1.64954 126.439 0.885885C127.04 0.593626 127.532 0.495119 128.204 0.533059C129.086 0.582893 129.841 0.922556 130.482 1.55794C131.132 2.20077 131.431 2.87886 131.475 3.8093C131.501 4.34756 131.483 4.48523 131.33 4.9317C130.774 6.54124 129.209 7.50859 127.51 7.2921Z" fill="#2C3E50"/>
</svg>
