<svg width="177" height="40" viewBox="0 0 177 40" fill="none" xmlns="http://www.w3.org/2000/svg">
<mask id="mask0_154_177" style="mask-type:luminance" maskUnits="userSpaceOnUse" x="0" y="0" width="177" height="40">
<path d="M3.05176e-05 0.465088H177V39.9302H3.05176e-05V0.465088Z" fill="white"/>
</mask>
<g mask="url(#mask0_154_177)">
<path d="M19.688 0.465088C15.794 0.465088 11.9876 1.6223 8.75036 3.79067C5.51009 5.96237 2.98678 9.04398 1.49895 12.6465C0.00952596 16.2534 -0.380332 20.2192 0.378257 24.0465C1.13682 27.871 3.01159 31.386 5.76651 34.1488C8.51614 36.9073 12.025 38.7872 15.8471 39.5497C19.6666 40.3116 23.6249 39.92 27.2217 38.4269C30.8225 36.9309 33.8977 34.4015 36.0577 31.159C38.2219 27.9113 39.3764 24.0973 39.376 20.1963C39.378 14.9665 37.3045 9.94911 33.6095 6.24276C31.784 4.41228 29.6145 2.95965 27.2256 1.96819C24.8366 0.976723 22.2751 0.465926 19.688 0.465088ZM23.773 28.9488C22.1734 30.5531 20.0281 31.4979 17.7631 31.5956C15.4981 31.6934 13.2791 30.9368 11.547 29.4762L15.0469 25.9693L24.3049 16.6902C25.7652 18.4308 26.5204 20.6539 26.4222 22.9224C26.3239 25.1909 25.3792 27.3406 23.7739 28.9488M24.3254 14.4353L15.0721 23.7097C13.6176 21.9675 12.866 19.7463 12.9642 17.4802C13.0624 15.2141 14.0033 13.066 15.6031 11.4558C17.2024 9.85167 19.3472 8.90649 21.6119 8.80776C23.8766 8.70902 26.0958 9.46395 27.8291 10.9228L24.3254 14.4353Z" fill="#2C3E50"/>
<path d="M49.9932 14.7693C49.9746 13.7796 50.2576 12.8077 50.8046 11.9823C51.3659 11.1587 52.1446 10.5064 53.0544 10.0977C54.1022 9.62583 55.2421 9.39321 56.3913 9.41672C57.4796 9.39005 58.5598 9.60948 59.5512 10.0586C60.4092 10.4544 61.1354 11.0879 61.6435 11.8837C62.1624 12.7302 62.44 13.7023 62.4447 14.6958H59.296C59.2958 14.3514 59.2209 14.0111 59.0763 13.6984C58.9317 13.3857 58.7209 13.1081 58.4585 12.8846C57.8529 12.4204 57.103 12.1879 56.3419 12.2288C55.5149 12.1864 54.6968 12.4168 54.0139 12.8846C53.7351 13.0891 53.511 13.359 53.3616 13.6706C53.2121 13.9821 53.1418 14.3256 53.1568 14.6707C53.1187 15.222 53.2956 15.7667 53.6506 16.1907C54.1164 16.6167 54.6921 16.9023 55.3135 17.0139L58.1436 17.6558C59.4353 17.8603 60.6356 18.4479 61.5886 19.3423C62.3742 20.2265 62.781 21.3832 62.7214 22.5637C62.75 23.592 62.4676 24.6051 61.9109 25.4707C61.3558 26.3353 60.5522 27.0123 59.6052 27.413C58.5134 27.8821 57.3337 28.1127 56.1454 28.0893C55.004 28.1139 53.8707 27.8918 52.8233 27.4381C51.9267 27.0494 51.155 26.421 50.5931 25.6223C50.0474 24.7944 49.7533 23.8265 49.7463 22.8353H52.8969C52.8934 23.1833 52.9727 23.5271 53.1283 23.8385C53.284 24.1498 53.5115 24.4198 53.7922 24.626C54.4937 25.0949 55.3284 25.3237 56.1696 25.2772C57.049 25.3237 57.9209 25.0958 58.6662 24.626C58.9552 24.4375 59.1916 24.1789 59.3532 23.8743C59.5148 23.5698 59.5964 23.2293 59.5903 22.8846C59.615 22.3476 59.4398 21.8204 59.0985 21.4046C58.6634 20.9793 58.1023 20.7059 57.4989 20.6251L54.6343 19.9497C53.3283 19.7255 52.1245 19.1013 51.1894 18.1637C50.3692 17.2274 49.9409 16.0121 49.9932 14.7693ZM67.7305 27.839H64.728V9.48742H67.7556V17.2372C68.1495 16.6322 68.6982 16.1434 69.3449 15.8214C70.0699 15.4464 70.8761 15.2551 71.6925 15.2642C73.183 15.2642 74.3201 15.7166 75.1039 16.6214C75.9291 17.6725 76.3436 18.9873 76.2703 20.3209V27.8186H73.2687V21.0558C73.2892 20.4718 73.1801 19.8904 72.9492 19.3535C72.7606 18.9429 72.4517 18.599 72.0632 18.3674C71.6585 18.1381 71.1991 18.0224 70.7339 18.0325C70.17 18.0176 69.613 18.1593 69.125 18.4418C68.6785 18.7063 68.3191 19.0953 68.091 19.5609C67.8442 20.0676 67.721 20.6255 67.7314 21.1888L67.7305 27.839ZM77.7682 21.6744C77.7439 20.5066 78.0327 19.3536 78.6048 18.3349C79.1508 17.3815 79.9521 16.5991 80.9188 16.0753C81.9557 15.541 83.1057 15.2622 84.2725 15.2622C85.4394 15.2622 86.5893 15.541 87.6262 16.0753C88.5859 16.6032 89.3814 17.385 89.9253 18.3349C90.4974 19.3536 90.7863 20.5066 90.7619 21.6744C90.7863 22.8421 90.4974 23.9952 89.9253 25.0139C89.376 25.9582 88.5754 26.732 87.6122 27.2493C86.5752 27.7838 85.4251 28.0627 84.2581 28.0627C83.091 28.0627 81.941 27.7838 80.9039 27.2493C79.9371 26.7253 79.1357 25.9425 78.5899 24.9888C78.0273 23.976 77.7438 22.8323 77.7682 21.6744ZM80.7707 21.6744C80.7549 22.3432 80.9077 23.0046 81.2132 23.5981C81.4973 24.1377 81.9231 24.5907 82.4438 24.906C82.9891 25.2338 83.6146 25.4045 84.2511 25.399C84.8915 25.4035 85.521 25.233 86.0714 24.906C86.5962 24.5938 87.0226 24.1406 87.302 23.5981C87.594 22.9873 87.7456 22.3191 87.7456 21.6423C87.7456 20.9655 87.594 20.2973 87.302 19.6865C87.0206 19.1496 86.5947 18.7018 86.0723 18.3935C85.5214 18.0661 84.8912 17.8956 84.2502 17.9004C83.6268 17.8917 83.0132 18.0553 82.4772 18.3731C81.9413 18.6909 81.5038 19.1507 81.2132 19.7014C80.8922 20.3085 80.733 20.988 80.7511 21.6744H80.7707ZM92.2189 33.4167V15.5842H94.995L95.1915 17.4335C95.5587 16.7222 96.1458 16.148 96.8656 15.7963C97.6342 15.4029 98.4874 15.2027 99.3511 15.213C100.415 15.1806 101.466 15.4548 102.378 16.0028C103.228 16.5456 103.91 17.3141 104.347 18.2223C104.846 19.2601 105.091 20.4016 105.061 21.5525C105.082 22.713 104.855 23.8647 104.396 24.9311C103.981 25.9053 103.278 26.7299 102.381 27.2949C101.485 27.8587 100.438 28.1356 99.3809 28.0883C98.5344 28.1032 97.6948 27.935 96.9196 27.5953C96.2295 27.2945 95.6439 26.7968 95.2363 26.1646V33.4167H92.2189ZM95.2465 21.6753C95.2307 22.341 95.3741 23.0008 95.6648 23.6C95.9301 24.1428 96.3425 24.6005 96.8554 24.9209C97.4091 25.2347 98.0348 25.3996 98.6715 25.3996C99.3081 25.3996 99.9339 25.2347 100.488 24.9209C100.994 24.6024 101.396 24.1433 101.645 23.6C101.905 22.9917 102.039 22.3372 102.039 21.6758C102.039 21.0144 101.905 20.3599 101.645 19.7516C101.395 19.2096 100.993 18.7519 100.488 18.4344C99.9405 18.0996 99.3088 17.9284 98.6673 17.9414C98.0316 17.9278 97.4045 18.09 96.8554 18.4102C96.3405 18.7221 95.9271 19.176 95.6648 19.7172C95.3723 20.3277 95.2289 20.9988 95.2465 21.6753ZM121.574 28.0902C119.975 28.1324 118.396 27.7367 117.006 26.946C115.718 26.176 114.676 25.0549 114.004 23.7144C113.259 22.1787 112.892 20.4873 112.935 18.7814C112.893 17.0728 113.268 15.3795 114.028 13.8483C114.725 12.49 115.798 11.36 117.119 10.5925C118.407 9.90009 119.836 9.50716 121.298 9.44305C122.759 9.37894 124.217 9.64532 125.561 10.2223C126.66 10.7242 127.622 11.4822 128.366 12.4325C129.12 13.4124 129.604 14.5725 129.769 15.7972H126.447C126.179 14.795 125.563 13.9206 124.709 13.3302C123.826 12.7813 122.811 12.4809 121.771 12.4609C120.731 12.4409 119.706 12.7021 118.802 13.2167C117.978 13.7425 117.324 14.497 116.922 15.3879C116.456 16.4433 116.229 17.5889 116.258 18.7423C116.234 19.8746 116.461 20.9982 116.922 22.0325C117.322 22.9314 117.975 23.6944 118.802 24.2279C119.656 24.7581 120.644 25.0279 121.647 25.0074C122.767 25.0396 123.869 24.7297 124.807 24.119C125.664 23.5591 126.29 22.7097 126.57 21.7265H129.843C129.634 22.9339 129.126 24.07 128.366 25.0316C127.597 25.9899 126.61 26.7511 125.486 27.2521C124.259 27.814 122.924 28.1001 121.574 28.0902ZM133.613 13.1423C133.372 13.1457 133.134 13.1008 132.911 13.0102C132.689 12.9196 132.487 12.7851 132.318 12.6149C132.148 12.4441 132.015 12.2415 131.924 12.0187C131.834 11.796 131.789 11.5575 131.791 11.3172C131.786 11.0786 131.83 10.8415 131.921 10.6207C132.011 10.3998 132.147 10.1999 132.318 10.0335C132.666 9.70192 133.129 9.51696 133.61 9.51696C134.091 9.51696 134.554 9.70192 134.902 10.0335C135.074 10.1994 135.21 10.3989 135.302 10.6196C135.393 10.8403 135.438 11.0774 135.434 11.3163C135.436 11.5559 135.39 11.7936 135.299 12.0155C135.209 12.2374 135.075 12.4391 134.905 12.6089C134.736 12.7787 134.534 12.9132 134.312 13.0046C134.091 13.096 133.853 13.1425 133.613 13.1414M132.136 27.7674V15.5842H135.139V27.7674H132.136ZM145.032 15.533V18.32H143.924C142.98 18.266 142.051 18.585 141.34 19.2083C140.713 19.7901 140.402 20.6732 140.405 21.8577V27.7767H137.402V15.6074H140.232L140.478 18.1228H140.183C140.325 17.3499 140.735 16.6515 141.34 16.1497C142.011 15.6195 142.849 15.347 143.703 15.3851C143.914 15.3851 144.126 15.3851 144.343 15.4093C144.576 15.4297 144.806 15.471 145.032 15.533ZM146.016 21.6744C145.993 20.5175 146.258 19.3731 146.788 18.3442C147.278 17.4022 148.019 16.6136 148.929 16.0651C149.882 15.4918 150.977 15.1963 152.09 15.2121C153.557 15.1531 154.998 15.6125 156.16 16.5097C156.685 16.9383 157.118 17.468 157.433 18.0674C157.749 18.6667 157.94 19.3233 157.996 19.9981H154.993C154.86 19.3771 154.511 18.823 154.009 18.4335C153.481 18.0634 152.847 17.8764 152.202 17.9014C151.615 17.8911 151.038 18.0502 150.539 18.36C150.048 18.6728 149.659 19.1223 149.422 19.653C149.143 20.2811 149.008 20.9635 149.027 21.6502C149.014 22.3262 149.139 22.9978 149.396 23.6232C149.616 24.1521 149.988 24.6038 150.465 24.9209C150.963 25.2311 151.542 25.3889 152.129 25.3749C152.797 25.3991 153.456 25.2087 154.009 24.8316C154.515 24.4505 154.865 23.8982 154.993 23.2781H158.02C157.913 24.1841 157.574 25.0473 157.035 25.7842C156.501 26.5031 155.796 27.0779 154.983 27.4567C154.09 27.8729 153.114 28.0803 152.129 28.0632C151.002 28.0896 149.888 27.8133 148.905 27.2632C147.993 26.7348 147.253 25.956 146.773 25.0195C146.259 23.9802 145.999 22.8336 146.016 21.6744ZM162.973 27.7693H159.995V9.41858H162.973V27.7693ZM171.093 28.0883C169.974 28.1085 168.871 27.8235 167.903 27.2642C166.983 26.7198 166.23 25.9333 165.728 24.9907C165.188 23.9703 164.917 22.8293 164.941 21.6753C164.914 20.5116 165.176 19.3594 165.703 18.3209C166.185 17.3749 166.926 16.5847 167.84 16.0418C168.792 15.479 169.883 15.192 170.989 15.213C172.099 15.1834 173.195 15.4526 174.164 15.9925C175.038 16.5007 175.747 17.2488 176.206 18.1479C176.715 19.174 176.965 20.3085 176.935 21.453V22.3656L166.5 22.3907L166.55 20.467H173.932C173.949 20.0924 173.887 19.7185 173.749 19.3699C173.61 19.0213 173.4 18.7059 173.13 18.4446C172.84 18.1823 172.5 17.9797 172.131 17.8485C171.762 17.7173 171.37 17.66 170.979 17.68C170.354 17.6585 169.735 17.8122 169.192 18.1237C168.694 18.4388 168.312 18.906 168.101 19.4558C167.837 20.1482 167.711 20.8854 167.731 21.626C167.731 22.9432 168.011 23.9349 168.578 24.6102C168.897 24.9543 169.289 25.2218 169.727 25.3927C170.164 25.5636 170.634 25.6335 171.102 25.5972C171.81 25.6158 172.51 25.4456 173.13 25.1042C173.385 24.9626 173.609 24.7719 173.789 24.5433C173.969 24.3146 174.101 24.0524 174.179 23.7721H176.96C176.739 25.0332 176.032 26.1576 174.991 26.9042C173.85 27.7027 172.485 28.1175 171.093 28.0883Z" fill="#2C3E50"/>
</g>
</svg>
