<svg width="94" height="40" viewBox="0 0 94 40" fill="none" xmlns="http://www.w3.org/2000/svg">
<path d="M7.41928 40H0.181976V0.0117188H7.41928V40ZM73.4447 20.0059C84.4623 20.006 93.4388 28.9824 93.4388 40H86.2132C86.2132 32.972 80.4959 27.2424 73.4564 27.2422C66.4166 27.2422 60.6986 32.9602 60.6986 40H53.4496C53.4496 28.9706 62.4269 20.0059 73.4447 20.0059ZM32.4583 0C43.4877 0 52.4525 8.96479 52.4525 19.9941C52.4525 31.0235 43.4877 39.9883 32.4583 39.9883C21.429 39.9883 12.4642 31.0235 12.4642 19.9941C12.4642 8.96479 21.429 7.5469e-07 32.4583 0ZM32.4583 7.23633C25.4302 7.23633 19.7005 12.9544 19.7005 19.9941C19.7005 27.0339 25.4186 32.752 32.4583 32.752C39.4981 32.752 45.2161 27.0339 45.2162 19.9941C45.2162 12.9544 39.4981 7.23633 32.4583 7.23633ZM60.722 0C60.7221 7.02799 66.4393 12.7567 73.4789 12.7568C80.5186 12.7568 86.2366 7.03968 86.2367 0H93.4847C93.4846 11.0293 84.5083 19.9941 73.4906 19.9941H73.4671C62.438 19.9939 53.4731 11.0175 53.473 0H60.722Z" fill="#2C3E50"/>
<path d="M7.41928 40H0.181976V0.0117188H7.41928V40ZM73.4447 20.0059C84.4623 20.006 93.4388 28.9824 93.4388 40H86.2132C86.2132 32.972 80.4959 27.2424 73.4564 27.2422C66.4166 27.2422 60.6986 32.9602 60.6986 40H53.4496C53.4496 28.9706 62.4269 20.0059 73.4447 20.0059ZM32.4583 0C43.4877 0 52.4525 8.96479 52.4525 19.9941C52.4525 31.0235 43.4877 39.9883 32.4583 39.9883C21.429 39.9883 12.4642 31.0235 12.4642 19.9941C12.4642 8.96479 21.429 7.5469e-07 32.4583 0ZM32.4583 7.23633C25.4302 7.23633 19.7005 12.9544 19.7005 19.9941C19.7005 27.0339 25.4186 32.752 32.4583 32.752C39.4981 32.752 45.2161 27.0339 45.2162 19.9941C45.2162 12.9544 39.4981 7.23633 32.4583 7.23633ZM60.722 0C60.7221 7.02799 66.4393 12.7567 73.4789 12.7568C80.5186 12.7568 86.2366 7.03968 86.2367 0H93.4847C93.4846 11.0293 84.5083 19.9941 73.4906 19.9941H73.4671C62.438 19.9939 53.4731 11.0175 53.473 0H60.722Z" fill="black" fill-opacity="0.2"/>
<path d="M7.41928 40H0.181976V0.0117188H7.41928V40ZM73.4447 20.0059C84.4623 20.006 93.4388 28.9824 93.4388 40H86.2132C86.2132 32.972 80.4959 27.2424 73.4564 27.2422C66.4166 27.2422 60.6986 32.9602 60.6986 40H53.4496C53.4496 28.9706 62.4269 20.0059 73.4447 20.0059ZM32.4583 0C43.4877 0 52.4525 8.96479 52.4525 19.9941C52.4525 31.0235 43.4877 39.9883 32.4583 39.9883C21.429 39.9883 12.4642 31.0235 12.4642 19.9941C12.4642 8.96479 21.429 7.5469e-07 32.4583 0ZM32.4583 7.23633C25.4302 7.23633 19.7005 12.9544 19.7005 19.9941C19.7005 27.0339 25.4186 32.752 32.4583 32.752C39.4981 32.752 45.2161 27.0339 45.2162 19.9941C45.2162 12.9544 39.4981 7.23633 32.4583 7.23633ZM60.722 0C60.7221 7.02799 66.4393 12.7567 73.4789 12.7568C80.5186 12.7568 86.2366 7.03968 86.2367 0H93.4847C93.4846 11.0293 84.5083 19.9941 73.4906 19.9941H73.4671C62.438 19.9939 53.4731 11.0175 53.473 0H60.722Z" fill="black" fill-opacity="0.2"/>
<path d="M7.41928 40H0.181976V0.0117188H7.41928V40ZM73.4447 20.0059C84.4623 20.006 93.4388 28.9824 93.4388 40H86.2132C86.2132 32.972 80.4959 27.2424 73.4564 27.2422C66.4166 27.2422 60.6986 32.9602 60.6986 40H53.4496C53.4496 28.9706 62.4269 20.0059 73.4447 20.0059ZM32.4583 0C43.4877 0 52.4525 8.96479 52.4525 19.9941C52.4525 31.0235 43.4877 39.9883 32.4583 39.9883C21.429 39.9883 12.4642 31.0235 12.4642 19.9941C12.4642 8.96479 21.429 7.5469e-07 32.4583 0ZM32.4583 7.23633C25.4302 7.23633 19.7005 12.9544 19.7005 19.9941C19.7005 27.0339 25.4186 32.752 32.4583 32.752C39.4981 32.752 45.2161 27.0339 45.2162 19.9941C45.2162 12.9544 39.4981 7.23633 32.4583 7.23633ZM60.722 0C60.7221 7.02799 66.4393 12.7567 73.4789 12.7568C80.5186 12.7568 86.2366 7.03968 86.2367 0H93.4847C93.4846 11.0293 84.5083 19.9941 73.4906 19.9941H73.4671C62.438 19.9939 53.4731 11.0175 53.473 0H60.722Z" fill="black" fill-opacity="0.2"/>
<path d="M7.41928 40H0.181976V0.0117188H7.41928V40ZM73.4447 20.0059C84.4623 20.006 93.4388 28.9824 93.4388 40H86.2132C86.2132 32.972 80.4959 27.2424 73.4564 27.2422C66.4166 27.2422 60.6986 32.9602 60.6986 40H53.4496C53.4496 28.9706 62.4269 20.0059 73.4447 20.0059ZM32.4583 0C43.4877 0 52.4525 8.96479 52.4525 19.9941C52.4525 31.0235 43.4877 39.9883 32.4583 39.9883C21.429 39.9883 12.4642 31.0235 12.4642 19.9941C12.4642 8.96479 21.429 7.5469e-07 32.4583 0ZM32.4583 7.23633C25.4302 7.23633 19.7005 12.9544 19.7005 19.9941C19.7005 27.0339 25.4186 32.752 32.4583 32.752C39.4981 32.752 45.2161 27.0339 45.2162 19.9941C45.2162 12.9544 39.4981 7.23633 32.4583 7.23633ZM60.722 0C60.7221 7.02799 66.4393 12.7567 73.4789 12.7568C80.5186 12.7568 86.2366 7.03968 86.2367 0H93.4847C93.4846 11.0293 84.5083 19.9941 73.4906 19.9941H73.4671C62.438 19.9939 53.4731 11.0175 53.473 0H60.722Z" fill="black" fill-opacity="0.2"/>
<path d="M7.41928 40H0.181976V0.0117188H7.41928V40ZM73.4447 20.0059C84.4623 20.006 93.4388 28.9824 93.4388 40H86.2132C86.2132 32.972 80.4959 27.2424 73.4564 27.2422C66.4166 27.2422 60.6986 32.9602 60.6986 40H53.4496C53.4496 28.9706 62.4269 20.0059 73.4447 20.0059ZM32.4583 0C43.4877 0 52.4525 8.96479 52.4525 19.9941C52.4525 31.0235 43.4877 39.9883 32.4583 39.9883C21.429 39.9883 12.4642 31.0235 12.4642 19.9941C12.4642 8.96479 21.429 7.5469e-07 32.4583 0ZM32.4583 7.23633C25.4302 7.23633 19.7005 12.9544 19.7005 19.9941C19.7005 27.0339 25.4186 32.752 32.4583 32.752C39.4981 32.752 45.2161 27.0339 45.2162 19.9941C45.2162 12.9544 39.4981 7.23633 32.4583 7.23633ZM60.722 0C60.7221 7.02799 66.4393 12.7567 73.4789 12.7568C80.5186 12.7568 86.2366 7.03968 86.2367 0H93.4847C93.4846 11.0293 84.5083 19.9941 73.4906 19.9941H73.4671C62.438 19.9939 53.4731 11.0175 53.473 0H60.722Z" fill="black" fill-opacity="0.2"/>
<path d="M7.41928 40H0.181976V0.0117188H7.41928V40ZM73.4447 20.0059C84.4623 20.006 93.4388 28.9824 93.4388 40H86.2132C86.2132 32.972 80.4959 27.2424 73.4564 27.2422C66.4166 27.2422 60.6986 32.9602 60.6986 40H53.4496C53.4496 28.9706 62.4269 20.0059 73.4447 20.0059ZM32.4583 0C43.4877 0 52.4525 8.96479 52.4525 19.9941C52.4525 31.0235 43.4877 39.9883 32.4583 39.9883C21.429 39.9883 12.4642 31.0235 12.4642 19.9941C12.4642 8.96479 21.429 7.5469e-07 32.4583 0ZM32.4583 7.23633C25.4302 7.23633 19.7005 12.9544 19.7005 19.9941C19.7005 27.0339 25.4186 32.752 32.4583 32.752C39.4981 32.752 45.2161 27.0339 45.2162 19.9941C45.2162 12.9544 39.4981 7.23633 32.4583 7.23633ZM60.722 0C60.7221 7.02799 66.4393 12.7567 73.4789 12.7568C80.5186 12.7568 86.2366 7.03968 86.2367 0H93.4847C93.4846 11.0293 84.5083 19.9941 73.4906 19.9941H73.4671C62.438 19.9939 53.4731 11.0175 53.473 0H60.722Z" fill="black" fill-opacity="0.2"/>
</svg>
