<svg width="122" height="40" viewBox="0 0 122 40" fill="none" xmlns="http://www.w3.org/2000/svg">
<path d="M0 9.86817H15.7266V12.7554H3.47874V20.2464H12.6208V22.9669H3.47874V33.3463H0V9.86817ZM17.2443 8.52212H20.6897V33.3438H17.2443V8.52212ZM23.2731 39.6283V36.9745C23.8642 37.1984 24.592 37.3108 25.4565 37.3116C26.2509 37.3116 26.8766 37.1157 27.3335 36.7238C27.788 36.3319 28.1971 35.6996 28.561 34.827L29.3452 32.9462L23.9721 20.7527C26.1171 20.7527 28.0485 22.0308 28.8574 23.9881L31.1877 29.6206L34.9418 20.4649C35.7445 18.5076 37.6747 17.2258 39.8172 17.2258L32.4498 35.1641C31.7681 36.8436 30.9551 38.0694 30.0108 38.8417C29.0673 39.6139 27.8448 40 26.3431 40C25.1164 40 24.0931 39.8753 23.2731 39.6283ZM42.0265 9.86817H51.6131C54.1595 9.86817 56.1152 10.4729 57.4802 11.6823C58.8452 12.8908 59.5277 14.6596 59.5277 16.9887C59.5277 18.7134 59.0613 20.1747 58.1285 21.3726C57.1965 22.5705 55.8777 23.3814 54.1718 23.8054L59.4252 33.3463H55.8081L50.7252 24.0758H45.5052V33.3463H42.0265V9.86817ZM51.0315 21.1861C52.5545 21.1861 53.7656 20.8338 54.6646 20.129C55.5619 19.4227 56.011 18.3759 56.0119 16.9887C56.0119 15.4656 55.5747 14.3797 54.7004 13.731C53.8236 13.0806 52.601 12.7554 51.0327 12.7554H45.5077V21.1861H51.0315ZM62.5198 32.3559C61.3261 31.3597 60.7292 30.0104 60.7292 28.3079C60.7292 26.5164 61.3035 25.1333 62.4519 24.1586C63.5996 23.1855 65.2313 22.6985 67.3471 22.6977C69.5979 22.6977 71.5079 23.1455 73.0771 24.0412V23.2015C73.0771 21.9254 72.6852 20.9791 71.9015 20.3624C71.1169 19.7466 69.8832 19.4387 68.2004 19.4387C67.2001 19.4387 66.2279 19.5342 65.2836 19.7252C64.4101 19.8935 63.5581 20.1586 62.7434 20.5156V17.7617C63.425 17.4464 64.3117 17.1941 65.4034 17.0047C66.495 16.8137 67.5529 16.7182 68.5771 16.7182C71.2824 16.7182 73.2895 17.306 74.5985 18.4817C75.9059 19.6573 76.56 21.2866 76.5608 23.3695V33.3438H73.3191V31.5297C72.6224 32.2851 71.766 32.8758 70.8123 33.2586C69.8466 33.6513 68.6697 33.8473 67.2817 33.8464C65.3033 33.8464 63.7173 33.3484 62.5235 32.3522L62.5198 32.3559ZM71.0975 30.6258C71.985 30.201 72.6445 29.6074 73.0759 28.8451V26.663C71.5981 25.7228 69.9499 25.2523 68.1313 25.2515C66.8116 25.2515 65.8278 25.5038 65.1798 26.0085C64.5319 26.5131 64.208 27.28 64.208 28.3091C64.208 30.28 65.5157 31.2655 68.1313 31.2655C69.2229 31.2655 70.2125 31.0527 71.1 30.627L71.0975 30.6258ZM78.9182 17.2233H82.2611V19.5412C83.0112 18.5968 83.9926 17.8622 85.1101 17.4085C86.2309 16.9497 87.4308 16.7152 88.6419 16.7182C90.8236 16.7182 92.4491 17.2896 93.5186 18.4323C94.588 19.575 95.1227 21.1087 95.1227 23.0336V33.3451H91.6773V23.3707C91.6781 20.751 90.4045 19.4412 87.8565 19.4412C86.7648 19.4412 85.7473 19.6931 84.8038 20.197C83.8603 20.7025 83.0473 21.4693 82.3649 22.4976V33.3475H78.9195V17.2245M97.4839 8.52212H100.929V33.3438H97.4839V8.52212ZM100.964 25.1835L108.503 17.2233H112.698L105.127 25.1835L113.485 33.3463H109.288L100.964 25.1835ZM112.203 0H114.026L118.16 10.3584H116.248L115.3 7.97259H110.914L109.98 10.3584H108.053L112.203 0ZM114.781 6.4166L113.107 2.01537L111.432 6.4166H114.781ZM119.638 0H121.52V10.3584H119.637L119.638 0Z" fill="#262626"/>
</svg>
