<svg width="61" height="32" viewBox="0 0 61 32" fill="none" xmlns="http://www.w3.org/2000/svg">
<g clip-path="url(#clip0_1012_1642)">
<path d="M31.6851 19.9379V12.1491H34.0965V12.6867H32.2792V19.4003H34.0965V19.9379H31.6851Z" fill="black" fill-opacity="0.5"/>
<path d="M33.8804 18.3072V13.8317H34.5698V14.5606H34.6042C34.6499 14.4506 34.7073 14.3465 34.7764 14.2483C34.8454 14.1438 34.9286 14.0542 35.0261 13.9795C35.1299 13.9044 35.2506 13.8436 35.3883 13.7971C35.5259 13.7506 35.6865 13.7276 35.8699 13.728C36.3355 13.728 36.7087 13.8782 36.9895 14.1786C37.2708 14.4734 37.4114 14.8926 37.4114 15.4362V18.3072H36.7226V15.5578C36.7226 15.1473 36.6337 14.8437 36.4558 14.647C36.2778 14.4448 36.0167 14.3437 35.6723 14.3437C35.5342 14.3437 35.3993 14.361 35.2675 14.3955C35.1418 14.427 35.0224 14.4799 34.9142 14.5517C34.8114 14.6205 34.7259 14.7125 34.6645 14.8205C34.601 14.9301 34.5694 15.0575 34.5698 15.2026V18.3072H33.8804Z" fill="black" fill-opacity="0.5"/>
<path d="M39.5147 12.1491V19.9379H37.1032V19.4003H38.9205V12.6867H37.1032V12.1491H39.5147Z" fill="black" fill-opacity="0.5"/>
<path d="M0 20.2048V19.776C0.641771 19.7461 1.18653 19.5733 1.63429 19.2576C2.08205 18.9568 2.41797 18.4457 2.64206 17.7242C2.86573 17.0031 2.97756 16.0183 2.97756 14.7699V2.3904C2.97756 1.83403 2.93287 1.42805 2.84349 1.17248C2.76851 0.901547 2.60436 0.72128 2.35104 0.63168C2.09688 0.526293 1.71626 0.466133 1.2092 0.4512V0C1.55232 0.0149333 1.99245 0.0298667 2.52959 0.0448C3.06758 0.06016 3.6348 0.06784 4.23124 0.06784C4.81328 0.06784 5.3805 0.06016 5.93289 0.0448C6.49968 0.0298667 6.96247 0.0149333 7.32127 0V0.4512C6.82819 0.465707 6.45499 0.525867 6.20167 0.63168C5.9475 0.72128 5.77594 0.901547 5.68698 1.17248C5.59717 1.42848 5.55227 1.83445 5.55227 2.3904V10.6432C5.55227 11.2597 5.54486 11.9285 5.53003 12.6496C5.53003 13.3715 5.50017 14.0706 5.44044 14.7469C5.39596 15.4231 5.30636 16.0171 5.17166 16.5286C4.90309 17.5808 4.32846 18.4527 3.44777 19.1443C2.58233 19.8513 1.43308 20.2048 0 20.2048ZM10.7773 16.1229C10.1504 16.1229 9.61301 16.0028 9.16525 15.7626C8.71749 15.5219 8.38178 15.1913 8.15811 14.7706C7.9336 14.3494 7.82156 13.8682 7.82198 13.3267C7.82198 12.6654 7.9713 12.1318 8.26995 11.7261C8.56862 11.3044 8.95922 10.9571 9.41179 10.711C9.8892 10.455 10.3891 10.2447 10.9114 10.08C11.4489 9.89952 11.949 9.73419 12.4116 9.584C12.8894 9.41803 13.2775 9.23008 13.5757 9.02016C13.8891 8.80896 14.0459 8.53077 14.0459 8.1856V6.65216C14.0459 6.11072 13.9565 5.68235 13.7777 5.36704C13.6134 5.03637 13.3819 4.8032 13.0832 4.66752C12.7998 4.53269 12.4567 4.46507 12.0539 4.46464C11.7107 4.46464 11.3449 4.51733 10.9565 4.62272C10.5689 4.71275 10.2628 4.90048 10.0383 5.18592C10.367 5.2768 10.6358 5.45728 10.8447 5.72736C11.0683 5.98336 11.1802 6.30677 11.1802 6.6976C11.1802 7.11829 11.0382 7.44896 10.7544 7.6896C10.4863 7.93024 10.1432 8.05056 9.72505 8.05056C9.26247 8.05056 8.91934 7.90763 8.69568 7.62176C8.47226 7.3234 8.35378 6.95863 8.35891 6.58496C8.35891 6.17835 8.45613 5.84768 8.65056 5.59296C8.85983 5.33696 9.1284 5.09632 9.45627 4.87104C9.81465 4.6304 10.27 4.42731 10.8224 4.26176C11.3892 4.09664 12.0162 4.01408 12.7033 4.01408C13.3446 4.01408 13.8968 4.08917 14.3598 4.23936C14.8372 4.37461 15.2326 4.60011 15.5461 4.91584C15.9189 5.26144 16.1652 5.69749 16.2851 6.224C16.4046 6.73472 16.4643 7.35851 16.4643 8.09536V14.3194C16.4643 14.6948 16.509 14.9653 16.5984 15.1309C16.7026 15.2811 16.8667 15.3562 17.0908 15.3562C17.2399 15.3562 17.3818 15.3186 17.5165 15.2435C17.6656 15.1689 17.8372 15.0562 18.0312 14.9056L18.2549 15.289C17.9414 15.545 17.6205 15.7478 17.2922 15.8976C16.9788 16.0478 16.5759 16.1229 16.0837 16.1229C15.6058 16.1229 15.2178 16.0478 14.9196 15.8976C14.6315 15.758 14.3958 15.5287 14.2473 15.2435C14.113 14.9581 14.0459 14.6048 14.0459 14.1837C13.6579 14.8151 13.1953 15.2962 12.6581 15.6269C12.121 15.9575 11.4941 16.1229 10.7773 16.1229ZM11.8518 15.0413C12.2699 15.0413 12.6579 14.921 13.0159 14.6803C13.3895 14.4397 13.7328 14.0787 14.0459 13.5974V9.1104C13.8819 9.35061 13.6432 9.56096 13.3298 9.74144C13.0163 9.90741 12.6804 10.0802 12.322 10.2598C11.9636 10.4403 11.6205 10.6509 11.2926 10.8915C10.9724 11.1255 10.7052 11.4252 10.5085 11.7709C10.2997 12.1318 10.1953 12.5905 10.1953 13.1469C10.1953 13.7331 10.3446 14.199 10.6432 14.5446C10.9419 14.8753 11.3447 15.0413 11.8518 15.0413ZM23.5587 4.01408C24.4093 4.01408 25.1108 4.17941 25.6632 4.51008C26.2152 4.84117 26.6555 5.39733 26.9842 6.17856L26.5808 6.04352C26.313 5.51744 25.9475 5.13408 25.484 4.89344C25.0358 4.6528 24.5284 4.53248 23.9616 4.53248C23.1258 4.53248 22.4766 4.99115 22.014 5.90848C21.551 6.82496 21.3195 8.23787 21.3195 10.1472C21.3195 11.3803 21.4241 12.3951 21.6334 13.1917C21.8571 13.9887 22.1779 14.5749 22.5961 14.9504C23.0137 15.3267 23.5136 15.5147 24.0956 15.5142C24.6777 15.5142 25.2076 15.2363 25.6854 14.6803C26.1781 14.1235 26.4543 13.3193 26.514 12.2675L26.7377 12.7411C26.5882 13.8684 26.2076 14.7401 25.5959 15.3562C24.9837 15.9727 24.2299 16.281 23.3344 16.281C22.4838 16.281 21.7077 16.0629 21.0062 15.6269C20.32 15.1763 19.7678 14.5001 19.3497 13.5981C18.9464 12.6807 18.7448 11.5305 18.7448 10.1472C18.7448 8.77973 18.9538 7.6448 19.3719 6.7424C19.7901 5.82507 20.3647 5.14112 21.0958 4.69056C21.827 4.24 22.6479 4.01451 23.5587 4.01408ZM28.5957 3.96928L28.9769 4.14912C28.9145 4.35549 28.8694 4.5668 28.8422 4.7808C28.8274 4.99157 28.82 5.20939 28.82 5.43424V18.1299C28.82 18.6867 28.9244 19.0626 29.1332 19.2576C29.3573 19.4679 29.7305 19.5731 30.2528 19.5731V20.0467C29.9987 20.0322 29.6329 20.0098 29.1555 19.9795C28.6706 19.964 28.1855 19.9563 27.7004 19.9565C27.0141 19.9565 26.3575 19.9642 25.7306 19.9795C25.1184 20.0094 24.6406 20.0318 24.2971 20.0467V19.5731C24.9537 19.5731 25.4688 19.4605 25.8424 19.2352C26.2152 19.0091 26.4016 18.5653 26.4016 17.904V5.54816C26.6736 5.42601 26.9358 5.28264 27.1857 5.11936C27.4394 4.95424 27.6855 4.77397 27.924 4.57856C28.1782 4.38272 28.4021 4.17963 28.5957 3.96928ZM40.1253 32V31.5712C40.7671 31.5413 41.3118 31.3685 41.7596 31.0528C42.2069 30.752 42.5426 30.2409 42.7667 29.5194C42.9908 28.7974 43.1029 27.8127 43.1029 26.5651V14.1856C43.1029 13.6288 43.058 13.2228 42.9681 12.9677C42.8936 12.6972 42.7294 12.5167 42.4757 12.4262C42.2215 12.3213 41.8409 12.2611 41.3339 12.2458V11.7952C41.677 11.8101 42.1173 11.8251 42.6549 11.84C43.7891 11.8709 44.924 11.8709 46.0582 11.84C46.625 11.8251 47.0876 11.8101 47.4459 11.7952V12.2458C46.9537 12.2611 46.5805 12.3213 46.3263 12.4262C46.0722 12.5167 45.9006 12.6972 45.8116 12.9677C45.7218 13.2237 45.6769 13.6297 45.6769 14.1856V22.4384C45.6769 23.0549 45.6695 23.7239 45.6547 24.4454C45.6547 25.1674 45.625 25.8665 45.5657 26.5427C45.5208 27.2194 45.4312 27.8131 45.297 28.3238C45.028 29.3764 44.4531 30.2485 43.5724 30.9402C42.707 31.6467 41.5575 32 40.1253 32ZM51.3639 10.4422C51.8261 10.4422 52.2141 10.5924 52.528 10.8928C52.8415 11.1787 52.9982 11.5396 52.9982 11.9757C52.9982 12.4109 52.8415 12.7791 52.528 13.0803C52.2145 13.3662 51.8265 13.5091 51.3639 13.5091C50.9005 13.5091 50.5122 13.3662 50.1992 13.0803C50.0481 12.9399 49.9281 12.7689 49.847 12.5785C49.766 12.3882 49.7258 12.1828 49.729 11.9757C49.729 11.5396 49.8857 11.1787 50.1992 10.8928C50.5127 10.5924 50.9009 10.4422 51.3639 10.4422ZM52.7072 15.8765V25.664C52.7072 26.2955 52.8264 26.7238 53.0649 26.9491C53.3191 27.1748 53.737 27.2877 54.3186 27.2877V27.7613C54.0653 27.7459 53.6698 27.731 53.1323 27.7165C52.5955 27.6861 52.0579 27.6709 51.5202 27.671C50.9979 27.671 50.4606 27.686 49.9082 27.7158C49.3562 27.7312 48.9457 27.7461 48.6767 27.7606V27.287C49.2588 27.287 49.6693 27.1744 49.9082 26.9491C50.1623 26.7238 50.2894 26.2955 50.2894 25.664V18.5824C50.2894 17.9061 50.1772 17.4101 49.9526 17.0944C49.729 16.7637 49.3037 16.5984 48.6767 16.5984V16.1248C49.1546 16.1696 49.6174 16.192 50.0651 16.192C50.5726 16.192 51.0428 16.1696 51.4757 16.1248C51.9231 16.0651 52.3336 15.9823 52.7072 15.8765ZM59.2844 10.0813V25.6634C59.2844 26.2948 59.4038 26.7232 59.6427 26.9485C59.8969 27.1742 60.3148 27.287 60.8964 27.287V27.7606C60.6431 27.7453 60.2477 27.7303 59.7101 27.7158C58.6288 27.6553 57.545 27.6553 56.4638 27.7158C55.9262 27.7303 55.5231 27.7453 55.2546 27.7606V27.287C55.8366 27.287 56.2471 27.1742 56.486 26.9485C56.7402 26.7232 56.8673 26.2948 56.8673 25.6634V12.7872C56.8673 12.1105 56.755 11.6145 56.5305 11.2992C56.3068 10.9681 55.8815 10.8026 55.2546 10.8026V10.329C55.7324 10.3742 56.1952 10.3968 56.6429 10.3968C57.1352 10.3968 57.6054 10.3744 58.0536 10.3296C58.5009 10.269 58.9108 10.1862 59.2844 10.0813Z" fill="#262626"/>
</g>
<defs>
<clipPath id="clip0_1012_1642">
<rect width="61" height="32" fill="white"/>
</clipPath>
</defs>
</svg>
