<svg width="136" height="32" viewBox="0 0 136 32" fill="none" xmlns="http://www.w3.org/2000/svg">
<g clip-path="url(#clip0_1012_1618)">
<path d="M5.72166 22.3671V31.9999H0V1.79604H5.72166V18.9793" fill="#262626"/>
<path d="M20.5099 9.38819H13.1711L2.23536 20.694L5.72347 24.2991L5.90477 24.4874L13.1711 31.9999H20.5099L9.57417 20.694L20.5099 9.38819Z" fill="#262626"/>
<path d="M31.3078 9.38819H23.969L13.0333 20.694L16.5214 24.2991L16.7027 24.4874L23.969 31.9999H31.3078L20.3721 20.694L31.3078 9.38819Z" fill="#262626"/>
<path d="M61.4208 11.6117C63.0815 13.3119 63.9136 15.6875 63.9136 18.7349V31.9999H58.192V19.5098C58.192 17.7137 57.7424 16.3339 56.8431 15.367C55.9439 14.4019 54.7184 13.9185 53.1647 13.9185C51.611 13.9185 50.3383 14.4019 49.4245 15.367C48.5108 16.3339 48.0558 17.7137 48.0558 19.5098V31.9999H42.3341V9.38819H48.0558V12.2038C48.819 11.2242 49.7926 10.4565 50.9782 9.89699C52.1639 9.3393 53.4638 9.06046 54.8815 9.06046C57.5792 9.06046 59.7583 9.91147 61.4208 11.6117Z" fill="#262626"/>
<path d="M72.177 22.0412C72.313 23.6744 72.8859 24.9527 73.8939 25.878C74.9019 26.8032 76.142 27.265 77.6123 27.265C79.737 27.265 81.249 26.3542 82.1482 24.5308H88.3195C87.665 26.7073 86.4123 28.4962 84.5595 29.8977C82.7066 31.2991 80.4314 31.9999 77.7337 31.9999C75.5546 31.9999 73.5984 31.5164 71.8688 30.5513C70.1393 29.5862 68.7905 28.2192 67.8223 26.4501C66.8542 24.6811 66.372 22.6405 66.372 20.3283C66.372 18.016 66.8488 15.9338 67.8024 14.1647C68.756 12.3957 70.0903 11.0359 71.8072 10.0835C73.524 9.13107 75.4984 8.65487 77.7337 8.65487C79.9691 8.65487 81.8128 9.1184 83.517 10.0418C85.2194 10.9671 86.541 12.2798 87.4819 13.9801C88.421 15.6803 88.8924 17.6322 88.8924 19.8376C88.8924 20.6542 88.838 21.3893 88.7292 22.0412H72.177ZM82.9659 18.2044C82.9387 16.7341 82.4075 15.559 81.3723 14.6735C80.3371 13.7899 79.0699 13.3463 77.5724 13.3463C76.1546 13.3463 74.9635 13.7754 73.9972 14.6319C73.0291 15.4883 72.4381 16.6798 72.2187 18.2025H82.9677L82.9659 18.2044Z" fill="#262626"/>
<path d="M115.566 14.1828C116.52 12.4283 117.842 11.0667 119.531 10.1016C121.221 9.13651 123.153 8.65306 125.334 8.65306C128.141 8.65306 130.463 9.35379 132.302 10.7552C134.14 12.1567 135.373 14.1231 136 16.6526H129.829C129.502 15.673 128.949 14.9053 128.174 14.3458C127.398 13.7881 126.437 13.5093 125.293 13.5093C123.657 13.5093 122.363 14.1014 121.409 15.2855C120.456 16.4697 119.979 18.15 119.979 20.3265C119.979 22.5029 120.456 24.1434 121.409 25.3257C122.363 26.5099 123.657 27.102 125.293 27.102C127.608 27.102 129.12 26.0681 129.829 24.0003H136C135.373 26.4483 134.133 28.3948 132.282 29.8361C130.429 31.2792 128.114 31.9999 125.334 31.9999C123.155 31.9999 121.221 31.5164 119.531 30.5513C117.842 29.5862 116.52 28.2246 115.566 26.4701C114.613 24.7155 114.136 22.6677 114.136 20.3265C114.136 17.9853 114.613 15.9392 115.566 14.1828Z" fill="#262626"/>
<path d="M98.724 14.0815V25.0197C98.724 25.782 98.9071 26.3325 99.2751 26.6729C99.6432 27.0133 100.263 27.1835 101.135 27.1835H103.791V31.9999H100.194C95.3719 31.9999 92.9606 29.6605 92.9606 24.9799V14.0815H90.263V9.38819H92.9606V3.79684H98.7222V9.38819H103.789V14.0815H98.7222H98.724Z" fill="#262626"/>
<path d="M106.696 5.73425C106.028 5.09509 105.695 4.3002 105.695 3.34598C105.695 2.39175 106.028 1.59868 106.696 0.957703C107.363 0.318536 108.2 -0.00195312 109.208 -0.00195312C110.216 -0.00195312 111.054 0.318536 111.721 0.957703C112.388 1.59687 112.722 2.39357 112.722 3.34598C112.722 4.29839 112.388 5.09509 111.721 5.73425C111.054 6.37342 110.214 6.69391 109.208 6.69391C108.202 6.69391 107.363 6.37523 106.696 5.73425ZM112.029 9.38819V31.9999H106.308V9.38819H112.029Z" fill="#262626"/>
<path d="M34.3082 5.73425C33.641 5.09509 33.3075 4.3002 33.3075 3.34598C33.3075 2.39175 33.641 1.59868 34.3082 0.957703C34.9754 0.318536 35.813 -0.00195312 36.8209 -0.00195312C37.8289 -0.00195312 38.6665 0.318536 39.3337 0.957703C40.0009 1.59687 40.3344 2.39357 40.3344 3.34598C40.3344 4.29839 40.0009 5.09509 39.3337 5.73425C38.6665 6.37342 37.8271 6.69391 36.8209 6.69391C35.8148 6.69391 34.9754 6.37523 34.3082 5.73425ZM39.6419 9.38819V31.9999H33.9202V9.38819H39.6419Z" fill="#262626"/>
</g>
<defs>
<clipPath id="clip0_1012_1618">
<rect width="136" height="32" fill="white"/>
</clipPath>
</defs>
</svg>
