<svg width="231" height="26" viewBox="0 0 231 26" fill="none" xmlns="http://www.w3.org/2000/svg">
<path d="M203.275 11.6787C203.275 7.45898 206.227 4.2868 210.418 4.2868C214.45 4.2868 217.071 7.3557 217.071 11.1476C217.071 11.5902 217.042 12.0476 216.956 12.505H206.227C206.357 14.6296 208.128 16.2968 210.519 16.2968C212.247 16.2968 213.629 15.5443 214.666 13.8771L216.768 15.4411C215.487 17.8018 212.967 19.0411 210.519 19.0411C206.343 19.0411 203.275 15.8837 203.275 11.6787ZM206.299 10.3213H214.176C214.004 8.32948 212.376 6.92782 210.389 6.92782C208.272 6.92782 206.659 8.32948 206.299 10.3213Z" fill="#2C3E50"/>
<path d="M195.78 19.0411C191.589 19.0411 188.45 15.7804 188.45 11.6492C188.45 7.50324 191.719 4.2868 195.895 4.2868C198.617 4.2868 200.892 5.74748 202.188 8.16719L199.985 9.70164C199.121 8.06391 197.565 7.03111 195.837 7.03111C193.173 7.03111 191.33 9.05245 191.33 11.6492C191.33 14.2607 193.217 16.2968 195.78 16.2968C197.58 16.2968 199.077 15.323 200.028 13.641L202.174 15.1902C200.906 17.5214 198.573 19.0411 195.78 19.0411Z" fill="#2C3E50"/>
<path d="M182.682 18.746H179.816V4.58189H182.682V6.5147C183.459 4.9655 184.77 4.2868 186.282 4.2868C187.362 4.2868 188.182 4.64091 188.182 4.64091L187.88 7.32619C187.722 7.26717 187.102 7.0016 186.195 7.0016C184.669 7.0016 182.682 7.82784 182.682 11.0295V18.746Z" fill="#2C3E50"/>
<path d="M163.506 11.6787C163.506 7.45898 166.458 4.2868 170.649 4.2868C174.681 4.2868 177.302 7.3557 177.302 11.1476C177.302 11.5902 177.273 12.0476 177.187 12.505H166.458C166.588 14.6296 168.359 16.2968 170.75 16.2968C172.478 16.2968 173.86 15.5443 174.897 13.8771L177 15.4411C175.718 17.8018 173.198 19.0411 170.75 19.0411C166.574 19.0411 163.506 15.8837 163.506 11.6787ZM166.531 10.3213H174.407C174.235 8.32948 172.607 6.92782 170.62 6.92782C168.503 6.92782 166.891 8.32948 166.531 10.3213Z" fill="#2C3E50"/>
<path d="M138.614 18.746V4.58189H141.48V6.36716C141.926 5.6442 143.237 4.2868 145.671 4.2868C148.047 4.2868 149.717 5.2901 150.596 6.92782C151.431 5.54092 153.159 4.2868 155.535 4.2868C159.221 4.2868 161.209 6.70651 161.209 10.1443V18.746H158.343V10.7639C158.343 8.41801 157.119 7.06061 155.088 7.06061C153.072 7.06061 151.416 8.35899 151.344 10.5869V18.746H148.479V10.7639C148.479 8.41801 147.255 7.06061 145.224 7.06061C143.165 7.06061 141.48 8.41801 141.48 10.7639V18.746H138.614Z" fill="#2C3E50"/>
<path d="M112.715 18.746V4.58189H115.581V6.36716C116.027 5.6442 117.338 4.2868 119.771 4.2868C122.147 4.2868 123.818 5.2901 124.696 6.92782C125.531 5.54092 127.259 4.2868 129.635 4.2868C133.322 4.2868 135.309 6.70651 135.309 10.1443V18.746H132.444V10.7639C132.444 8.41801 131.22 7.06061 129.189 7.06061C127.173 7.06061 125.517 8.35899 125.445 10.5869V18.746H122.579V10.7639C122.579 8.41801 121.355 7.06061 119.325 7.06061C117.266 7.06061 115.581 8.41801 115.581 10.7639V18.746H112.715Z" fill="#2C3E50"/>
<path d="M102.9 19.0411C98.6953 19.0411 95.556 15.8099 95.556 11.664C95.556 7.518 98.6953 4.2868 102.9 4.2868C107.105 4.2868 110.244 7.518 110.244 11.664C110.244 15.8099 107.105 19.0411 102.9 19.0411ZM98.4073 11.664C98.4073 14.2755 100.294 16.2968 102.9 16.2968C105.507 16.2968 107.393 14.2755 107.393 11.664C107.393 9.05245 105.507 7.03111 102.9 7.03111C100.294 7.03111 98.4073 9.05245 98.4073 11.664Z" fill="#2C3E50"/>
<path d="M88.0746 19.0411C83.8841 19.0411 80.7449 15.7804 80.7449 11.6492C80.7449 7.50324 84.0137 4.2868 88.1898 4.2868C90.9115 4.2868 93.1867 5.74748 94.4828 8.16719L92.2795 9.70164C91.4155 8.06391 89.8603 7.03111 88.1322 7.03111C85.4682 7.03111 83.6249 9.05245 83.6249 11.6492C83.6249 14.2607 85.5114 16.2968 88.0746 16.2968C89.8747 16.2968 91.3723 15.323 92.3227 13.641L94.4684 15.1902C93.2011 17.5214 90.8683 19.0411 88.0746 19.0411Z" fill="#2C3E50"/>
<path d="M70.9873 18.746V4.58189H74.5586L74.6306 6.5147C75.3362 5.03927 76.6754 4.2868 78.2306 4.2868C79.0515 4.2868 79.7427 4.50812 80.0307 4.6114L79.7427 7.99014C79.3683 7.85735 78.7635 7.66554 78.029 7.66554C76.4018 7.66554 74.6882 8.56555 74.6882 11.4869V18.746H70.9873Z" fill="#2C3E50"/>
<path d="M62.1382 19.0559C57.7029 19.0559 54.8516 15.7804 54.8516 11.6492C54.866 7.32619 57.8613 4.2868 61.9654 4.2868C65.7671 4.2868 68.6615 6.89832 68.6615 11.1918C68.6615 11.7082 68.6183 12.2394 68.5319 12.8H58.5381C58.8117 14.4673 60.4677 15.6329 62.2246 15.6329C63.5926 15.6329 64.7734 14.9837 65.6663 13.641L68.2871 15.6476C66.9911 17.8608 64.5718 19.0559 62.1382 19.0559ZM58.5957 10.2623H65.2198C65.0326 8.68359 63.7654 7.47373 62.0086 7.47373C60.1797 7.47373 58.7973 8.65408 58.5957 10.2623Z" fill="#2C3E50"/>
<path d="M36.0656 18.7461L31.9903 4.58195H35.8064L38.5281 14.8952L41.4945 4.80326H44.7778L47.7299 14.8952L50.4659 4.58195H54.282L50.2067 18.7461H45.613L43.1362 10.1591L40.6593 18.7461H36.0656Z" fill="#2C3E50"/>
<path d="M24.0472 19.0411C19.8135 19.0411 16.6599 15.8542 16.6599 11.664C16.6599 7.48849 19.8135 4.2868 24.0472 4.2868C28.2953 4.2868 31.4346 7.48849 31.4346 11.664C31.4346 15.8542 28.2953 19.0411 24.0472 19.0411ZM20.3319 11.664C20.3319 13.9361 21.8872 15.6181 24.0472 15.6181C26.2217 15.6181 27.7625 13.9361 27.7625 11.664C27.7625 9.40655 26.2217 7.72456 24.0472 7.72456C21.8872 7.72456 20.3319 9.40655 20.3319 11.664Z" fill="#2C3E50"/>
<path fill-rule="evenodd" clip-rule="evenodd" d="M4.23637 17.5629C5.41313 18.3397 6.77261 18.7466 8.20656 18.7466C10.179 18.7466 12.0106 17.9767 13.4195 16.5332C14.8284 15.0896 15.5798 13.213 15.5798 11.1921C15.5798 9.17114 14.8284 7.29456 13.4195 5.85103C12.0106 4.40751 10.179 3.63764 8.20656 3.63764C6.77261 3.63764 5.41313 4.04452 4.23637 4.82132V3.63764H0.833344V25.7199L4.23637 17.8652V17.5629ZM4.23637 11.945C4.5883 13.8554 6.24979 15.3302 8.20656 15.3302C10.4138 15.3302 12.2454 13.4536 12.2454 11.1921C12.2454 8.93055 10.4138 7.05397 8.20656 7.05397C6.21125 7.05397 4.5839 8.5242 4.23637 10.4303V11.945Z" fill="#2C3E50"/>
<path d="M225.831 5.02419V0.280273H226.568L228.332 3.89235L230.096 0.280273H230.833V5.02419H230.257V1.21299L228.542 4.67486H228.123L226.407 1.21299V5.02419H225.831Z" fill="#2C3E50"/>
<path d="M221.311 0.818243V0.280273H225.059V0.818243H223.473V5.02419H222.897V0.818243H221.311Z" fill="#2C3E50"/>
</svg>
