<svg width="175" height="30" viewBox="0 0 175 30" fill="none" xmlns="http://www.w3.org/2000/svg">
<path d="M71.9383 20.6792H76.6562V21.5454H72.9819V23.7927H75.7244V24.6088H72.9819V27.7226H71.9383V20.6792ZM77.1115 20.2754H78.1451V27.7219H77.1115V20.2754ZM78.9201 29.6072V28.8111C79.0974 28.8783 79.3157 28.912 79.5751 28.9122C79.8134 28.9122 80.0011 28.8534 80.1382 28.7359C80.2745 28.6183 80.3972 28.4286 80.5064 28.1668L80.7416 27.6026L79.1298 23.9446C79.7733 23.9446 80.3527 24.328 80.5953 24.9152L81.2944 26.6049L82.4206 23.8582C82.6614 23.271 83.2404 22.8865 83.8832 22.8865L81.673 28.268C81.4685 28.7718 81.2246 29.1396 80.9413 29.3712C80.6583 29.6029 80.2915 29.7188 79.841 29.7188C79.4731 29.7188 79.1661 29.6813 78.9201 29.6072ZM84.546 20.6792H87.4219C88.1858 20.6792 88.7725 20.8606 89.1819 21.2234C89.5914 21.586 89.7962 22.1166 89.7962 22.8154C89.7962 23.3328 89.6563 23.7712 89.3764 24.1305C89.0969 24.4899 88.7012 24.7332 88.1895 24.8604L89.7654 27.7226H88.6803L87.1555 24.9415H85.5896V27.7226H84.546V20.6792ZM87.2474 24.0746C87.7043 24.0746 88.0676 23.9689 88.3373 23.7575C88.6065 23.5456 88.7412 23.2315 88.7415 22.8154C88.7415 22.3584 88.6103 22.0327 88.348 21.838C88.085 21.6429 87.7182 21.5454 87.2477 21.5454H85.5903V24.0746H87.2474ZM90.6938 27.4255C90.3357 27.1267 90.1566 26.7219 90.1566 26.2111C90.1566 25.6737 90.3289 25.2587 90.6734 24.9663C91.0177 24.6744 91.5072 24.5283 92.142 24.528C92.8172 24.528 93.3902 24.6624 93.8609 24.9311V24.6792C93.8609 24.2964 93.7434 24.0125 93.5082 23.8275C93.2729 23.6427 92.9028 23.5504 92.3979 23.5504C92.0979 23.5504 91.8062 23.579 91.5229 23.6363C91.2609 23.6868 91.0053 23.7663 90.7609 23.8734V23.0473C90.9654 22.9527 91.2314 22.877 91.5589 22.8202C91.8863 22.7629 92.2037 22.7342 92.5109 22.7342C93.3225 22.7342 93.9246 22.9106 94.3173 23.2633C94.7095 23.6159 94.9058 24.1047 94.906 24.7296V27.7219H93.9335V27.1777C93.7245 27.4043 93.4676 27.5815 93.1815 27.6963C92.8918 27.8141 92.5387 27.8729 92.1223 27.8727C91.5288 27.8727 91.053 27.7233 90.6949 27.4244L90.6938 27.4255ZM93.2671 26.9065C93.5333 26.779 93.7311 26.601 93.8605 26.3723V25.7176C93.4172 25.4356 92.9228 25.2944 92.3772 25.2942C91.9813 25.2942 91.6862 25.3699 91.4918 25.5213C91.2974 25.6727 91.2002 25.9028 91.2002 26.2115C91.2002 26.8028 91.5926 27.0984 92.3772 27.0984C92.7047 27.0984 93.0008 27.0342 93.2671 26.9065ZM95.6132 22.8857H96.6161V23.5811C96.8411 23.2978 97.1355 23.0774 97.4707 22.9413C97.807 22.8037 98.1669 22.7333 98.5303 22.7342C99.1847 22.7342 99.6724 22.9056 99.9932 23.2484C100.314 23.5912 100.474 24.0514 100.474 24.6288V27.7223H99.4409V24.73C99.4411 23.9441 99.059 23.5511 98.2946 23.5511C97.9671 23.5511 97.6619 23.6267 97.3788 23.7778C97.0958 23.9295 96.8519 24.1596 96.6472 24.468V27.723H95.6136L95.6132 22.8857ZM101.183 20.2754H102.216V27.7219H101.183V20.2754ZM102.227 25.2738L104.488 22.8857H105.747L103.476 25.2738L105.983 27.7226H104.724L102.227 25.2738ZM105.598 17.7188H106.145L107.385 20.8263H106.812L106.527 20.1105H105.212L104.932 20.8263H104.354L105.598 17.7188ZM106.372 19.6437L105.87 18.3234L105.367 19.6437H106.372ZM107.829 17.7188H108.394V20.8263H107.829L107.829 17.7188Z" fill="#0F172A"/>
<path d="M63.9925 29.5129C63.8457 29.5159 63.7123 29.5054 63.5924 29.4815C63.4756 29.4605 63.3856 29.435 63.3227 29.405L63.561 28.6093L63.6284 28.6273C63.8771 28.6902 64.0869 28.6858 64.2578 28.6138C64.4316 28.5449 64.5769 28.3516 64.6938 28.0339L64.8152 27.7012L62.9811 22.6079H64.0285L65.2962 26.5099H65.3501L66.6223 22.6079H67.6697L65.6019 28.2991C65.506 28.5629 65.3846 28.7847 65.2377 28.9645C65.0909 29.1473 64.9141 29.2836 64.7073 29.3736C64.5035 29.4665 64.2652 29.5129 63.9925 29.5129Z" fill="#0F172A"/>
<path d="M58 27.6337V20.9355H60.459C60.9325 20.9355 61.3251 21.0134 61.6368 21.1692C61.9484 21.3251 62.1807 21.5364 62.3335 21.8031C62.4894 22.0668 62.5673 22.3635 62.5673 22.6932C62.5673 22.9719 62.5149 23.2072 62.41 23.399C62.3081 23.5908 62.1717 23.7437 62.0009 23.8575C61.8301 23.9714 61.6413 24.0553 61.4345 24.1093V24.1722C61.6592 24.1842 61.878 24.2561 62.0908 24.388C62.3036 24.5199 62.4789 24.7072 62.6168 24.9499C62.7576 25.1897 62.828 25.4834 62.828 25.8311C62.828 26.1727 62.7471 26.4799 62.5853 26.7526C62.4265 27.0224 62.1807 27.2366 61.848 27.3955C61.5154 27.5543 61.0883 27.6337 60.5669 27.6337H58ZM59.0115 26.7706H60.468C60.9535 26.7706 61.3011 26.6762 61.5109 26.4874C61.7207 26.2986 61.8256 26.0633 61.8256 25.7816C61.8256 25.5688 61.7716 25.3755 61.6637 25.2017C61.5588 25.0249 61.4075 24.884 61.2097 24.7791C61.0119 24.6742 60.7781 24.6218 60.5084 24.6218H59.0115V26.7706ZM59.0115 23.8351H60.3691C60.5938 23.8351 60.7976 23.7916 60.9804 23.7047C61.1632 23.6178 61.3071 23.4949 61.412 23.3361C61.5199 23.1742 61.5738 22.9869 61.5738 22.7741C61.5738 22.4984 61.4764 22.2676 61.2816 22.0818C61.0898 21.893 60.7946 21.7986 60.396 21.7986H59.0115V23.8351Z" fill="#0F172A"/>
<path d="M164.712 6.81152L162.225 6.96094C162.16 6.65039 161.988 6.38379 161.706 6.16113C161.425 5.93262 161.047 5.81836 160.573 5.81836C160.151 5.81836 159.796 5.90625 159.509 6.08203C159.228 6.25781 159.087 6.49219 159.087 6.78516C159.087 7.01953 159.178 7.22168 159.36 7.3916C159.547 7.55566 159.866 7.68457 160.318 7.77832L162.102 8.12988C163.057 8.32324 163.769 8.63672 164.238 9.07031C164.706 9.50391 164.941 10.0752 164.941 10.7842C164.941 11.4346 164.753 12.0029 164.378 12.4893C164.003 12.9697 163.488 13.3477 162.831 13.623C162.175 13.8926 161.422 14.0273 160.573 14.0273C159.272 14.0273 158.235 13.7549 157.461 13.21C156.694 12.665 156.245 11.9268 156.116 10.9951L158.78 10.8545C158.867 11.2529 159.067 11.5547 159.377 11.7598C159.688 11.9648 160.086 12.0674 160.573 12.0674C161.047 12.0674 161.431 11.9736 161.724 11.7861C162.023 11.5986 162.172 11.3613 162.172 11.0742C162.172 10.5879 161.75 10.2598 160.906 10.0898L159.21 9.73828C158.255 9.54492 157.543 9.21387 157.074 8.74512C156.606 8.27637 156.371 7.67578 156.371 6.94336C156.371 6.31055 156.544 5.76562 156.89 5.30859C157.236 4.85156 157.719 4.5 158.34 4.25391C158.967 4.00781 159.699 3.88477 160.537 3.88477C161.78 3.88477 162.755 4.14844 163.464 4.67578C164.179 5.19727 164.595 5.90918 164.712 6.81152Z" fill="#0F172A"/>
<path d="M155.87 4.00781V6.06445H149.955V4.00781H155.87ZM151.3 1.66992H154.016V10.8105C154.016 11.1387 154.089 11.3818 154.235 11.54C154.382 11.6924 154.616 11.7686 154.938 11.7686C155.044 11.7686 155.161 11.7598 155.29 11.7422C155.419 11.7246 155.53 11.7041 155.624 11.6807L156.055 13.7197C155.756 13.8076 155.466 13.8721 155.185 13.9131C154.909 13.9541 154.637 13.9746 154.367 13.9746C153.389 13.9746 152.633 13.7314 152.1 13.2451C151.566 12.7529 151.3 12.0615 151.3 11.1709V1.66992Z" fill="#0F172A"/>
<path d="M143.046 8.15625V13.834H140.331V0.738281H142.958V5.75684H143.082C143.304 5.17676 143.662 4.71973 144.154 4.38574C144.652 4.05176 145.273 3.88477 146.017 3.88477C146.697 3.88477 147.292 4.03418 147.801 4.33301C148.311 4.62598 148.707 5.04785 148.988 5.59863C149.275 6.14941 149.418 6.81152 149.418 7.58496V13.834H146.694V8.06836C146.694 7.46484 146.539 6.99316 146.228 6.65332C145.923 6.31348 145.493 6.14355 144.936 6.14355C144.561 6.14355 144.233 6.22559 143.952 6.38965C143.67 6.54785 143.448 6.77637 143.284 7.0752C143.125 7.37402 143.046 7.73438 143.046 8.15625Z" fill="#0F172A"/>
<path d="M134.292 17.7188C132.968 17.7188 131.931 17.4551 131.181 16.9277C130.431 16.4062 129.974 15.7559 129.81 14.9766L132.323 14.6426C132.399 14.8418 132.52 15.0264 132.684 15.1963C132.848 15.3662 133.067 15.501 133.343 15.6006C133.618 15.7061 133.955 15.7588 134.354 15.7588C134.945 15.7588 135.435 15.6152 135.821 15.3281C136.208 15.0469 136.401 14.5693 136.401 13.8955V12.0938H136.287C136.17 12.3633 135.991 12.6211 135.751 12.8672C135.511 13.1133 135.203 13.3125 134.828 13.4648C134.453 13.6172 134.005 13.6934 133.483 13.6934C132.745 13.6934 132.074 13.5234 131.471 13.1836C130.873 12.8379 130.393 12.3105 130.029 11.6016C129.672 10.8926 129.493 9.99609 129.493 8.91211C129.493 7.79297 129.675 6.86133 130.038 6.11719C130.407 5.37305 130.894 4.81641 131.497 4.44727C132.101 4.07227 132.763 3.88477 133.483 3.88477C134.034 3.88477 134.494 3.97852 134.863 4.16602C135.238 4.34766 135.543 4.57617 135.777 4.85156C136.012 5.12695 136.188 5.39941 136.305 5.66895H136.41V4.00781H139.091V13.9395C139.091 14.7715 138.886 15.4688 138.476 16.0312C138.065 16.5938 137.5 17.0156 136.779 17.2969C136.059 17.5781 135.229 17.7188 134.292 17.7188ZM134.345 11.6455C135.001 11.6455 135.508 11.4023 135.865 10.916C136.229 10.4297 136.41 9.75586 136.41 8.89453C136.41 8.32031 136.328 7.82227 136.164 7.40039C136.006 6.97266 135.774 6.6416 135.47 6.40723C135.165 6.16699 134.79 6.04688 134.345 6.04688C133.899 6.04688 133.521 6.16992 133.211 6.41602C132.906 6.65625 132.675 6.99023 132.517 7.41797C132.358 7.8457 132.279 8.33789 132.279 8.89453C132.279 9.45703 132.358 9.94629 132.517 10.3623C132.675 10.7725 132.906 11.0889 133.211 11.3115C133.521 11.5342 133.899 11.6455 134.345 11.6455Z" fill="#0F172A"/>
<path d="M125.934 13.834V4.00781H128.649V13.834H125.934ZM127.287 2.75098C126.883 2.75098 126.537 2.61621 126.25 2.34668C125.963 2.07715 125.819 1.75195 125.819 1.37109C125.819 0.990234 125.963 0.667969 126.25 0.404297C126.537 0.134766 126.883 0 127.287 0C127.697 0 128.046 0.134766 128.333 0.404297C128.62 0.667969 128.764 0.990234 128.764 1.37109C128.764 1.75195 128.62 2.07715 128.333 2.34668C128.046 2.61621 127.697 2.75098 127.287 2.75098Z" fill="#0F172A"/>
<path d="M124.922 6.81152L122.435 6.96094C122.371 6.65039 122.198 6.38379 121.917 6.16113C121.635 5.93262 121.257 5.81836 120.783 5.81836C120.361 5.81836 120.006 5.90625 119.719 6.08203C119.438 6.25781 119.297 6.49219 119.297 6.78516C119.297 7.01953 119.388 7.22168 119.57 7.3916C119.757 7.55566 120.077 7.68457 120.528 7.77832L122.312 8.12988C123.267 8.32324 123.979 8.63672 124.448 9.07031C124.917 9.50391 125.151 10.0752 125.151 10.7842C125.151 11.4346 124.963 12.0029 124.588 12.4893C124.213 12.9697 123.698 13.3477 123.042 13.623C122.385 13.8926 121.632 14.0273 120.783 14.0273C119.482 14.0273 118.445 13.7549 117.671 13.21C116.904 12.665 116.456 11.9268 116.327 10.9951L118.99 10.8545C119.078 11.2529 119.277 11.5547 119.587 11.7598C119.898 11.9648 120.296 12.0674 120.783 12.0674C121.257 12.0674 121.641 11.9736 121.934 11.7861C122.233 11.5986 122.382 11.3613 122.382 11.0742C122.382 10.5879 121.96 10.2598 121.117 10.0898L119.42 9.73828C118.465 9.54492 117.753 9.21387 117.285 8.74512C116.816 8.27637 116.582 7.67578 116.582 6.94336C116.582 6.31055 116.754 5.76562 117.1 5.30859C117.446 4.85156 117.929 4.5 118.55 4.25391C119.177 4.00781 119.91 3.88477 120.748 3.88477C121.99 3.88477 122.965 4.14844 123.674 4.67578C124.389 5.19727 124.805 5.90918 124.922 6.81152Z" fill="#0F172A"/>
<path d="M109.19 8.15625V13.834H106.474V4.00781H109.146V5.75684H109.242C109.465 5.17676 109.82 4.71973 110.306 4.38574C110.792 4.05176 111.402 3.88477 112.134 3.88477C112.814 3.88477 113.406 4.03418 113.909 4.33301C114.419 4.63184 114.815 5.05664 115.096 5.60742C115.377 6.1582 115.518 6.81738 115.518 7.58496V13.834H112.802V8.06836C112.802 7.4707 112.647 7.00195 112.336 6.66211C112.026 6.31641 111.598 6.14355 111.053 6.14355C110.69 6.14355 110.367 6.22559 110.086 6.38965C109.805 6.54785 109.585 6.77637 109.427 7.0752C109.269 7.37402 109.19 7.73438 109.19 8.15625Z" fill="#0F172A"/>
<path d="M105.19 0.738281V13.834H102.43V0.738281H105.19Z" fill="#0F172A"/>
<path d="M93.2188 14.0186C92.1641 14.0186 91.2441 13.8574 90.459 13.5352C89.6797 13.2129 89.0703 12.7324 88.6309 12.0938C88.1973 11.4551 87.9688 10.6641 87.9453 9.7207H90.6172C90.6523 10.1543 90.7812 10.5205 91.0039 10.8193C91.2266 11.1123 91.5254 11.332 91.9004 11.4785C92.2754 11.625 92.7061 11.6982 93.1924 11.6982C93.6611 11.6982 94.0684 11.6309 94.4141 11.4961C94.7656 11.3613 95.0352 11.1738 95.2227 10.9336C95.416 10.6875 95.5127 10.4033 95.5127 10.0811C95.5127 9.78809 95.4248 9.54199 95.249 9.34277C95.0791 9.14355 94.8271 8.97363 94.4932 8.83301C94.165 8.69238 93.7637 8.56641 93.2891 8.45508L91.8564 8.10352C90.7549 7.83984 89.8848 7.4209 89.2461 6.84668C88.6074 6.2666 88.2881 5.49316 88.2881 4.52637C88.2881 3.73535 88.502 3.04395 88.9297 2.45215C89.3633 1.85449 89.9521 1.3916 90.6963 1.06348C91.4463 0.729492 92.2988 0.5625 93.2539 0.5625C94.2266 0.5625 95.0732 0.729492 95.7939 1.06348C96.5205 1.39746 97.0859 1.86035 97.4902 2.45215C97.9004 3.04395 98.1113 3.72656 98.123 4.5H95.46C95.4131 3.99023 95.1934 3.5918 94.8008 3.30469C94.4141 3.01758 93.8896 2.87402 93.2275 2.87402C92.7822 2.87402 92.4014 2.93848 92.085 3.06738C91.7744 3.19043 91.5371 3.36328 91.373 3.58594C91.209 3.80859 91.127 4.06348 91.127 4.35059C91.127 4.65527 91.2207 4.91309 91.4082 5.12402C91.5957 5.3291 91.8447 5.49902 92.1553 5.63379C92.4717 5.7627 92.8174 5.87109 93.1924 5.95898L94.3613 6.24902C94.9297 6.37793 95.4541 6.55078 95.9346 6.76758C96.415 6.97852 96.8311 7.23926 97.1826 7.5498C97.54 7.86035 97.8154 8.22656 98.0088 8.64844C98.2021 9.06445 98.2988 9.54492 98.2988 10.0898C98.2988 10.8926 98.0967 11.5898 97.6924 12.1816C97.2939 12.7676 96.7168 13.2217 95.9609 13.5439C95.2051 13.8604 94.291 14.0186 93.2188 14.0186Z" fill="#0F172A"/>
<path d="M81.5642 14.0186C80.9431 14.0186 80.3835 13.9102 79.8855 13.6934C79.3933 13.4707 79.0066 13.1426 78.7253 12.709C78.4441 12.2754 78.3035 11.7363 78.3035 11.0918C78.3035 10.541 78.4031 10.084 78.6023 9.7207C78.8015 9.35156 79.074 9.05273 79.4197 8.82422C79.7654 8.5957 80.158 8.42285 80.5974 8.30566C81.0369 8.18848 81.5027 8.10645 81.9949 8.05957C82.5632 8.00684 83.0203 7.9541 83.366 7.90137C83.7117 7.84863 83.9636 7.76953 84.1218 7.66406C84.2859 7.55273 84.3679 7.39453 84.3679 7.18945V7.14551C84.3679 6.74121 84.239 6.42773 83.9812 6.20508C83.7292 5.98242 83.3718 5.87109 82.9089 5.87109C82.4226 5.87109 82.033 5.97949 81.74 6.19629C81.4529 6.40723 81.2625 6.67676 81.1687 7.00488L78.6462 6.80273C78.7751 6.20508 79.0271 5.68945 79.4021 5.25586C79.7771 4.81641 80.2605 4.47949 80.8523 4.24512C81.45 4.00488 82.1414 3.88477 82.9265 3.88477C83.4714 3.88477 83.9929 3.94922 84.491 4.07812C84.989 4.20703 85.4314 4.40625 85.8181 4.67578C86.2107 4.93945 86.5212 5.28223 86.7498 5.7041C86.9783 6.12598 87.0925 6.62695 87.0925 7.20703V13.834H84.4998V12.4629H84.4294C84.2712 12.7734 84.0603 13.0459 83.7966 13.2803C83.533 13.5088 83.2166 13.6904 82.8474 13.8252C82.4783 13.9541 82.0505 14.0186 81.5642 14.0186ZM82.3464 12.1377C82.7449 12.1377 83.0964 12.0586 83.4011 11.9004C83.7117 11.7363 83.9519 11.5195 84.1218 11.25C84.2976 10.9746 84.3855 10.667 84.3855 10.3271V9.28125C84.3035 9.33398 84.1863 9.38379 84.0339 9.43066C83.8875 9.47754 83.7234 9.51855 83.5417 9.55371C83.3601 9.58887 83.1785 9.62109 82.9968 9.65039C82.8152 9.67383 82.6511 9.69727 82.5046 9.7207C82.1824 9.76758 81.9011 9.84375 81.6609 9.94922C81.4207 10.0488 81.2332 10.1865 81.0984 10.3623C80.9695 10.5322 80.905 10.7461 80.905 11.0039C80.905 11.373 81.0398 11.6543 81.3093 11.8477C81.5789 12.041 81.9246 12.1377 82.3464 12.1377Z" fill="#0F172A"/>
<path d="M72.01 14.0186C71.3889 14.0186 70.8293 13.9102 70.3313 13.6934C69.8391 13.4707 69.4524 13.1426 69.1711 12.709C68.8899 12.2754 68.7493 11.7363 68.7493 11.0918C68.7493 10.541 68.8489 10.084 69.0481 9.7207C69.2473 9.35156 69.5198 9.05273 69.8655 8.82422C70.2112 8.5957 70.6038 8.42285 71.0432 8.30566C71.4827 8.18848 71.9485 8.10645 72.4407 8.05957C73.009 8.00684 73.4661 7.9541 73.8118 7.90137C74.1575 7.84863 74.4094 7.76953 74.5676 7.66406C74.7317 7.55273 74.8137 7.39453 74.8137 7.18945V7.14551C74.8137 6.74121 74.6848 6.42773 74.427 6.20508C74.175 5.98242 73.8176 5.87109 73.3547 5.87109C72.8684 5.87109 72.4788 5.97949 72.1858 6.19629C71.8987 6.40723 71.7083 6.67676 71.6145 7.00488L69.092 6.80273C69.2209 6.20508 69.4729 5.68945 69.8479 5.25586C70.2229 4.81641 70.7063 4.47949 71.2981 4.24512C71.8958 4.00488 72.5872 3.88477 73.3723 3.88477C73.9172 3.88477 74.4387 3.94922 74.9368 4.07812C75.4348 4.20703 75.8772 4.40625 76.2639 4.67578C76.6565 4.93945 76.967 5.28223 77.1956 5.7041C77.4241 6.12598 77.5383 6.62695 77.5383 7.20703V13.834H74.9456V12.4629H74.8752C74.717 12.7734 74.5061 13.0459 74.2424 13.2803C73.9788 13.5088 73.6624 13.6904 73.2932 13.8252C72.9241 13.9541 72.4963 14.0186 72.01 14.0186ZM72.7922 12.1377C73.1907 12.1377 73.5422 12.0586 73.8469 11.9004C74.1575 11.7363 74.3977 11.5195 74.5676 11.25C74.7434 10.9746 74.8313 10.667 74.8313 10.3271V9.28125C74.7493 9.33398 74.6321 9.38379 74.4797 9.43066C74.3333 9.47754 74.1692 9.51855 73.9875 9.55371C73.8059 9.58887 73.6243 9.62109 73.4426 9.65039C73.261 9.67383 73.0969 9.69727 72.9504 9.7207C72.6282 9.76758 72.3469 9.84375 72.1067 9.94922C71.8665 10.0488 71.679 10.1865 71.5442 10.3623C71.4153 10.5322 71.3508 10.7461 71.3508 11.0039C71.3508 11.373 71.4856 11.6543 71.7551 11.8477C72.0247 12.041 72.3704 12.1377 72.7922 12.1377Z" fill="#0F172A"/>
<path d="M63.2734 14.0186C62.2188 14.0186 61.2988 13.8574 60.5137 13.5352C59.7344 13.2129 59.125 12.7324 58.6855 12.0938C58.252 11.4551 58.0234 10.6641 58 9.7207H60.6719C60.707 10.1543 60.8359 10.5205 61.0586 10.8193C61.2812 11.1123 61.5801 11.332 61.9551 11.4785C62.3301 11.625 62.7607 11.6982 63.2471 11.6982C63.7158 11.6982 64.123 11.6309 64.4688 11.4961C64.8203 11.3613 65.0898 11.1738 65.2773 10.9336C65.4707 10.6875 65.5674 10.4033 65.5674 10.0811C65.5674 9.78809 65.4795 9.54199 65.3037 9.34277C65.1338 9.14355 64.8818 8.97363 64.5479 8.83301C64.2197 8.69238 63.8184 8.56641 63.3438 8.45508L61.9111 8.10352C60.8096 7.83984 59.9395 7.4209 59.3008 6.84668C58.6621 6.2666 58.3428 5.49316 58.3428 4.52637C58.3428 3.73535 58.5566 3.04395 58.9844 2.45215C59.418 1.85449 60.0068 1.3916 60.751 1.06348C61.501 0.729492 62.3535 0.5625 63.3086 0.5625C64.2812 0.5625 65.1279 0.729492 65.8486 1.06348C66.5752 1.39746 67.1406 1.86035 67.5449 2.45215C67.9551 3.04395 68.166 3.72656 68.1777 4.5H65.5146C65.4678 3.99023 65.248 3.5918 64.8555 3.30469C64.4688 3.01758 63.9443 2.87402 63.2822 2.87402C62.8369 2.87402 62.4561 2.93848 62.1396 3.06738C61.8291 3.19043 61.5918 3.36328 61.4277 3.58594C61.2637 3.80859 61.1816 4.06348 61.1816 4.35059C61.1816 4.65527 61.2754 4.91309 61.4629 5.12402C61.6504 5.3291 61.8994 5.49902 62.21 5.63379C62.5264 5.7627 62.8721 5.87109 63.2471 5.95898L64.416 6.24902C64.9844 6.37793 65.5088 6.55078 65.9893 6.76758C66.4697 6.97852 66.8857 7.23926 67.2373 7.5498C67.5947 7.86035 67.8701 8.22656 68.0635 8.64844C68.2568 9.06445 68.3535 9.54492 68.3535 10.0898C68.3535 10.8926 68.1514 11.5898 67.7471 12.1816C67.3486 12.7676 66.7715 13.2217 66.0156 13.5439C65.2598 13.8604 64.3457 14.0186 63.2734 14.0186Z" fill="#0F172A"/>
<path d="M168.941 3.00696C168.941 1.30858 170.289 0 171.934 0C173.593 0 174.941 1.30858 174.941 2.99304C174.941 4.69142 173.593 6 171.934 6C170.289 6 168.941 4.69142 168.941 3.00696ZM174.186 3.00696C174.186 1.69838 173.202 0.682135 171.934 0.682135C170.68 0.682135 169.709 1.69838 169.709 3.02088C169.709 4.31555 170.68 5.31787 171.934 5.31787C173.202 5.31787 174.186 4.31555 174.186 3.00696ZM170.802 4.58005V1.40603H172.042C172.784 1.40603 173.269 1.83759 173.269 2.47796C173.269 2.89559 173.053 3.21578 172.689 3.39675L173.309 4.58005H172.46L171.934 3.57773H171.57V4.58005H170.802ZM172.002 2.0464H171.57V2.90951H172.002C172.285 2.90951 172.474 2.74246 172.474 2.47796C172.474 2.19954 172.298 2.0464 172.002 2.0464Z" fill="#6366F1"/>
<path d="M54 0H34.8338C29.3577 0 26.6197 3.83471 26.6197 9.37374V14.0606H45.7859L54 0Z" fill="#0F172A"/>
<path d="M0 29H18.6338C23.9577 29 26.6197 25.6801 26.6197 19.0404V14.0606H7.98592L0 29Z" fill="#6366F1"/>
</svg>
