<svg width="129" height="32" viewBox="0 0 129 32" fill="none" xmlns="http://www.w3.org/2000/svg">
<path d="M43.2581 32H39.4732L44.0073 21.9918L37.2214 6.98087H41.0048L45.915 18.1765L50.8568 6.98087H54.6403L43.2581 32Z" fill="#262626"/>
<path d="M94.4753 6.98087H98.0085V9.79533C99.2278 7.79369 101.073 6.60487 103.763 6.60487C107.641 6.60487 109.955 9.13733 109.955 13.3286V24.1801H106.422V14.0474C106.422 11.3892 105.264 9.98195 102.668 9.98195C99.6356 9.98195 98.0085 11.9518 98.0085 15.2667V24.1801H94.4753V6.98087Z" fill="#262626"/>
<path d="M74.7174 15.5805C74.7174 10.3262 78.1263 6.60487 82.63 6.60487C85.3201 6.60487 87.4143 7.9499 88.6653 9.91974V6.97948H92.1986V24.1801H88.6653V21.3034C87.3825 23.2732 85.3505 24.5561 82.6604 24.5561C78.0641 24.5561 74.7174 20.8348 74.7174 15.5805ZM88.6971 15.5805C88.6971 12.296 86.4135 9.98195 83.4124 9.98195C80.41 9.98195 78.2839 12.296 78.2839 15.5805C78.2839 18.8953 80.4417 21.179 83.4124 21.179C86.4135 21.179 88.6971 18.8953 88.6971 15.5805Z" fill="#262626"/>
<path d="M19.5605 6.98087H23.0938V9.88933C24.3766 7.91948 26.4087 6.60487 29.1292 6.60487C33.6329 6.60487 37.0417 10.3262 37.0417 15.5805C37.0417 20.8348 33.6951 24.5561 29.0988 24.5561C26.4087 24.5561 24.3766 23.2732 23.0938 21.3034V31.9986H19.5605V6.98087ZM33.478 15.5805C33.478 12.296 31.352 9.98195 28.3495 9.98195C25.3471 9.98195 23.0648 12.296 23.0648 15.5805C23.0648 18.8953 25.3484 21.179 28.3495 21.179C31.3202 21.179 33.478 18.8953 33.478 15.5805Z" fill="#262626"/>
<path d="M65.3231 2.28917C70.077 2.28917 72.7657 5.10364 72.7657 9.23133C72.7657 12.8586 70.7322 15.1727 67.2612 15.8307L73.7969 24.1801H69.4494L63.2261 16.0173H59.8172V24.1801H56.2826V2.28917H65.3231ZM64.9485 12.8918C67.857 12.8918 69.202 11.3906 69.202 9.26451C69.202 7.13845 67.8266 5.66764 64.9485 5.66764H59.82V12.8918H64.9485Z" fill="#262626"/>
<path d="M17.5766 17.8945C17.5766 22.6788 13.3231 24.5561 9.4138 24.5561C3.28446 24.5561 0.59441 21.179 0 17.3941H3.56508C4.22169 19.9266 5.91092 21.2412 9.382 21.2412C12.3223 21.2412 14.0101 20.0841 14.0101 18.0507C14.0101 16.0173 12.2269 15.6745 8.16139 14.7676C3.9079 13.829 0.593027 12.6416 0.593027 8.5443C0.593027 4.19681 4.4401 1.91455 8.63001 1.91455C14.1345 1.91455 16.667 4.76081 17.2932 8.23188H13.7281C13.1019 6.41824 11.6021 5.22942 8.6618 5.22942C5.72154 5.22942 4.1277 6.54266 4.1277 8.4503C4.1277 10.0137 5.37872 10.5141 9.006 11.2966C14.5437 12.5158 17.5766 13.6728 17.5766 17.8945Z" fill="#262626"/>
<path d="M115.961 14.393L123.404 6.98086H127.938L119.525 15.1436L128.625 24.1814H124.059L115.958 16.2689V24.1814H112.425V0.100911H115.958V14.393H115.961Z" fill="#262626"/>
<path d="M53.0363 0.342824C52.793 2.01132 51.5378 3.3522 49.9149 3.72267C49.6219 3.7904 49.315 3.82496 49.0012 3.82496C47.7806 3.82496 46.6857 3.28861 45.9379 2.43985C45.9338 2.3804 45.931 2.32097 45.931 2.26014C45.931 1.01188 46.9429 0 48.1911 0C48.7717 0 49.3012 0.218412 49.702 0.579205C49.7172 0.59441 49.7338 0.608235 49.749 0.623441L49.7504 0.62482C50.1513 0.984231 50.6807 1.20402 51.2613 1.20402C51.9815 1.20541 52.6229 0.868117 53.0363 0.342824Z" fill="#262626"/>
<path d="M38.8398 0.342824C39.0831 2.01132 40.3383 3.3522 41.9612 3.72267C42.2542 3.7904 42.5611 3.82496 42.8749 3.82496C44.0955 3.82496 45.19 3.28861 45.9379 2.43985C45.942 2.3804 45.9451 2.32097 45.9451 2.26014C45.9451 1.01188 44.9332 0 43.685 0C43.1044 0 42.575 0.218412 42.1741 0.579205C42.1589 0.59441 42.1423 0.608235 42.1271 0.623441L42.1257 0.62482C41.7248 0.984231 41.1954 1.20402 40.6148 1.20402C39.896 1.20541 39.2545 0.868117 38.8398 0.342824Z" fill="#262626"/>
</svg>
